<!-- Generator: Adobe Illustrator 19.2.1, SVG Export Plug-In  -->
<svg version="1.1"
	 xmlns="http://www.w3.org/2000/svg" xmlns:xlink="http://www.w3.org/1999/xlink" xmlns:a="http://ns.adobe.com/AdobeSVGViewerExtensions/3.0/"
	 x="0px" y="0px" width="991.6px" height="974.7px" viewBox="0 0 991.6 974.7" style="enable-background:new 0 0 991.6 974.7;"
	 xml:space="preserve">
<style type="text/css">
	.st0{fill:#2A2A2C;}
	.st1{fill:#312C32;}
	.st2{fill:#777278;}
	.st3{fill:#545358;}
	.st4{fill:#777578;}
	.st5{fill:#A9A5A6;}
	.st6{fill:#A9A0A3;}
	.st7{fill:#D5CBCC;}
	.st8{fill:#838182;}
	.st9{fill:#BCB6B6;}
	.st10{fill:#847F83;}
	.st11{fill:#817D7E;}
	.st12{fill:#6E6A6B;}
	.st13{fill:#464449;}
	.st14{fill:#232325;}
	.st15{fill:#CAC0C1;}
	.st16{fill:#7E797F;}
	.st17{fill:#BBB5B5;}
	.st18{fill:#AAA4A4;}
	.st19{fill:#CDC3C4;}
	.st20{fill:#D0C6C7;}
	.st21{fill:#969092;}
	.st22{fill:#A6A0A2;}
	.st23{fill:#B4AEB2;}
	.st24{fill:#DCD2D3;}
	.st25{fill:#D8CCCC;}
	.st26{fill:#CFC5C6;}
	.st27{fill:#D9CDCF;}
	.st28{fill:#CCC2C3;}
	.st29{fill:#BEB8B8;}
	.st30{fill:#B4AEB0;}
	.st31{fill:#C4BEBE;}
	.st32{fill:#9C9698;}
	.st33{fill:#C2BCBE;}
	.st34{fill:#CBC1C2;}
	.st35{fill:#C8BEBF;}
	.st36{fill:#544F55;}
	.st37{fill:#787379;}
	.st38{fill:#8F8B8C;}
	.st39{fill:#6D686E;}
	.st40{fill:#7A7579;}
	.st41{fill:#AEA8AA;}
	.st42{fill:#BBB5B7;}
	.st43{fill:#938D8F;}
	.st44{fill:#756F71;}
	.st45{fill:#BCB2B3;}
	.st46{fill:#8C8688;}
	.st47{fill:#C3BDBD;}
	.st48{fill:#A09599;}
	.st49{fill:#989294;}
	.st50{fill:#B0AAAC;}
	.st51{fill:#7D787C;}
	.st52{fill:#787178;}
	.st53{fill:#6F6A70;}
	.st54{fill:#C4BBBE;}
	.st55{fill:#A79EA3;}
	.st56{fill:#D8CECD;}
	.st57{fill:#C3C1C4;}
	.st58{fill:#C5BFC1;}
	.st59{fill:#464044;}
	.st60{fill:#6F6D70;}
	.st61{fill:#353338;}
	.st62{fill:#5C5A5D;}
	.st63{fill:#444245;}
	.st64{fill:#4D4B4E;}
	.st65{fill:#444446;}
	.st66{fill:#2A282B;}
	.st67{fill:#2F2D30;}
	.st68{fill:#1B191C;}
	.st69{fill:#252527;}
	.st70{fill:#2A272E;}
	.st71{fill:#5D5D5F;}
	.st72{fill:#28272D;}
	.st73{fill:#2D2A33;}
	.st74{fill:#353336;}
	.st75{fill:#818085;}
	.st76{fill:#29282D;}
	.st77{fill:#4E4D52;}
	.st78{fill:#3A383B;}
	.st79{fill:#424043;}
	.st80{fill:#4B494E;}
	.st81{fill:#555358;}
	.st82{fill:#5C5A5F;}
	.st83{fill:#555259;}
	.st84{fill:#39373A;}
	.st85{fill:#79787D;}
	.st86{fill:#2C2C2E;}
	.st87{fill:#454346;}
	.st88{fill:#2B282F;}
	.st89{fill:#514F54;}
	.st90{fill:#767175;}
	.st91{fill:#48464B;}
	.st92{fill:#49474C;}
	.st93{fill:#B2ACAE;}
	.st94{fill:#B6AFB6;}
	.st95{fill:#726D73;}
	.st96{fill:#656368;}
	.st97{fill:#898488;}
	.st98{fill:#666167;}
	.st99{fill:#302F34;}
	.st100{fill:#2A2B2D;}
	.st101{fill:#414141;}
	.st102{fill:#29282E;}
	.st103{fill:#626264;}
	.st104{fill:#AEA7AE;}
	.st105{fill:#C6BCBD;}
	.st106{fill:#B4ACAC;}
	.st107{fill:#EBDFDF;}
	.st108{fill:#F3E5E5;}
	.st109{fill:#E6DADA;}
	.st110{fill:#D7CBCB;}
	.st111{fill:#DBCFCF;}
	.st112{fill:#A2979B;}
	.st113{fill:#B8B0AE;}
	.st114{fill:#BDB4B7;}
	.st115{fill:#B0AAAA;}
	.st116{fill:#8E8A8B;}
	.st117{fill:#868185;}
	.st118{fill:#4D4B50;}
	.st119{fill:#535156;}
	.st120{fill:#878288;}
	.st121{fill:#858388;}
	.st122{fill:#5F5E63;}
	.st123{fill:#8F8A8E;}
	.st124{fill:#676165;}
	.st125{fill:#625F66;}
	.st126{fill:#A7A1A3;}
	.st127{fill:#D3C8C6;}
	.st128{fill:#C8C0C0;}
	.st129{fill:#969293;}
	.st130{fill:#D2C7CB;}
	.st131{fill:#A49E9E;}
	.st132{fill:#2E2D32;}
	.st133{fill:#484349;}
	.st134{fill:#35393C;}
	.st135{fill:#333136;}
	.st136{fill:#16131A;}
	.st137{fill:#28272C;}
	.st138{fill:#58565B;}
	.st139{fill:#575256;}
	.st140{fill:#312F34;}
	.st141{fill:#3B393E;}
	.st142{fill:#3B3A3F;}
	.st143{fill:#343235;}
	.st144{fill:#888387;}
	.st145{fill:#545158;}
	.st146{fill:#6C6970;}
	.st147{fill:#47444B;}
	.st148{fill:#838087;}
	.st149{fill:#908B8F;}
	.st150{fill:#353034;}
	.st151{fill:#2E2B32;}
	.st152{fill:#878286;}
	.st153{fill:#686369;}
	.st154{fill:#68666B;}
	.st155{fill:#8B898A;}
	.st156{fill:#69646A;}
	.st157{fill:#666165;}
	.st158{fill:#9E979E;}
	.st159{fill:#928C8E;}
	.st160{fill:#7D787E;}
	.st161{fill:#575258;}
	.st162{fill:#D7CDCC;}
	.st163{fill:#363439;}
	.st164{fill:#3C3B40;}
	.st165{fill:#39383D;}
	.st166{fill:#AFA9AB;}
	.st167{fill:#CCC1C5;}
	.st168{fill:#DACED2;}
	.st169{fill:#776D75;}
	.st170{fill:#5A5154;}
	.st171{fill:#929095;}
	.st172{fill:#6B696E;}
	.st173{fill:#615E65;}
	.st174{fill:#2A282D;}
	.st175{fill:#252328;}
	.st176{fill:#222025;}
	.st177{fill:#D8CDD1;}
	.st178{fill:#A8A2A4;}
	.st179{fill:#827C7E;}
	.st180{fill:#CEC4C5;}
	.st181{fill:#C1BCC0;}
	.st182{fill:#2E292D;}
	.st183{fill:#5A575E;}
	.st184{fill:#989397;}
	.st185{fill:#696468;}
	.st186{fill:#828085;}
	.st187{fill:#615F62;}
	.st188{fill:#9B9798;}
	.st189{fill:#868187;}
	.st190{fill:#CCC0C2;}
	.st191{fill:#E3D7D7;}
	.st192{fill:#E4D8D8;}
	.st193{fill:#D5D0CD;}
	.st194{fill:#EADEDE;}
	.st195{fill:#B5AFB1;}
	.st196{fill:#6E696F;}
	.st197{fill:#757074;}
	.st198{fill:#999395;}
	.st199{fill:#727075;}
	.st200{fill:#645F65;}
	.st201{fill:#676268;}
	.st202{fill:#8A8687;}
	.st203{fill:#C3BBBB;}
	.st204{fill:#D2CAC8;}
	.st205{fill:#ECE0E0;}
	.st206{fill:#EEE2E2;}
	.st207{fill:#EFE3E3;}
	.st208{fill:#E1D5D7;}
	.st209{fill:#EFE1E1;}
	.st210{fill:#E8DCDC;}
	.st211{fill:#D9CFD0;}
	.st212{fill:#E7DBDB;}
	.st213{fill:#EDE1E1;}
	.st214{fill:#989292;}
	.st215{fill:#958E95;}
	.st216{fill:#B8AFB2;}
	.st217{fill:#CEC6C6;}
	.st218{fill:#847A7B;}
	.st219{fill:#6E676E;}
	.st220{fill:#DDD2D0;}
	.st221{fill:#E5D9D9;}
	.st222{fill:#DDD1D3;}
	.st223{fill:#D3C7C9;}
	.st224{fill:#DED2D4;}
	.st225{fill:#D9CFCE;}
	.st226{fill:#9F9596;}
	.st227{fill:#B9B3B5;}
	.st228{fill:#726E6F;}
	.st229{fill:#7E797D;}
	.st230{fill:#7E787C;}
	.st231{fill:#C3B9BA;}
	.st232{fill:#BCB6BA;}
	.st233{fill:#CFC3C5;}
	.st234{fill:#DED2D2;}
	.st235{fill:#F2E4E4;}
	.st236{fill:#F4E6E6;}
	.st237{fill:#F4E6E5;}
	.st238{fill:#272729;}
	.st239{fill:#535154;}
	.st240{fill:#212224;}
	.st241{fill:#454044;}
	.st242{fill:#404042;}
	.st243{fill:#C0B6B7;}
	.st244{fill:#3D3B40;}
	.st245{fill:#38363B;}
	.st246{fill:#222325;}
	.st247{fill:#242527;}
	.st248{fill:#29292B;}
	.st249{fill:#504D54;}
	.st250{fill:#202123;}
	.st251{fill:#2C2B30;}
	.st252{fill:#212025;}
	.st253{fill:#29272A;}
	.st254{fill:#E9DDDD;}
	.st255{fill:#E1D5D5;}
	.st256{fill:#D8D0CE;}
	.st257{fill:#232426;}
	.st258{fill:#252628;}
	.st259{fill:#C1BBBB;}
	.st260{fill:#C4BCBC;}
	.st261{fill:#B4ABAE;}
	.st262{fill:#B3ADAF;}
	.st263{fill:#B4B0B1;}
	.st264{fill:#B2ACAC;}
	.st265{fill:#B5AFAF;}
	.st266{fill:#E6E5E3;}
	.st267{fill:#969499;}
	.st268{fill:#423D41;}
	.st269{fill:#5E5C61;}
	.st270{fill:#605E63;}
	.st271{fill:#1A1E1F;}
	.st272{fill:#363638;}
	.st273{fill:#413F44;}
	.st274{fill:#323035;}
	.st275{fill:#5C5C5E;}
	.st276{fill:#3E3B42;}
	.st277{fill:#313133;}
	.st278{fill:#322F38;}
	.st279{fill:#525055;}
	.st280{fill:#201F25;}
	.st281{fill:#2A2A2A;}
	.st282{fill:#1D1E20;}
	.st283{fill:#241F23;}
	.st284{fill:#1F2022;}
	.st285{fill:#2D2B2E;}
	.st286{fill:#5E5C5F;}
	.st287{fill:#222224;}
	.st288{fill:#DBD1D2;}
	.st289{fill:#F0E2E2;}
	.st290{fill:#1F1F21;}
	.st291{fill:#2F2A30;}
	.st292{fill:#34353A;}
	.st293{fill:#706E71;}
	.st294{fill:#413C42;}
	.st295{fill:#878384;}
	.st296{fill:#888485;}
	.st297{fill:#1D1C21;}
	.st298{fill:#5E595F;}
	.st299{fill:#6B666C;}
	.st300{fill:#827D83;}
	.st301{fill:#746F75;}
	.st302{fill:#635E64;}
	.st303{fill:#807B82;}
	.st304{fill:#77767C;}
	.st305{fill:#706E73;}
	.st306{fill:#878183;}
	.st307{fill:#303032;}
	.st308{fill:#767177;}
	.st309{fill:#7A757B;}
	.st310{fill:#6F6A6E;}
	.st311{fill:#5D585E;}
	.st312{fill:#6C676D;}
	.st313{fill:#3E3C41;}
	.st314{fill:#242426;}
	.st315{fill:#CABEC0;}
	.st316{fill:#D5C9CB;}
	.st317{fill:#9C9492;}
	.st318{fill:#7F7A7E;}
	.st319{fill:#B7B3B4;}
	.st320{fill:#787377;}
	.st321{fill:#9F999B;}
	.st322{fill:#928D91;}
	.st323{fill:#77757A;}
	.st324{fill:#67666B;}
	.st325{fill:#7F7D82;}
	.st326{fill:#201D24;}
	.st327{fill:#27262C;}
	.st328{fill:#A3A1A2;}
	.st329{fill:#ACA8A9;}
	.st330{fill:#9E989A;}
	.st331{fill:#46454A;}
	.st332{fill:#444247;}
	.st333{fill:#242529;}
	.st334{fill:#2B2C30;}
	.st335{fill:#38353C;}
	.st336{fill:#757076;}
	.st337{fill:#4C4A4F;}
	.st338{fill:#3C3A3F;}
	.st339{fill:#948F95;}
	.st340{fill:#313035;}
	.st341{fill:#2C2B31;}
	.st342{fill:#212026;}
	.st343{fill:#1E1D22;}
	.st344{fill:#212123;}
	.st345{fill:#312E35;}
	.st346{fill:#343237;}
	.st347{fill:#252326;}
	.st348{fill:#242227;}
	.st349{fill:#2C2A2F;}
	.st350{fill:#36333A;}
	.st351{fill:#333039;}
	.st352{fill:#2B2B2D;}
	.st353{fill:#302D34;}
	.st354{fill:#2E2D33;}
	.st355{fill:#1F1E23;}
	.st356{fill:#2E2E30;}
	.st357{fill:#2D2C31;}
	.st358{fill:#5B565C;}
	.st359{fill:#3C3C3E;}
	.st360{fill:#2F2D32;}
	.st361{fill:#464648;}
	.st362{fill:#858086;}
	.st363{fill:#847F85;}
	.st364{fill:#B3ADAD;}
	.st365{fill:#49474A;}
	.st366{fill:#59575C;}
	.st367{fill:#706B71;}
	.st368{fill:#948E90;}
	.st369{fill:#2B292E;}
	.st370{fill:#C7C2BE;}
	.st371{fill:#D4CACB;}
	.st372{fill:#716C72;}
	.st373{fill:#504E53;}
	.st374{fill:#656066;}
	.st375{fill:#9D9394;}
	.st376{fill:#737176;}
	.st377{fill:#BFB9B9;}
	.st378{fill:#626065;}
	.st379{fill:#383339;}
	.st380{fill:#8C878B;}
	.st381{fill:#1E1C1F;}
	.st382{fill:#25262A;}
	.st383{fill:#6B666A;}
	.st384{fill:#8C8990;}
	.st385{fill:#8B868A;}
	.st386{fill:#6B6A6F;}
	.st387{fill:#39363D;}
	.st388{fill:#4B4A4F;}
	.st389{fill:#817C82;}
	.st390{fill:#8E8B92;}
</style>
<defs>
</defs>
<polygon class="st0" points="591.7,251.7 640.3,246.3 638.3,257.9 "/>
<polygon class="st1" points="640.3,246.3 672.7,267.7 638.3,257.9 "/>
<polygon class="st2" points="638.3,258 663.3,283.6 639.6,281.6 "/>
<polygon class="st3" points="663.3,283.5 684.8,287.8 675.1,294.5 "/>
<polygon class="st4" points="663.3,283.5 675.1,294.5 658.8,300.7 "/>
<polygon class="st5" points="684.8,287.8 704.7,314.2 675.1,294.5 "/>
<polygon class="st6" points="675.1,294.5 704.7,314.2 658.8,300.7 "/>
<polygon class="st7" points="658.8,300.7 704.7,314.2 631.1,326.3 "/>
<polygon class="st8" points="633.3,308.8 658.8,300.7 631.1,326.3 "/>
<polygon class="st9" points="631.1,326.3 704.7,314.2 733.1,369.5 "/>
<polygon class="st10" points="704.7,314.2 733.1,331.5 733.1,369.5 "/>
<polygon class="st11" points="684.8,287.8 688.7,285.3 704.7,314.2 "/>
<polygon class="st12" points="688.7,285.3 719,285.3 704.7,314.2 "/>
<polygon class="st13" points="719,285.3 733.1,331.5 704.7,314.2 "/>
<polygon class="st14" points="733.1,331.5 773.3,368.3 733.1,369.5 "/>
<polygon class="st15" points="631.1,326.3 733.1,369.5 718.9,452.7 "/>
<polygon class="st16" points="569.6,362.5 631.1,326.3 583.5,382.5 "/>
<polygon class="st17" points="583.5,382.5 718.9,452.7 620.8,470.8 "/>
<polygon class="st18" points="583.5,382.5 620.8,470.8 565.5,445.3 "/>
<polygon class="st19" points="620.8,470.8 718.9,452.7 689.2,540 "/>
<polygon class="st20" points="620.8,470.8 689.2,540 602.2,551.8 "/>
<polygon class="st15" points="620.8,470.8 602.2,551.8 558.2,494 "/>
<polygon class="st21" points="565.5,445.3 620.8,470.8 559.5,471.7 "/>
<polygon class="st22" points="559.5,471.7 620.8,470.8 558.2,494 "/>
<polygon class="st23" points="583.5,382.5 553,437.3 565.5,445.3 "/>
<polygon class="st24" points="553,437.3 565.5,445.3 559.5,471.7 "/>
<polygon class="st25" points="553,437.3 532.5,477.8 559.5,471.7 "/>
<polygon class="st26" points="532.5,477.8 559.5,471.7 558.2,494 "/>
<polygon class="st27" points="496.5,456.6 553,437.3 532.5,477.8 "/>
<polygon class="st9" points="496.5,456.6 532.5,477.8 501.4,484.6 "/>
<polygon class="st28" points="496.5,456.6 477.6,484.6 501.4,484.6 "/>
<polygon class="st29" points="501.4,484.6 496.9,492.8 532.5,477.8 "/>
<polygon class="st30" points="477.6,484.6 501.4,484.6 496.9,492.8 "/>
<polygon class="st31" points="477.6,484.6 496.9,492.8 470.2,553.6 "/>
<polygon class="st32" points="496.9,492.8 503.2,553.6 470.2,553.6 "/>
<polygon class="st33" points="496.9,492.8 519.1,548.2 503.2,553.6 "/>
<polygon class="st15" points="496.9,492.8 532.5,477.8 519.1,548.2 "/>
<polygon class="st34" points="519.1,548.2 529.3,548.9 532.5,477.8 "/>
<polygon class="st28" points="532.5,477.8 558.2,494 529.3,548.9 "/>
<polygon class="st35" points="529.3,548.9 572.7,563.9 558.2,494 "/>
<polygon class="st15" points="558.2,494 581.8,560.8 572.7,563.9 "/>
<polygon class="st33" points="558.2,494 602.2,551.8 581.8,560.8 "/>
<polygon class="st36" points="529.3,548.9 572.7,563.9 562.2,569.7 "/>
<polygon class="st37" points="529.3,548.9 562.2,569.7 532.9,561.3 "/>
<polygon class="st38" points="519.1,548.2 529.3,548.9 532.9,561.3 "/>
<polygon class="st39" points="519.1,548.2 507.4,575.4 532.9,561.3 "/>
<polygon class="st40" points="507.4,575.4 532.9,561.3 539.2,580.6 "/>
<polygon class="st41" points="532.9,561.3 562.2,569.7 539.2,580.6 "/>
<polygon class="st42" points="562.2,569.7 557.2,581.9 539.2,580.6 "/>
<polygon class="st43" points="562.2,569.7 572.7,563.9 557.2,581.9 "/>
<polygon class="st44" points="572.7,563.9 581.8,560.8 557.2,581.9 "/>
<polygon class="st45" points="557.2,581.9 581.8,560.8 620.8,637.7 "/>
<polygon class="st46" points="539.2,580.6 557.2,581.9 542.5,592.4 "/>
<polygon class="st9" points="542.5,592.4 557.2,581.9 620.8,637.7 "/>
<polygon class="st47" points="542.5,592.4 571.1,679.2 620.8,637.7 "/>
<polygon class="st48" points="539.2,580.6 525.8,602.5 542.5,592.4 "/>
<polygon class="st49" points="507.4,575.4 539.2,580.6 525.8,602.5 "/>
<polygon class="st50" points="507.4,575.4 496.1,603.7 525.8,602.5 "/>
<polygon class="st51" points="503.2,553.6 507.4,575.4 519.1,548.2 "/>
<polygon class="st52" points="486.7,560.8 503.2,553.6 507.4,575.4 "/>
<polygon class="st53" points="486.7,560.8 490.2,585.3 507.4,575.4 "/>
<polygon class="st54" points="470.2,553.6 503.2,553.6 486.7,560.8 "/>
<polygon class="st55" points="470.2,553.6 466.3,561.8 486.7,560.8 "/>
<polygon class="st56" points="446.5,556.4 470.2,553.6 466.3,561.8 "/>
<polygon class="st57" points="639.6,281.5 658.8,300.7 663.3,283.5 "/>
<polygon class="st58" points="639.6,281.5 638.3,295.6 658.8,300.7 "/>
<polygon class="st59" points="638.3,295.6 633.3,308.8 658.8,300.7 "/>
<polygon class="st60" points="605.6,310.9 633.3,308.8 631.1,326.3 "/>
<polygon class="st61" points="605.6,310.9 618.2,298.4 633.3,308.8 "/>
<polygon class="st62" points="618.2,298.4 638.3,295.6 633.3,308.8 "/>
<polygon class="st63" points="626.1,282.8 639.6,281.5 638.3,295.6 "/>
<polygon class="st64" points="619.1,287.8 626.1,282.8 638.3,295.6 "/>
<polygon class="st65" points="619.1,287.8 618.2,298.4 638.3,295.6 "/>
<polygon class="st66" points="620.5,274.3 626.1,282.8 639.6,281.5 "/>
<polygon class="st67" points="620.5,274.3 619.1,287.8 626.1,282.8 "/>
<polygon class="st68" points="613.1,282.8 619.1,287.8 620.5,274.3 "/>
<polygon class="st69" points="612.8,272 620.5,274.3 613.1,282.8 "/>
<polygon class="st71" points="612.8,272 597.2,274.3 613.1,282.8 "/>
<polygon class="st14" points="591.7,251.7 612.8,272 638.3,257.9 "/>
<polygon class="st70" points="612.8,272 620.5,274.3 638.3,257.9 "/>
<polygon class="st72" points="591.7,251.7 597.2,274.3 612.8,272 "/>
<polygon class="st73" points="591.7,251.7 565.3,266.8 597.2,274.3 "/>
<polygon class="st74" points="565.3,266.8 573.9,295.4 597.2,274.3 "/>
<polygon class="st75" points="597.2,286.2 597.2,274.3 573.9,295.4 "/>
<polygon class="st76" points="597.2,274.3 613.1,282.8 597.2,286.2 "/>
<polygon class="st77" points="597.2,286.2 600.4,295.8 613.1,282.8 "/>
<polygon class="st78" points="600.4,295.8 618.2,298.4 613.1,282.8 "/>
<polygon class="st79" points="613.1,282.8 619.1,287.8 618.2,298.4 "/>
<polygon class="st80" points="600.4,295.8 605.6,310.9 618.2,298.4 "/>
<polygon class="st80" points="600.4,295.8 583.5,307.9 605.6,310.9 "/>
<polygon class="st81" points="583.5,307.9 569.6,362.5 605.6,310.9 "/>
<polygon class="st82" points="605.6,310.9 569.6,362.5 631.1,326.3 "/>
<polygon class="st80" points="564.1,307.8 583.5,307.9 569.6,362.5 "/>
<polygon class="st83" points="528,317.8 564.1,307.8 569.6,362.5 "/>
<polygon class="st78" points="573.9,295.4 564.1,307.8 583.5,307.9 "/>
<polygon class="st84" points="573.9,295.4 600.4,295.8 583.5,307.9 "/>
<polygon class="st85" points="573.9,295.4 597.2,286.2 600.4,295.8 "/>
<polygon class="st86" points="553.9,303.6 573.9,295.4 564.1,307.8 "/>
<polygon class="st87" points="539.9,287.6 573.9,295.4 553.9,303.6 "/>
<polygon class="st88" points="539.9,287.6 565.3,266.8 573.9,295.4 "/>
<polygon class="st89" points="528.5,281.6 539.9,287.6 565.3,266.8 "/>
<polygon class="st90" points="528.5,281.6 528,317.8 539.9,287.6 "/>
<polygon class="st91" points="539.9,287.6 528,317.8 553.9,303.6 "/>
<polygon class="st92" points="553.9,303.6 564.1,307.8 528,317.8 "/>
<polygon class="st93" points="515.8,248.7 528.5,281.6 565.3,266.8 "/>
<polygon class="st94" points="515.8,248.7 478.5,299.8 528.5,281.6 "/>
<polygon class="st95" points="515.8,248.7 573.8,238.8 565.3,266.8 "/>
<polygon class="st96" points="573.8,238.8 591.7,251.7 565.3,266.8 "/>
<polygon class="st97" points="573.8,238.8 642,215 591.7,251.7 "/>
<polygon class="st98" points="633.3,173.3 573.8,238.8 642,215 "/>
<polygon class="st99" points="527.2,173.4 633.3,173.3 573.8,238.8 "/>
<polygon class="st100" points="527.2,173.4 515.8,248.7 573.8,238.8 "/>
<polygon class="st101" points="527.2,173.4 482.5,221.7 515.8,248.7 "/>
<polygon class="st102" points="463.6,201.5 482.5,221.7 527.2,173.4 "/>
<polygon class="st103" points="421.7,170.9 463.6,201.5 527.2,173.4 "/>
<polygon class="st30" points="421.7,170.9 425.2,219.4 463.6,201.5 "/>
<polygon class="st104" points="425.2,219.4 463.6,201.5 482.5,221.7 "/>
<polygon class="st105" points="425.2,219.4 450.3,266.3 482.5,221.7 "/>
<polygon class="st106" points="482.5,221.7 450.3,266.3 515.8,248.7 "/>
<polygon class="st20" points="450.3,266.3 478.5,299.8 515.8,248.7 "/>
<polygon class="st107" points="450.3,266.3 448.3,301.5 478.5,299.8 "/>
<polygon class="st108" points="448.3,301.5 468,327.8 478.5,299.8 "/>
<polygon class="st109" points="448.3,301.5 445.6,324.8 468,327.8 "/>
<polygon class="st27" points="468,327.8 486.5,383.7 528,317.8 "/>
<polygon class="st110" points="478.5,299.8 528,317.8 468,327.8 "/>
<polygon class="st7" points="478.5,299.8 528.5,281.6 528,317.8 "/>
<polygon class="st111" points="440.1,306.9 448.3,301.5 445.6,324.8 "/>
<polygon class="st112" points="438.2,283.5 448.3,301.5 440.1,306.9 "/>
<polygon class="st113" points="438.2,283.5 450.3,266.3 448.3,301.5 "/>
<polygon class="st114" points="431.2,260.9 438.2,283.5 450.3,266.3 "/>
<polygon class="st115" points="425.2,219.4 431.2,260.9 450.3,266.3 "/>
<polygon class="st116" points="425.2,219.4 419.1,249.7 431.2,260.9 "/>
<polygon class="st117" points="419.1,249.7 406.5,255.8 431.2,260.9 "/>
<polygon class="st118" points="406.5,255.8 429,288 431.2,260.9 "/>
<polygon class="st119" points="406.5,255.8 404.5,293 429,288 "/>
<polygon class="st120" points="396.3,236.9 425.2,219.4 419.1,249.7 "/>
<polygon class="st121" points="396.3,236.9 406.5,255.8 419.1,249.7 "/>
<polygon class="st122" points="396.3,236.9 384.7,250.5 406.5,255.8 "/>
<polygon class="st123" points="384.5,228.4 384.7,250.5 396.3,236.9 "/>
<polygon class="st124" points="384.5,228.4 425.2,219.4 396.3,236.9 "/>
<polygon class="st125" points="384.5,228.4 368.3,250 384.7,250.5 "/>
<polygon class="st126" points="352.3,199.9 368.3,250 384.5,228.4 "/>
<polygon class="st127" points="352.3,199.9 421.7,170.9 384.5,228.4 "/>
<polygon class="st128" points="421.7,170.9 384.5,228.4 425.2,219.4 "/>
<polygon class="st129" points="352.3,199.9 325.1,252.4 368.3,250 "/>
<polygon class="st130" points="309.5,212 352.3,199.9 325.1,252.4 "/>
<polygon class="st131" points="309.5,212 303,270.7 325.1,252.4 "/>
<polygon class="st132" points="368.3,250 370.3,268.8 384.7,250.5 "/>
<polygon class="st133" points="370.3,268.8 384.7,250.5 382.3,273.9 "/>
<polygon class="st134" points="368.3,250 364.8,270 370.3,268.8 "/>
<polygon class="st135" points="368.3,250 357.5,269.4 364.8,270 "/>
<polygon class="st136" points="364.8,270 359.5,281.8 375.1,281.2 "/>
<polygon class="st137" points="364.8,270 370.3,268.8 375.1,281.2 "/>
<polygon class="st138" points="370.3,268.8 375.1,281.2 382.3,273.9 "/>
<polygon class="st139" points="382.3,273.9 375.1,281.2 388.7,279.5 "/>
<polygon class="st140" points="382.3,273.9 391.8,270.2 388.7,279.5 "/>
<polygon class="st141" points="384.7,250.5 391.8,270.2 382.3,273.9 "/>
<polygon class="st142" points="384.7,250.5 391.8,270.2 406.5,255.8 "/>
<polygon class="st143" points="391.8,270.2 404.5,293 406.5,255.8 "/>
<polygon class="st144" points="388.7,279.5 391.8,270.2 404.5,293 "/>
<polygon class="st145" points="359.5,281.8 367.1,287.4 375.1,281.2 "/>
<polygon class="st146" points="359.5,281.8 359.5,294.5 367.1,287.4 "/>
<polygon class="st147" points="367.1,287.4 359.5,294.5 370.1,296.3 "/>
<polygon class="st148" points="367.1,287.4 380.3,287.9 370.1,296.3 "/>
<polygon class="st149" points="375.1,281.2 388.7,279.5 380.3,287.9 "/>
<polygon class="st150" points="388.7,279.5 388.6,288.3 380.3,287.9 "/>
<polygon class="st151" points="380.3,287.9 384.7,294.5 370.1,296.3 "/>
<polygon class="st152" points="388.7,279.5 388.6,288.3 404.5,293 "/>
<polygon class="st153" points="404.5,293 429,288 422,304.9 "/>
<polygon class="st154" points="404.5,293 406.3,315.3 422,304.9 "/>
<polygon class="st155" points="429,288 422,304.9 440.1,306.9 "/>
<polygon class="st156" points="429,288 438.2,283.5 431.2,260.9 "/>
<polygon class="st157" points="429,288 438.2,283.5 440.1,306.9 "/>
<polygon class="st158" points="266.6,220.4 273.2,272.8 303,270.7 "/>
<polygon class="st159" points="273.2,272.8 275.3,287.5 303,270.7 "/>
<polygon class="st160" points="275.3,287.5 303,270.7 314.5,299.5 "/>
<polygon class="st161" points="303,270.7 322.6,282.3 314.5,299.5 "/>
<polygon class="st126" points="322.6,282.3 336.2,290.4 314.5,299.5 "/>
<polygon class="st162" points="314.5,299.5 322,314.2 336.2,290.4 "/>
<polygon class="st118" points="303,270.7 317.8,267.9 322.6,282.3 "/>
<polygon class="st163" points="303,270.7 325.1,252.4 317.8,267.9 "/>
<polygon class="st164" points="325.1,252.4 340.5,269.4 317.8,267.9 "/>
<polygon class="st122" points="317.8,267.9 330.1,277.7 340.5,269.4 "/>
<polygon class="st165" points="317.8,267.9 322.6,282.3 330.1,277.7 "/>
<polygon class="st166" points="322.6,282.3 330.1,277.7 336.2,290.4 "/>
<polygon class="st167" points="330.1,277.7 340.5,269.4 349.1,279.2 "/>
<polygon class="st168" points="330.1,277.7 349.1,279.2 336.2,290.4 "/>
<polygon class="st169" points="336.2,290.4 349.1,279.2 351.5,287.3 "/>
<polygon class="st132" points="325.1,252.4 346.7,266.4 340.5,269.4 "/>
<polygon class="st170" points="340.5,269.4 346.7,266.4 349.1,279.2 "/>
<polygon class="st171" points="346.7,266.4 357.5,269.4 349.1,279.2 "/>
<polygon class="st172" points="349.1,279.2 357.5,269.4 359.5,281.8 "/>
<polygon class="st173" points="349.1,279.2 359.5,281.8 351.5,287.3 "/>
<polygon class="st174" points="357.5,269.4 364.8,270 359.5,281.8 "/>
<polygon class="st175" points="325.1,252.4 368.3,250 346.7,266.4 "/>
<polygon class="st176" points="368.3,250 346.7,266.4 357.5,269.4 "/>
<polygon class="st177" points="336.2,290.4 343.2,294.5 351.5,287.3 "/>
<polygon class="st178" points="336.2,290.4 343.2,294.5 322,314.2 "/>
<polygon class="st179" points="322,314.2 352.1,300.5 343.2,294.5 "/>
<polygon class="st180" points="322,314.2 346,326.3 352.1,300.5 "/>
<polygon class="st181" points="343.2,294.5 351.5,287.3 352.1,300.5 "/>
<polygon class="st182" points="351.5,287.3 359.5,294.5 352.1,300.5 "/>
<polygon class="st183" points="351.5,287.3 359.5,281.8 359.5,294.5 "/>
<polygon class="st184" points="352.1,300.5 359.5,294.5 368.3,304.4 "/>
<polygon class="st185" points="380.3,287.9 384.7,294.5 388.6,288.3 "/>
<polygon class="st186" points="370.1,296.3 368.3,304.4 384.7,294.5 "/>
<polygon class="st187" points="359.5,294.5 370.1,296.3 368.3,304.4 "/>
<polygon class="st22" points="352.1,300.5 368.3,304.4 346,326.3 "/>
<polygon class="st188" points="346,326.3 368.3,304.4 382,321.4 "/>
<polygon class="st189" points="346,326.3 382,321.4 402.1,343.5 "/>
<polygon class="st190" points="346,326.3 323.5,355.4 402.1,343.5 "/>
<polygon class="st191" points="322,314.2 323.5,355.4 346,326.3 "/>
<polygon class="st192" points="270.6,323.9 322,314.2 323.5,355.4 "/>
<polygon class="st193" points="255.5,340.2 270.6,323.9 323.5,355.4 "/>
<polygon class="st194" points="255.5,340.2 248.2,379.5 323.5,355.4 "/>
<polygon class="st195" points="323.5,355.4 402.1,343.5 422,359.5 "/>
<polygon class="st156" points="368.3,304.4 384.7,294.5 395,304.5 "/>
<polygon class="st95" points="368.3,304.4 395,304.5 382,321.4 "/>
<polygon class="st196" points="395,304.5 406.3,315.3 382,321.4 "/>
<polygon class="st197" points="382,321.4 406.3,315.3 402.1,343.5 "/>
<polygon class="st198" points="406.3,315.3 445.6,324.8 402.1,343.5 "/>
<polygon class="st199" points="395,304.5 404.5,293 406.3,315.3 "/>
<polygon class="st200" points="388.6,288.3 395,304.5 404.5,293 "/>
<polygon class="st201" points="388.6,288.3 384.7,294.5 395,304.5 "/>
<polygon class="st202" points="422,304.9 406.3,315.3 445.6,324.8 "/>
<polygon class="st203" points="422,304.9 440.1,306.9 445.6,324.8 "/>
<polygon class="st204" points="402.1,343.5 422,359.5 445.6,324.8 "/>
<polygon class="st205" points="445.6,324.8 422,359.5 439.7,366.8 "/>
<polygon class="st206" points="445.6,324.8 468,327.8 439.7,366.8 "/>
<polygon class="st207" points="468,327.8 439.7,366.8 486.5,383.7 "/>
<polygon class="st109" points="248.2,379.5 254.8,428.8 323.5,355.4 "/>
<polygon class="st208" points="254.8,428.8 262.6,472.7 323.5,355.4 "/>
<polygon class="st194" points="323.5,355.4 422,359.5 423.8,464 "/>
<polygon class="st209" points="423.8,464 452.6,440.3 433.3,476.4 "/>
<polygon class="st107" points="433.3,476.4 460.6,478.8 452.6,440.3 "/>
<polygon class="st210" points="452.6,440.3 496.5,456.6 460.6,478.8 "/>
<polygon class="st211" points="460.6,478.8 496.5,456.6 477.6,484.6 "/>
<polygon class="st212" points="460.6,478.8 470.2,553.6 477.6,484.6 "/>
<polygon class="st210" points="460.6,478.8 446.5,556.4 470.2,553.6 "/>
<polygon class="st213" points="433.3,476.4 460.6,478.8 446.5,556.4 "/>
<polygon class="st214" points="446.5,556.4 465,571.4 466.3,561.8 "/>
<polygon class="st215" points="446.5,556.4 443.1,572.4 465,571.4 "/>
<polygon class="st216" points="430.7,560.9 446.5,556.4 443.1,572.4 "/>
<polygon class="st217" points="430.7,560.9 424.3,576.8 443.1,572.4 "/>
<polygon class="st218" points="414.1,558.8 430.7,560.9 424.3,576.8 "/>
<polygon class="st219" points="394,553.8 414.1,558.8 424.3,576.8 "/>
<polygon class="st220" points="424.3,576.8 443.1,572.4 446.6,590.4 "/>
<polygon class="st221" points="394,553.8 359.5,641.2 424.3,576.8 "/>
<polygon class="st191" points="424.3,576.8 359.5,641.2 446.6,590.4 "/>
<polygon class="st222" points="446.6,590.4 416.3,682.2 359.5,641.2 "/>
<polygon class="st223" points="446.6,590.4 465.3,598.7 416.3,682.2 "/>
<polygon class="st224" points="446.6,590.4 465,571.4 465.3,598.7 "/>
<polygon class="st225" points="443.1,572.4 465,571.4 446.6,590.4 "/>
<polygon class="st226" points="465,571.4 490.2,585.3 465.3,598.7 "/>
<polygon class="st227" points="465.3,598.7 490.2,585.3 496.1,603.7 "/>
<polygon class="st228" points="490.2,585.3 507.4,575.4 496.1,603.7 "/>
<polygon class="st229" points="486.7,560.8 465,571.4 490.2,585.3 "/>
<polygon class="st230" points="466.3,561.8 465,571.4 486.7,560.8 "/>
<polygon class="st231" points="528,317.8 546.3,370.5 486.5,383.7 "/>
<polygon class="st42" points="528,317.8 569.6,362.5 546.3,370.5 "/>
<polygon class="st232" points="569.6,362.5 546.3,370.5 583.5,382.5 "/>
<polygon class="st233" points="546.3,370.5 553,437.3 583.5,382.5 "/>
<polygon class="st234" points="486.5,383.7 496.5,456.6 553,437.3 "/>
<polygon class="st205" points="486.5,383.7 452.6,440.3 496.5,456.6 "/>
<polygon class="st108" points="444.5,388.5 423.8,464 452.6,440.3 "/>
<polygon class="st207" points="444.5,388.5 486.5,383.7 452.6,440.3 "/>
<polygon class="st235" points="439.7,366.8 444.5,388.5 486.5,383.7 "/>
<polygon class="st236" points="422,359.5 444.5,388.5 439.7,366.8 "/>
<polygon class="st237" points="422,359.5 444.5,388.5 423.8,464 "/>
<polygon class="st238" points="187.8,210 266.6,220.4 273.2,272.8 "/>
<polygon class="st239" points="187.8,210 187.3,316.7 273.2,272.8 "/>
<polygon class="st240" points="187.3,316.7 273.2,272.8 246.8,323 "/>
<polygon class="st241" points="187.3,316.7 175.5,359.3 246.8,323 "/>
<polygon class="st242" points="273.2,272.8 246.8,323 275.3,287.5 "/>
<polygon class="st126" points="275.3,287.5 270.6,323.9 314.5,299.5 "/>
<polygon class="st243" points="314.5,299.5 322,314.2 270.6,323.9 "/>
<polygon class="st244" points="275.3,287.5 246.8,323 270.6,323.9 "/>
<polygon class="st245" points="246.8,323 255.5,340.2 270.6,323.9 "/>
<polygon class="st246" points="175.5,359.3 246.8,323 255.5,340.2 "/>
<polygon class="st247" points="175.5,359.3 255.5,340.2 248.2,379.5 "/>
<polygon class="st248" points="175.5,359.3 215.5,405.5 248.2,379.5 "/>
<polygon class="st249" points="175.5,359.3 198.2,421.5 215.5,405.5 "/>
<polygon class="st69" points="215.5,405.5 248.2,379.5 254.8,428.8 "/>
<polygon class="st250" points="215.5,405.5 198.2,421.5 254.8,428.8 "/>
<polygon class="st251" points="198.2,421.5 194,482.5 254.8,428.8 "/>
<polygon class="st86" points="254.8,428.8 262.6,472.7 194,482.5 "/>
<polygon class="st252" points="194,482.5 216.3,515.2 262.6,472.7 "/>
<polygon class="st253" points="262.6,472.7 285.8,536.7 216.3,515.2 "/>
<polygon class="st210" points="323.5,355.4 262.6,472.7 423.8,464 "/>
<polygon class="st254" points="262.6,472.7 285.8,536.7 423.8,464 "/>
<polygon class="st255" points="285.8,536.7 394,553.8 423.8,464 "/>
<polygon class="st256" points="285.8,536.7 325.3,605.7 394,553.8 "/>
<polygon class="st257" points="285.8,536.7 256,560.2 325.3,605.7 "/>
<polygon class="st257" points="216.3,515.2 256,560.2 285.8,536.7 "/>
<polygon class="st240" points="216.3,515.2 192.3,580.3 256,560.2 "/>
<polygon class="st258" points="192.3,580.3 219.7,614.7 256,560.2 "/>
<polygon class="st100" points="256,560.2 219.7,614.7 325.3,605.7 "/>
<polygon class="st259" points="325.3,605.7 359.5,641.2 394,553.8 "/>
<polygon class="st109" points="465.3,598.7 416.3,682.2 446,708 "/>
<polygon class="st260" points="465.3,598.7 496.1,603.7 446,708 "/>
<polygon class="st261" points="496.1,603.7 513.5,719 483.2,723.3 "/>
<polygon class="st262" points="496.1,603.7 538.3,710.2 513.5,719 "/>
<polygon class="st263" points="496.1,603.7 525.8,602.5 538.3,710.2 "/>
<polygon class="st105" points="525.8,602.5 571.1,679.2 538.3,710.2 "/>
<polygon class="st264" points="525.8,602.5 542.5,592.4 571.1,679.2 "/>
<polygon class="st194" points="423.8,464 433.3,476.4 394,553.8 "/>
<polygon class="st194" points="433.3,476.4 430.7,560.9 446.5,556.4 "/>
<polygon class="st254" points="414.1,558.8 430.7,560.9 433.3,476.4 "/>
<polygon class="st254" points="394,553.8 414.1,558.8 433.3,476.4 "/>
<polygon class="st265" points="581.8,560.8 602.2,551.8 620.8,637.7 "/>
<polygon class="st17" points="602.2,551.8 661.7,584.2 620.8,637.7 "/>
<polygon class="st105" points="602.2,551.8 689.2,540 661.7,584.2 "/>
<polygon class="st234" points="266.6,220.4 274.1,122.4 309.5,212 "/>
<polygon class="st192" points="352.3,199.9 376.3,79.4 421.7,170.9 "/>
<polygon class="st266" points="376.3,79.4 497.8,20.7 421.7,170.9 "/>
<polygon class="st267" points="497.8,20.7 421.7,170.9 527.2,173.4 "/>
<polygon class="st268" points="497.8,20.7 573.6,2.7 527.2,173.4 "/>
<polygon class="st269" points="573.6,2.7 633.3,173.3 527.2,173.4 "/>
<polygon class="st270" points="573.6,2.7 624.6,11.9 633.3,173.3 "/>
<polygon class="st271" points="624.6,11.9 651.5,3.7 633.3,173.3 "/>
<polygon class="st272" points="651.5,3.7 766.7,162.7 633.3,173.3 "/>
<polygon class="st273" points="766.7,162.7 849.6,195.7 769,251.7 "/>
<polygon class="st274" points="766.7,162.7 794.8,108.9 849.6,195.7 "/>
<polygon class="st275" points="651.5,3.7 794.8,108.9 766.7,162.7 "/>
<polygon class="st276" points="794.8,108.9 829.1,46.9 849.6,195.7 "/>
<polygon class="st277" points="829.1,46.9 991.6,206.9 849.6,195.7 "/>
<polygon class="st278" points="802.6,1.7 794.8,108.9 829.1,46.9 "/>
<polygon class="st279" points="651.5,3.7 802.6,1.7 794.8,108.9 "/>
<polygon class="st257" points="769,251.7 844.1,279.9 733.1,331.5 "/>
<polygon class="st280" points="733.1,331.5 773.3,368.3 844.1,279.9 "/>
<polygon class="st281" points="773.3,368.3 844.1,279.9 851.1,382.9 "/>
<polygon class="st138" points="772.8,368.3 850.6,382.9 831.8,431.2 "/>
<polygon class="st282" points="773.3,368.3 718.9,452.7 832.3,431.2 "/>
<polygon class="st283" points="718.9,452.7 689.2,540 735.1,519.9 "/>
<polygon class="st284" points="718.9,452.7 735.1,519.9 832.3,431.2 "/>
<polygon class="st285" points="735.1,519.9 832.3,431.2 806.8,557.4 "/>
<polygon class="st286" points="832.3,431.2 852.1,438.9 806.8,557.4 "/>
<polygon class="st287" points="733.1,369.5 718.9,452.7 773.3,368.3 "/>
<polygon class="st288" points="266.6,220.4 309.5,212 303,270.7 "/>
<polygon class="st289" points="274.1,122.4 376.3,79.4 352.3,199.9 "/>
<polygon class="st195" points="274.1,122.4 317.7,0 376.3,79.4 "/>
<polygon class="st290" points="238.3,57.7 317.7,0 274.1,122.4 "/>
<polygon class="st291" points="238.3,57.7 242,105 274.1,122.4 "/>
<polygon class="st292" points="242,105 211.3,146.7 274.1,122.4 "/>
<polygon class="st293" points="117.7,76 238.3,57.7 242,105 "/>
<polygon class="st189" points="117.7,76 242,105 211.3,146.7 "/>
<polygon class="st142" points="117.7,76 211.3,146.7 200.7,184.3 "/>
<polygon class="st294" points="117.7,76 200.7,184.3 187.8,210 "/>
<polygon class="st295" points="200.7,184.3 211.3,146.7 266.6,220.4 "/>
<polygon class="st296" points="187.8,210 200.7,184.3 266.6,220.4 "/>
<polygon class="st297" points="211.3,146.7 274.1,122.4 266.6,220.4 "/>
<polygon class="st298" points="117.7,76 43.3,224.7 187.8,210 "/>
<polygon class="st156" points="43.3,224.7 187.8,210 187.3,316.7 "/>
<polygon class="st299" points="43.3,224.7 187.3,316.7 175.5,359.3 "/>
<polygon class="st300" points="43.3,224.7 4.3,402.3 175.5,359.3 "/>
<polygon class="st37" points="4.3,402.3 175.5,359.3 145,425.3 "/>
<polygon class="st298" points="4.3,402.3 145,425.3 88.3,526.3 "/>
<polygon class="st301" points="145,425.3 156.3,458.7 88.3,526.3 "/>
<polygon class="st302" points="145,425.3 156.3,458.7 198.2,421.5 "/>
<polygon class="st303" points="175.5,359.3 145,425.3 198.2,421.5 "/>
<polygon class="st304" points="156.3,458.7 198.2,421.5 194,482.5 "/>
<polygon class="st305" points="156.3,458.7 194,482.5 178,556.3 "/>
<polygon class="st306" points="88.3,526.3 156.3,458.7 178,556.3 "/>
<polygon class="st307" points="178,556.3 216.3,515.2 194,482.5 "/>
<polygon class="st238" points="178,556.3 192.3,580.3 216.3,515.2 "/>
<polygon class="st156" points="88.3,526.3 136.7,569.7 178,556.3 "/>
<polygon class="st308" points="136.7,569.7 178,556.3 192.3,580.3 "/>
<polygon class="st309" points="136.7,569.7 128,590.3 192.3,580.3 "/>
<polygon class="st310" points="88.3,526.3 128,590.3 136.7,569.7 "/>
<polygon class="st311" points="88.3,526.3 5.7,634.3 128,590.3 "/>
<polygon class="st312" points="4.3,402.3 88.3,526.3 5.7,634.3 "/>
<polygon class="st313" points="128,590.3 136.7,663.3 192.3,580.3 "/>
<polygon class="st197" points="192.3,580.3 136.7,663.3 219.7,614.7 "/>
<polygon class="st151" points="219.7,614.7 136.7,663.3 183.3,683 "/>
<polygon class="st314" points="219.7,614.7 183.3,683 215.7,707 "/>
<polygon class="st282" points="219.7,614.7 215.7,707 325.3,605.7 "/>
<polygon class="st315" points="5.7,634.3 128,590.3 79,672.3 "/>
<polygon class="st109" points="5.7,634.3 79,672.3 69.7,681.3 "/>
<polygon class="st180" points="128,590.3 79,672.3 136.7,663.3 "/>
<polygon class="st316" points="79,672.3 97.2,681.7 136.7,663.3 "/>
<polygon class="st317" points="79,672.3 69.7,681.3 83.3,687.7 "/>
<polygon class="st318" points="79,672.3 83.3,687.7 97.2,681.7 "/>
<polygon class="st319" points="97.2,681.7 110.7,692.7 136.7,663.3 "/>
<polygon class="st320" points="83.3,687.7 97.2,681.7 110.7,692.7 "/>
<polygon class="st321" points="110.7,692.7 136.7,663.3 127.3,694 "/>
<polygon class="st322" points="136.7,663.3 131.8,698.8 127.3,694 "/>
<polygon class="st323" points="136.7,663.3 183.3,683 131.8,698.8 "/>
<polygon class="st324" points="131.8,698.8 137.2,718.5 183.3,683 "/>
<polygon class="st325" points="183.3,683 137.2,718.5 162,760.8 "/>
<polygon class="st326" points="183.3,683 215.7,707 162,760.8 "/>
<polygon class="st327" points="215.7,707 235.2,742.2 162,760.8 "/>
<polygon class="st3" points="110.7,692.7 127.3,694 131.8,698.8 "/>
<polygon class="st328" points="110.7,692.7 137.2,718.5 131.8,698.8 "/>
<polygon class="st329" points="83.3,687.7 110.7,692.7 137.2,718.5 "/>
<polygon class="st330" points="83.3,687.7 144,802.8 137.2,718.5 "/>
<polygon class="st331" points="137.2,718.5 162,760.8 144,802.8 "/>
<polygon class="st332" points="162,760.8 181.5,818.8 144,802.8 "/>
<polygon class="st333" points="162,760.8 235.2,742.2 181.5,818.8 "/>
<polygon class="st61" points="181.5,818.8 208.5,834.8 235.2,742.2 "/>
<polygon class="st135" points="144,802.8 141.3,827.2 181.5,818.8 "/>
<polygon class="st282" points="208.5,834.8 235.2,742.2 265.7,894.7 "/>
<polygon class="st284" points="215.7,707 325.3,605.7 359.5,641.2 "/>
<polygon class="st280" points="215.7,707 235.2,742.2 359.5,641.2 "/>
<polygon class="st334" points="359.5,641.2 416.3,682.2 235.2,742.2 "/>
<polygon class="st244" points="235.2,742.2 416.3,682.2 446,708 "/>
<polygon class="st335" points="235.2,742.2 265.7,894.7 446,708 "/>
<polygon class="st200" points="265.7,894.7 302.7,918.7 446,708 "/>
<polygon class="st201" points="446,708 483.2,723.3 302.7,918.7 "/>
<polygon class="st200" points="483.2,723.3 469.7,968.3 302.7,918.7 "/>
<polygon class="st336" points="483.2,723.3 513.5,719 469.7,968.3 "/>
<polygon class="st298" points="513.5,719 686.7,793.3 469.7,968.3 "/>
<polygon class="st337" points="513.5,719 538.3,710.2 686.7,793.3 "/>
<polygon class="st198" points="686.7,793.3 770.3,908.7 469.7,968.3 "/>
<polygon class="st338" points="686.7,793.3 778.3,863 770.3,908.7 "/>
<polygon class="st339" points="778.3,863 836,927.3 770.3,908.7 "/>
<polygon class="st337" points="778.3,863 878.7,813.7 836,927.3 "/>
<polygon class="st340" points="878.7,813.7 906.7,839 836,927.3 "/>
<polygon class="st244" points="538.3,710.2 571.1,679.2 686.7,793.3 "/>
<polygon class="st341" points="571.1,679.2 659,682.3 686.7,793.3 "/>
<polygon class="st338" points="571.1,679.2 620.8,637.7 659,682.3 "/>
<polygon class="st342" points="659,682.3 839,703.3 686.7,793.3 "/>
<polygon class="st343" points="659,682.3 692.3,613 839,703.3 "/>
<polygon class="st250" points="620.8,637.7 692.3,613 659,682.3 "/>
<polygon class="st344" points="620.8,637.7 661.7,584.2 692.3,613 "/>
<polygon class="st248" points="692.3,613 801,607.7 839,703.3 "/>
<polygon class="st284" points="692.3,613 735.7,519 801,607.7 "/>
<polygon class="st345" points="735.5,519.2 806.8,557.4 801,607.7 "/>
<polygon class="st346" points="806.8,557.4 851,597.7 801,607.7 "/>
<polygon class="st314" points="801,607.7 851,597.7 859,646.3 "/>
<polygon class="st13" points="801,607.7 859,646.3 839,703.3 "/>
<polygon class="st240" points="661.7,584.2 689.2,540 692.3,613 "/>
<polygon class="st240" points="689.2,540 735.1,519.9 692.3,613 "/>
<polygon class="st347" points="769,251.7 849.6,195.7 844.1,279.9 "/>
<polygon class="st348" points="849.6,195.7 929.8,271.7 844.1,279.9 "/>
<polygon class="st151" points="849.6,195.7 991.6,206.9 929.8,271.7 "/>
<polygon class="st277" points="829.1,46.9 849.6,195.7 991.6,206.9 "/>
<polygon class="st349" points="802.6,1.7 829.1,46.9 985.3,0.7 "/>
<polygon class="st248" points="829.1,46.9 985.3,0.7 991.6,206.9 "/>
<polygon class="st350" points="844.1,279.9 851.1,382.9 929.8,271.7 "/>
<polygon class="st351" points="929.8,271.7 991.6,206.9 987.8,604.2 "/>
<polygon class="st352" points="852.1,438.9 929.8,271.7 987.8,604.2 "/>
<polygon class="st353" points="832.3,431.2 851.1,382.9 852.1,438.9 "/>
<polygon class="st354" points="851.1,382.9 929.8,271.7 852.1,438.9 "/>
<polygon class="st355" points="806.8,557.4 852.1,438.9 851,597.7 "/>
<polygon class="st238" points="852.1,438.9 987.8,604.2 851,597.7 "/>
<polygon class="st356" points="851,597.7 987.8,604.2 916.3,627.7 "/>
<polygon class="st357" points="851,597.7 859,646.3 878.3,639.2 "/>
<polygon class="st14" points="851,597.7 878.3,639.2 916.3,627.7 "/>
<polygon class="st238" points="916.3,627.7 948.3,671.2 987.8,604.2 "/>
<polygon class="st352" points="878.3,639.2 916.3,627.7 948.3,671.2 "/>
<polygon class="st352" points="948.3,671.2 987.8,604.2 973.8,681.2 "/>
<polygon class="st358" points="948.3,671.2 912.8,703.2 973.8,681.2 "/>
<polygon class="st138" points="878.3,639.2 912.8,703.2 948.3,671.2 "/>
<polygon class="st359" points="859,646.3 878.3,639.2 912.8,703.2 "/>
<polygon class="st360" points="859,646.3 839,703.3 912.8,703.2 "/>
<polygon class="st244" points="839,703.3 878.7,813.7 912.8,703.2 "/>
<polygon class="st196" points="912.8,703.2 878.7,813.7 906.7,839 "/>
<polygon class="st89" points="912.8,703.2 973.8,681.2 906.7,839 "/>
<polygon class="st361" points="686.7,793.3 839,703.3 778.3,863 "/>
<polygon class="st307" points="839,703.3 778.3,863 878.7,813.7 "/>
<polygon class="st362" points="906.7,839 973.8,681.2 979.8,974.7 "/>
<polygon class="st363" points="987.8,604.2 973.8,681.2 979.8,974.7 "/>
<polygon class="st321" points="906.7,839 836,927.3 979.8,974.7 "/>
<polygon class="st340" points="878.7,813.7 836,927.3 906.7,839 "/>
<polygon class="st364" points="469.7,968.3 770.3,908.7 836,927.3 "/>
<polygon class="st19" points="469.7,968.3 836,927.3 979.8,974.7 "/>
<polygon class="st365" points="208.5,834.8 77.3,879.7 265.7,894.7 "/>
<polygon class="st346" points="77.3,879.7 10.8,974.7 265.7,894.7 "/>
<polygon class="st366" points="265.7,894.7 10.8,974.7 302.7,918.7 "/>
<polygon class="st312" points="302.7,918.7 10.8,974.7 469.7,968.3 "/>
<polygon class="st367" points="77.3,879.7 11.3,918.7 10.8,974.7 "/>
<polygon class="st368" points="83.3,687.7 77.3,879.7 144,802.8 "/>
<polygon class="st369" points="141.3,827.2 181.5,818.8 208.5,834.8 "/>
<polygon class="st353" points="141.3,827.2 77.3,879.7 208.5,834.8 "/>
<polygon class="st36" points="144,802.8 77.3,879.7 141.3,827.2 "/>
<polygon class="st370" points="69.7,681.3 83.3,687.7 77.3,879.7 "/>
<polygon class="st22" points="69.7,681.3 11.3,918.7 77.3,879.7 "/>
<polygon class="st371" points="5.7,634.3 69.7,681.3 11.3,918.7 "/>
<polygon class="st372" points="1.3,45 43.3,224.7 4.3,402.3 "/>
<polygon class="st366" points="1.3,45 117.7,76 43.3,224.7 "/>
<polygon class="st80" points="1.3,45 0,1.7 117.7,76 "/>
<polygon class="st373" points="0,1.7 257.7,5 117.7,76 "/>
<polygon class="st374" points="117.7,76 257.7,5 238.3,57.7 "/>
<polygon class="st375" points="257.7,5 317.7,0 238.3,57.7 "/>
<polygon class="st376" points="0,1.7 317.7,0 257.7,5 "/>
<polygon class="st129" points="317.7,0 347,5 398.7,5.3 "/>
<polygon class="st377" points="317.7,0 347,5 376.3,79.4 "/>
<polygon class="st144" points="347,5 398.7,5.3 376.3,79.4 "/>
<polygon class="st378" points="398.7,5.3 452.7,1 376.3,79.4 "/>
<polygon class="st379" points="452.7,1 497.8,20.7 376.3,79.4 "/>
<polygon class="st126" points="452.7,1 573.6,2.7 497.8,20.7 "/>
<polygon class="st380" points="317.7,0 398.7,5.3 452.7,1 "/>
<polygon class="st381" points="573.6,2.7 651.5,3.7 624.6,11.9 "/>
<polygon class="st314" points="633.3,173.3 766.7,162.7 642,215 "/>
<polygon class="st314" points="642,215 766.7,162.7 720.7,239.7 "/>
<polygon class="st382" points="766.7,162.7 769,251.7 720.7,239.7 "/>
<polygon class="st290" points="720.7,239.7 719,285.3 769,251.7 "/>
<polygon class="st355" points="719,285.3 733.1,331.5 769,251.7 "/>
<polygon class="st383" points="720.7,239.7 688.7,285.3 719,285.3 "/>
<polygon class="st384" points="642,215 640.3,246.3 672.7,267.7 "/>
<polygon class="st330" points="642,215 720.7,239.7 672.7,267.7 "/>
<polygon class="st385" points="672.7,267.7 688.7,285.3 720.7,239.7 "/>
<polygon class="st333" points="638.3,257.9 672.7,267.7 663.3,283.5 "/>
<polygon class="st386" points="672.7,267.7 663.3,283.5 684.8,287.8 "/>
<polygon class="st387" points="638.3,257.9 620.5,274.3 639.6,281.5 "/>
<polygon class="st388" points="672.7,267.7 684.8,287.8 688.7,285.3 "/>
<polygon class="st389" points="642,215 591.7,251.7 640.3,246.3 "/>
<polygon class="st206" points="496.1,603.7 483.2,723.3 446,708 "/>
<polygon class="st206" points="274.1,122.4 352.3,199.9 309.5,212 "/>
<polygon class="st390" points="375.1,281.2 380.3,287.9 367.1,287.4 "/>
<polygon class="st180" points="486.5,383.7 546.3,370.5 553,437.3 "/>
<polygon class="st50" points="583.5,382.5 631.1,326.3 718.9,452.7 "/>
</svg>
