<svg xmlns="http://www.w3.org/2000/svg" width="991.58333" height="974.66667" viewBox="0 0 991.58333 974.66667">
  <title>face-test</title>
  <polygon points="591.667 251.667 640.333 246.333 638.333 257.917" fill="#2a2a2c"/>
  <polygon points="640.333 246.333 672.667 267.667 638.333 257.917" fill="#312c32"/>
  <polygon points="638.333 257.958 663.333 283.583 639.583 281.583" fill="#777278"/>
  <polygon points="663.333 283.542 684.833 287.792 675.083 294.542" fill="#545358"/>
  <polygon points="663.333 283.542 675.083 294.542 658.833 300.667" fill="#777578"/>
  <polygon points="684.833 287.792 704.667 314.167 675.083 294.542" fill="#a9a5a6"/>
  <polygon points="675.083 294.542 704.667 314.167 658.833 300.667" fill="#a9a0a3"/>
  <polygon points="658.833 300.667 704.667 314.167 631.083 326.292" fill="#d5cbcc"/>
  <polygon points="633.333 308.792 658.833 300.667 631.083 326.292" fill="#838182"/>
  <polygon points="631.083 326.292 704.667 314.167 733.083 369.542" fill="#bcb6b6"/>
  <polygon points="704.667 314.167 733.083 331.542 733.083 369.542" fill="#847f83"/>
  <polygon points="684.833 287.792 688.667 285.333 704.667 314.167" fill="#817d7e"/>
  <polygon points="688.667 285.333 719 285.333 704.667 314.167" fill="#6e6a6b"/>
  <polygon points="719 285.333 733.083 331.542 704.667 314.167" fill="#464449"/>
  <polygon points="733.083 331.542 773.333 368.292 733.083 369.542" fill="#232325"/>
  <polygon points="631.083 326.292 733.083 369.542 718.875 452.667" fill="#cac0c1"/>
  <polygon points="569.583 362.542 631.083 326.292 583.458 382.542" fill="#7e797f"/>
  <polygon points="583.458 382.542 718.875 452.667 620.833 470.833" fill="#bbb5b5"/>
  <polygon points="583.458 382.542 620.833 470.833 565.5 445.333" fill="#aaa4a4"/>
  <polygon points="620.833 470.833 718.875 452.667 689.167 540" fill="#cdc3c4"/>
  <polygon points="620.833 470.833 689.167 540 602.167 551.833" fill="#d0c6c7"/>
  <polygon points="620.833 470.833 602.167 551.833 558.167 494" fill="#cac0c1"/>
  <polygon points="565.5 445.333 620.833 470.833 559.5 471.667" fill="#969092"/>
  <polygon points="559.5 471.667 620.833 470.833 558.167 494" fill="#a6a0a2"/>
  <polygon points="583.458 382.542 553 437.333 565.5 445.333" fill="#b4aeb2"/>
  <polygon points="553 437.333 565.5 445.333 559.5 471.667" fill="#dcd2d3"/>
  <polygon points="553 437.333 532.5 477.833 559.5 471.667" fill="#d8cccc"/>
  <polygon points="532.5 477.833 559.5 471.667 558.167 494" fill="#cfc5c6"/>
  <polygon points="496.5 456.583 553 437.333 532.5 477.833" fill="#d9cdcf"/>
  <polygon points="496.5 456.583 532.5 477.833 501.417 484.583" fill="#bcb6b6"/>
  <polygon points="496.5 456.583 477.583 484.583 501.417 484.583" fill="#ccc2c3"/>
  <polygon points="501.417 484.583 496.917 492.75 532.5 477.833" fill="#beb8b8"/>
  <polygon points="477.583 484.583 501.417 484.583 496.917 492.75" fill="#b4aeb0"/>
  <polygon points="477.583 484.583 496.917 492.75 470.167 553.583" fill="#c4bebe"/>
  <polygon points="496.917 492.75 503.167 553.583 470.167 553.583" fill="#9c9698"/>
  <polygon points="496.917 492.75 519.083 548.25 503.167 553.583" fill="#c2bcbe"/>
  <polygon points="496.917 492.75 532.5 477.833 519.083 548.25" fill="#cac0c1"/>
  <polygon points="519.083 548.25 529.333 548.917 532.5 477.833" fill="#cbc1c2"/>
  <polygon points="532.5 477.833 558.167 494 529.333 548.917" fill="#ccc2c3"/>
  <polygon points="529.333 548.917 572.667 563.917 558.167 494" fill="#c8bebf"/>
  <polygon points="558.167 494 581.833 560.833 572.667 563.917" fill="#cac0c1"/>
  <polygon points="558.167 494 602.167 551.833 581.833 560.833" fill="#c2bcbe"/>
  <polygon points="529.333 548.917 572.667 563.917 562.25 569.667" fill="#544f55"/>
  <polygon points="529.333 548.917 562.25 569.667 532.917 561.333" fill="#787379"/>
  <polygon points="519.083 548.25 529.333 548.917 532.917 561.333" fill="#8f8b8c"/>
  <polygon points="519.083 548.25 507.417 575.417 532.917 561.333" fill="#6d686e"/>
  <polygon points="507.417 575.417 532.917 561.333 539.25 580.583" fill="#7a7579"/>
  <polygon points="532.917 561.333 562.25 569.667 539.25 580.583" fill="#aea8aa"/>
  <polygon points="562.25 569.667 557.167 581.917 539.25 580.583" fill="#bbb5b7"/>
  <polygon points="562.25 569.667 572.667 563.917 557.167 581.917" fill="#938d8f"/>
  <polygon points="572.667 563.917 581.833 560.833 557.167 581.917" fill="#756f71"/>
  <polygon points="557.167 581.917 581.833 560.833 620.833 637.667" fill="#bcb2b3"/>
  <polygon points="539.25 580.583 557.167 581.917 542.5 592.417" fill="#8c8688"/>
  <polygon points="542.5 592.417 557.167 581.917 620.833 637.667" fill="#bcb6b6"/>
  <polygon points="542.5 592.417 571.083 679.167 620.833 637.667" fill="#c3bdbd"/>
  <polygon points="539.25 580.583 525.792 602.542 542.5 592.417" fill="#a09599"/>
  <polygon points="507.417 575.417 539.25 580.583 525.792 602.542" fill="#989294"/>
  <polygon points="507.417 575.417 496.083 603.667 525.792 602.542" fill="#b0aaac"/>
  <polygon points="503.167 553.583 507.417 575.417 519.083 548.25" fill="#7d787c"/>
  <polygon points="486.667 560.833 503.167 553.583 507.417 575.417" fill="#787178"/>
  <polygon points="486.667 560.833 490.208 585.292 507.417 575.417" fill="#6f6a70"/>
  <polygon points="470.167 553.583 503.167 553.583 486.667 560.833" fill="#c4bbbe"/>
  <polygon points="470.167 553.583 466.333 561.833 486.667 560.833" fill="#a79ea3"/>
  <polygon points="446.458 556.417 470.167 553.583 466.333 561.833" fill="#d8cecd"/>
  <polygon points="639.583 281.542 658.833 300.667 663.333 283.542" fill="#c3c1c4"/>
  <polygon points="639.583 281.542 638.333 295.583 658.833 300.667" fill="#c5bfc1"/>
  <polygon points="638.333 295.583 633.333 308.792 658.833 300.667" fill="#464044"/>
  <polygon points="605.583 310.917 633.333 308.792 631.083 326.292" fill="#6f6d70"/>
  <polygon points="605.583 310.917 618.25 298.417 633.333 308.792" fill="#353338"/>
  <polygon points="618.25 298.417 638.333 295.583 633.333 308.792" fill="#5c5a5d"/>
  <polygon points="626.083 282.833 639.583 281.542 638.333 295.583" fill="#444245"/>
  <polygon points="619.083 287.792 626.083 282.833 638.333 295.583" fill="#4d4b4e"/>
  <polygon points="619.083 287.792 618.25 298.417 638.333 295.583" fill="#444446"/>
  <polygon points="620.458 274.292 626.083 282.833 639.583 281.542" fill="#2a282b"/>
  <polygon points="620.458 274.292 619.083 287.792 626.083 282.833" fill="#2f2d30"/>
  <polygon points="613.083 282.833 619.083 287.792 620.458 274.292" fill="#1b191c"/>
  <polygon points="612.75 272 620.458 274.292 613.083 282.833" fill="#252527"/>
  <polygon points="612.75 272 597.208 274.292 613.083 282.833" fill="#5d5d5f"/>
  <polygon points="591.667 251.667 612.75 272 638.333 257.917" fill="#232325"/>
  <polygon points="612.75 272 620.458 274.292 638.333 257.917" fill="#2a272e"/>
  <polygon points="591.667 251.667 597.208 274.292 612.75 272" fill="#28272d"/>
  <polygon points="591.667 251.667 565.333 266.833 597.208 274.292" fill="#2d2a33"/>
  <polygon points="565.333 266.833 573.917 295.375 597.208 274.292" fill="#353336"/>
  <polygon points="597.208 286.208 597.208 274.292 573.917 295.375" fill="#818085"/>
  <polygon points="597.208 274.292 613.083 282.833 597.208 286.208" fill="#29282d"/>
  <polygon points="597.208 286.208 600.375 295.792 613.083 282.833" fill="#4e4d52"/>
  <polygon points="600.375 295.792 618.25 298.417 613.083 282.833" fill="#3a383b"/>
  <polygon points="613.083 282.833 619.083 287.792 618.25 298.417" fill="#424043"/>
  <polygon points="600.375 295.792 605.583 310.917 618.25 298.417" fill="#4b494e"/>
  <polygon points="600.375 295.792 583.542 307.875 605.583 310.917" fill="#4b494e"/>
  <polygon points="583.542 307.875 569.583 362.542 605.583 310.917" fill="#555358"/>
  <polygon points="605.583 310.917 569.583 362.542 631.083 326.292" fill="#5c5a5f"/>
  <polygon points="564.083 307.75 583.542 307.875 569.583 362.542" fill="#4b494e"/>
  <polygon points="528 317.75 564.083 307.75 569.583 362.542" fill="#555259"/>
  <polygon points="573.917 295.375 564.083 307.75 583.542 307.875" fill="#3a383b"/>
  <polygon points="573.917 295.375 600.375 295.792 583.542 307.875" fill="#39373a"/>
  <polygon points="573.917 295.375 597.208 286.208 600.375 295.792" fill="#79787d"/>
  <polygon points="553.917 303.583 573.917 295.375 564.083 307.75" fill="#2c2c2e"/>
  <polygon points="539.917 287.583 573.917 295.375 553.917 303.583" fill="#454346"/>
  <polygon points="539.917 287.583 565.333 266.833 573.917 295.375" fill="#2b282f"/>
  <polygon points="528.5 281.583 539.917 287.583 565.333 266.833" fill="#514f54"/>
  <polygon points="528.5 281.583 528 317.75 539.917 287.583" fill="#767175"/>
  <polygon points="539.917 287.583 528 317.75 553.917 303.583" fill="#48464b"/>
  <polygon points="553.917 303.583 564.083 307.75 528 317.75" fill="#49474c"/>
  <polygon points="515.833 248.667 528.5 281.583 565.333 266.833" fill="#b2acae"/>
  <polygon points="515.833 248.667 478.5 299.75 528.5 281.583" fill="#b6afb6"/>
  <polygon points="515.833 248.667 573.75 238.833 565.333 266.833" fill="#726d73"/>
  <polygon points="573.75 238.833 591.667 251.667 565.333 266.833" fill="#656368"/>
  <polygon points="573.75 238.833 642 215 591.667 251.667" fill="#898488"/>
  <polygon points="633.333 173.333 573.75 238.833 642 215" fill="#666167"/>
  <polygon points="527.208 173.417 633.333 173.333 573.75 238.833" fill="#302f34"/>
  <polygon points="527.208 173.417 515.833 248.667 573.75 238.833" fill="#2a2b2d"/>
  <polygon points="527.208 173.417 482.458 221.667 515.833 248.667" fill="#414141"/>
  <polygon points="463.583 201.542 482.458 221.667 527.208 173.417" fill="#29282e"/>
  <polygon points="421.708 170.917 463.583 201.542 527.208 173.417" fill="#626264"/>
  <polygon points="421.708 170.917 425.208 219.417 463.583 201.542" fill="#b4aeb0"/>
  <polygon points="425.208 219.417 463.583 201.542 482.458 221.667" fill="#aea7ae"/>
  <polygon points="425.208 219.417 450.333 266.292 482.458 221.667" fill="#c6bcbd"/>
  <polygon points="482.458 221.667 450.333 266.292 515.833 248.667" fill="#b4acac"/>
  <polygon points="450.333 266.292 478.5 299.75 515.833 248.667" fill="#d0c6c7"/>
  <polygon points="450.333 266.292 448.333 301.542 478.5 299.75" fill="#ebdfdf"/>
  <polygon points="448.333 301.542 467.958 327.792 478.5 299.75" fill="#f3e5e5"/>
  <polygon points="448.333 301.542 445.583 324.792 467.958 327.792" fill="#e6dada"/>
  <polygon points="467.958 327.792 486.458 383.667 528 317.75" fill="#d9cdcf"/>
  <polygon points="478.5 299.75 528 317.75 467.958 327.792" fill="#d7cbcb"/>
  <polygon points="478.5 299.75 528.5 281.583 528 317.75" fill="#d5cbcc"/>
  <polygon points="440.083 306.917 448.333 301.542 445.583 324.792" fill="#dbcfcf"/>
  <polygon points="438.208 283.542 448.333 301.542 440.083 306.917" fill="#a2979b"/>
  <polygon points="438.208 283.542 450.333 266.292 448.333 301.542" fill="#b8b0ae"/>
  <polygon points="431.208 260.917 438.208 283.542 450.333 266.292" fill="#bdb4b7"/>
  <polygon points="425.208 219.417 431.208 260.917 450.333 266.292" fill="#b0aaaa"/>
  <polygon points="425.208 219.417 419.083 249.667 431.208 260.917" fill="#8e8a8b"/>
  <polygon points="419.083 249.667 406.458 255.792 431.208 260.917" fill="#868185"/>
  <polygon points="406.458 255.792 428.958 288.042 431.208 260.917" fill="#4d4b50"/>
  <polygon points="406.458 255.792 404.458 293.042 428.958 288.042" fill="#535156"/>
  <polygon points="396.333 236.917 425.208 219.417 419.083 249.667" fill="#878288"/>
  <polygon points="396.333 236.917 406.458 255.792 419.083 249.667" fill="#858388"/>
  <polygon points="396.333 236.917 384.708 250.542 406.458 255.792" fill="#5f5e63"/>
  <polygon points="384.458 228.417 384.708 250.542 396.333 236.917" fill="#8f8a8e"/>
  <polygon points="384.458 228.417 425.208 219.417 396.333 236.917" fill="#676165"/>
  <polygon points="384.458 228.417 368.333 250.042 384.708 250.542" fill="#625f66"/>
  <polygon points="352.333 199.917 368.333 250.042 384.458 228.417" fill="#a7a1a3"/>
  <polygon points="352.333 199.917 421.708 170.917 384.458 228.417" fill="#d3c8c6"/>
  <polygon points="421.708 170.917 384.458 228.417 425.208 219.417" fill="#c8c0c0"/>
  <polygon points="352.333 199.917 325.083 252.417 368.333 250.042" fill="#969293"/>
  <polygon points="309.458 212.042 352.333 199.917 325.083 252.417" fill="#d2c7cb"/>
  <polygon points="309.458 212.042 302.958 270.667 325.083 252.417" fill="#a49e9e"/>
  <polygon points="368.333 250.042 370.333 268.792 384.708 250.542" fill="#2e2d32"/>
  <polygon points="370.333 268.792 384.708 250.542 382.333 273.917" fill="#484349"/>
  <polygon points="368.333 250.042 364.833 270.042 370.333 268.792" fill="#35393c"/>
  <polygon points="368.333 250.042 357.458 269.417 364.833 270.042" fill="#333136"/>
  <polygon points="364.833 270.042 359.458 281.792 375.083 281.167" fill="#16131a"/>
  <polygon points="364.833 270.042 370.333 268.792 375.083 281.167" fill="#28272c"/>
  <polygon points="370.333 268.792 375.083 281.167 382.333 273.917" fill="#58565b"/>
  <polygon points="382.333 273.917 375.083 281.167 388.708 279.542" fill="#575256"/>
  <polygon points="382.333 273.917 391.833 270.167 388.708 279.542" fill="#312f34"/>
  <polygon points="384.708 250.542 391.833 270.167 382.333 273.917" fill="#3b393e"/>
  <polygon points="384.708 250.542 391.833 270.167 406.458 255.792" fill="#3b3a3f"/>
  <polygon points="391.833 270.167 404.458 293.042 406.458 255.792" fill="#343235"/>
  <polygon points="388.708 279.542 391.833 270.167 404.458 293.042" fill="#888387"/>
  <polygon points="359.458 281.792 367.083 287.417 375.083 281.167" fill="#545158"/>
  <polygon points="359.458 281.792 359.458 294.542 367.083 287.417" fill="#6c6970"/>
  <polygon points="367.083 287.417 359.458 294.542 370.083 296.292" fill="#47444b"/>
  <polygon points="367.083 287.417 380.333 287.917 370.083 296.292" fill="#838087"/>
  <polygon points="375.083 281.167 388.708 279.542 380.333 287.917" fill="#908b8f"/>
  <polygon points="388.708 279.542 388.583 288.292 380.333 287.917" fill="#353034"/>
  <polygon points="380.333 287.917 384.708 294.542 370.083 296.292" fill="#2e2b32"/>
  <polygon points="388.708 279.542 388.583 288.292 404.458 293.042" fill="#878286"/>
  <polygon points="404.458 293.042 428.958 288.042 421.958 304.917" fill="#686369"/>
  <polygon points="404.458 293.042 406.333 315.292 421.958 304.917" fill="#68666b"/>
  <polygon points="428.958 288.042 421.958 304.917 440.083 306.917" fill="#8b898a"/>
  <polygon points="428.958 288.042 438.208 283.542 431.208 260.917" fill="#69646a"/>
  <polygon points="428.958 288.042 438.208 283.542 440.083 306.917" fill="#666165"/>
  <polygon points="266.583 220.417 273.208 272.792 302.958 270.667" fill="#9e979e"/>
  <polygon points="273.208 272.792 275.333 287.542 302.958 270.667" fill="#928c8e"/>
  <polygon points="275.333 287.542 302.958 270.667 314.458 299.542" fill="#7d787e"/>
  <polygon points="302.958 270.667 322.583 282.292 314.458 299.542" fill="#575258"/>
  <polygon points="322.583 282.292 336.208 290.417 314.458 299.542" fill="#a7a1a3"/>
  <polygon points="314.458 299.542 321.958 314.167 336.208 290.417" fill="#d7cdcc"/>
  <polygon points="302.958 270.667 317.833 267.917 322.583 282.292" fill="#4d4b50"/>
  <polygon points="302.958 270.667 325.083 252.417 317.833 267.917" fill="#363439"/>
  <polygon points="325.083 252.417 340.458 269.417 317.833 267.917" fill="#3c3b40"/>
  <polygon points="317.833 267.917 330.083 277.667 340.458 269.417" fill="#5f5e63"/>
  <polygon points="317.833 267.917 322.583 282.292 330.083 277.667" fill="#39383d"/>
  <polygon points="322.583 282.292 330.083 277.667 336.208 290.417" fill="#afa9ab"/>
  <polygon points="330.083 277.667 340.458 269.417 349.083 279.167" fill="#ccc1c5"/>
  <polygon points="330.083 277.667 349.083 279.167 336.208 290.417" fill="#daced2"/>
  <polygon points="336.208 290.417 349.083 279.167 351.458 287.292" fill="#776d75"/>
  <polygon points="325.083 252.417 346.708 266.417 340.458 269.417" fill="#2e2d32"/>
  <polygon points="340.458 269.417 346.708 266.417 349.083 279.167" fill="#5a5154"/>
  <polygon points="346.708 266.417 357.458 269.417 349.083 279.167" fill="#929095"/>
  <polygon points="349.083 279.167 357.458 269.417 359.458 281.792" fill="#6b696e"/>
  <polygon points="349.083 279.167 359.458 281.792 351.458 287.292" fill="#615e65"/>
  <polygon points="357.458 269.417 364.833 270.042 359.458 281.792" fill="#2a282d"/>
  <polygon points="325.083 252.417 368.333 250.042 346.708 266.417" fill="#252328"/>
  <polygon points="368.333 250.042 346.708 266.417 357.458 269.417" fill="#222025"/>
  <polygon points="336.208 290.417 343.208 294.542 351.458 287.292" fill="#d8cdd1"/>
  <polygon points="336.208 290.417 343.208 294.542 321.958 314.167" fill="#a8a2a4"/>
  <polygon points="321.958 314.167 352.083 300.542 343.208 294.542" fill="#827c7e"/>
  <polygon points="321.958 314.167 345.958 326.292 352.083 300.542" fill="#cec4c5"/>
  <polygon points="343.208 294.542 351.458 287.292 352.083 300.542" fill="#c1bcc0"/>
  <polygon points="351.458 287.292 359.458 294.542 352.083 300.542" fill="#2e292d"/>
  <polygon points="351.458 287.292 359.458 281.792 359.458 294.542" fill="#5a575e"/>
  <polygon points="352.083 300.542 359.458 294.542 368.333 304.417" fill="#989397"/>
  <polygon points="380.333 287.917 384.708 294.542 388.583 288.292" fill="#696468"/>
  <polygon points="370.083 296.292 368.333 304.417 384.708 294.542" fill="#828085"/>
  <polygon points="359.458 294.542 370.083 296.292 368.333 304.417" fill="#615f62"/>
  <polygon points="352.083 300.542 368.333 304.417 345.958 326.292" fill="#a6a0a2"/>
  <polygon points="345.958 326.292 368.333 304.417 381.958 321.417" fill="#9b9798"/>
  <polygon points="345.958 326.292 381.958 321.417 402.083 343.542" fill="#868187"/>
  <polygon points="345.958 326.292 323.458 355.417 402.083 343.542" fill="#ccc0c2"/>
  <polygon points="321.958 314.167 323.458 355.417 345.958 326.292" fill="#e3d7d7"/>
  <polygon points="270.583 323.917 321.958 314.167 323.458 355.417" fill="#e4d8d8"/>
  <polygon points="255.458 340.167 270.583 323.917 323.458 355.417" fill="#d5d0cd"/>
  <polygon points="255.458 340.167 248.208 379.542 323.458 355.417" fill="#eadede"/>
  <polygon points="323.458 355.417 402.083 343.542 421.958 359.542" fill="#b5afb1"/>
  <polygon points="368.333 304.417 384.708 294.542 394.958 304.542" fill="#69646a"/>
  <polygon points="368.333 304.417 394.958 304.542 381.958 321.417" fill="#726d73"/>
  <polygon points="394.958 304.542 406.333 315.292 381.958 321.417" fill="#6e696f"/>
  <polygon points="381.958 321.417 406.333 315.292 402.083 343.542" fill="#757074"/>
  <polygon points="406.333 315.292 445.583 324.792 402.083 343.542" fill="#999395"/>
  <polygon points="394.958 304.542 404.458 293.042 406.333 315.292" fill="#727075"/>
  <polygon points="388.583 288.292 394.958 304.542 404.458 293.042" fill="#645f65"/>
  <polygon points="388.583 288.292 384.708 294.542 394.958 304.542" fill="#676268"/>
  <polygon points="421.958 304.917 406.333 315.292 445.583 324.792" fill="#8a8687"/>
  <polygon points="421.958 304.917 440.083 306.917 445.583 324.792" fill="#c3bbbb"/>
  <polygon points="402.083 343.542 421.958 359.542 445.583 324.792" fill="#d2cac8"/>
  <polygon points="445.583 324.792 421.958 359.542 439.708 366.792" fill="#ece0e0"/>
  <polygon points="445.583 324.792 467.958 327.792 439.708 366.792" fill="#eee2e2"/>
  <polygon points="467.958 327.792 439.708 366.792 486.458 383.667" fill="#efe3e3"/>
  <polygon points="248.208 379.542 254.833 428.792 323.458 355.417" fill="#e6dada"/>
  <polygon points="254.833 428.792 262.583 472.667 323.458 355.417" fill="#e1d5d7"/>
  <polygon points="323.458 355.417 421.958 359.542 423.833 464.042" fill="#eadede"/>
  <polygon points="423.833 464.042 452.583 440.292 433.333 476.417" fill="#efe1e1"/>
  <polygon points="433.333 476.417 460.583 478.792 452.583 440.292" fill="#ebdfdf"/>
  <polygon points="452.583 440.292 496.5 456.583 460.583 478.792" fill="#e8dcdc"/>
  <polygon points="460.583 478.792 496.5 456.583 477.583 484.583" fill="#d9cfd0"/>
  <polygon points="460.583 478.792 470.167 553.583 477.583 484.583" fill="#e7dbdb"/>
  <polygon points="460.583 478.792 446.458 556.417 470.167 553.583" fill="#e8dcdc"/>
  <polygon points="433.333 476.417 460.583 478.792 446.458 556.417" fill="#ede1e1"/>
  <polygon points="446.458 556.417 464.958 571.417 466.333 561.833" fill="#989292"/>
  <polygon points="446.458 556.417 443.083 572.417 464.958 571.417" fill="#958e95"/>
  <polygon points="430.708 560.917 446.458 556.417 443.083 572.417" fill="#b8afb2"/>
  <polygon points="430.708 560.917 424.333 576.792 443.083 572.417" fill="#cec6c6"/>
  <polygon points="414.083 558.792 430.708 560.917 424.333 576.792" fill="#847a7b"/>
  <polygon points="393.958 553.792 414.083 558.792 424.333 576.792" fill="#6e676e"/>
  <polygon points="424.333 576.792 443.083 572.417 446.583 590.417" fill="#ddd2d0"/>
  <polygon points="393.958 553.792 359.458 641.167 424.333 576.792" fill="#e5d9d9"/>
  <polygon points="424.333 576.792 359.458 641.167 446.583 590.417" fill="#e3d7d7"/>
  <polygon points="446.583 590.417 416.333 682.167 359.458 641.167" fill="#ddd1d3"/>
  <polygon points="446.583 590.417 465.333 598.667 416.333 682.167" fill="#d3c7c9"/>
  <polygon points="446.583 590.417 464.958 571.417 465.333 598.667" fill="#ded2d4"/>
  <polygon points="443.083 572.417 464.958 571.417 446.583 590.417" fill="#d9cfce"/>
  <polygon points="464.958 571.417 490.208 585.292 465.333 598.667" fill="#9f9596"/>
  <polygon points="465.333 598.667 490.208 585.292 496.083 603.667" fill="#b9b3b5"/>
  <polygon points="490.208 585.292 507.417 575.417 496.083 603.667" fill="#726e6f"/>
  <polygon points="486.667 560.833 464.958 571.417 490.208 585.292" fill="#7e797d"/>
  <polygon points="466.333 561.833 464.958 571.417 486.667 560.833" fill="#7e787c"/>
  <polygon points="528 317.75 546.333 370.542 486.458 383.667" fill="#c3b9ba"/>
  <polygon points="528 317.75 569.583 362.542 546.333 370.542" fill="#bbb5b7"/>
  <polygon points="569.583 362.542 546.333 370.542 583.458 382.542" fill="#bcb6ba"/>
  <polygon points="546.333 370.542 553 437.333 583.458 382.542" fill="#cfc3c5"/>
  <polygon points="486.458 383.667 496.5 456.583 553 437.333" fill="#ded2d2"/>
  <polygon points="486.458 383.667 452.583 440.292 496.5 456.583" fill="#ece0e0"/>
  <polygon points="444.458 388.542 423.833 464.042 452.583 440.292" fill="#f3e5e5"/>
  <polygon points="444.458 388.542 486.458 383.667 452.583 440.292" fill="#efe3e3"/>
  <polygon points="439.708 366.792 444.458 388.542 486.458 383.667" fill="#f2e4e4"/>
  <polygon points="421.958 359.542 444.458 388.542 439.708 366.792" fill="#f4e6e6"/>
  <polygon points="421.958 359.542 444.458 388.542 423.833 464.042" fill="#f4e6e5"/>
  <polygon points="187.833 210 266.583 220.417 273.208 272.792" fill="#272729"/>
  <polygon points="187.833 210 187.333 316.667 273.208 272.792" fill="#535154"/>
  <polygon points="187.333 316.667 273.208 272.792 246.833 323" fill="#212224"/>
  <polygon points="187.333 316.667 175.5 359.333 246.833 323" fill="#454044"/>
  <polygon points="273.208 272.792 246.833 323 275.333 287.542" fill="#404042"/>
  <polygon points="275.333 287.542 270.583 323.917 314.458 299.542" fill="#a7a1a3"/>
  <polygon points="314.458 299.542 321.958 314.167 270.583 323.917" fill="#c0b6b7"/>
  <polygon points="275.333 287.542 246.833 323 270.583 323.917" fill="#3d3b40"/>
  <polygon points="246.833 323 255.458 340.167 270.583 323.917" fill="#38363b"/>
  <polygon points="175.5 359.333 246.833 323 255.458 340.167" fill="#222325"/>
  <polygon points="175.5 359.333 255.458 340.167 248.208 379.542" fill="#242527"/>
  <polygon points="175.5 359.333 215.5 405.5 248.208 379.542" fill="#29292b"/>
  <polygon points="175.5 359.333 198.167 421.5 215.5 405.5" fill="#504d54"/>
  <polygon points="215.5 405.5 248.208 379.542 254.833 428.792" fill="#252527"/>
  <polygon points="215.5 405.5 198.167 421.5 254.833 428.792" fill="#202123"/>
  <polygon points="198.167 421.5 194 482.5 254.833 428.792" fill="#2c2b30"/>
  <polygon points="254.833 428.792 262.583 472.667 194 482.5" fill="#2c2c2e"/>
  <polygon points="194 482.5 216.333 515.167 262.583 472.667" fill="#212025"/>
  <polygon points="262.583 472.667 285.833 536.667 216.333 515.167" fill="#29272a"/>
  <polygon points="323.458 355.417 262.583 472.667 423.833 464.042" fill="#e8dcdc"/>
  <polygon points="262.583 472.667 285.833 536.667 423.833 464.042" fill="#e9dddd"/>
  <polygon points="285.833 536.667 393.958 553.792 423.833 464.042" fill="#e1d5d5"/>
  <polygon points="285.833 536.667 325.333 605.667 393.958 553.792" fill="#d8d0ce"/>
  <polygon points="285.833 536.667 256 560.167 325.333 605.667" fill="#232426"/>
  <polygon points="216.333 515.167 256 560.167 285.833 536.667" fill="#232426"/>
  <polygon points="216.333 515.167 192.333 580.333 256 560.167" fill="#212224"/>
  <polygon points="192.333 580.333 219.667 614.667 256 560.167" fill="#252628"/>
  <polygon points="256 560.167 219.667 614.667 325.333 605.667" fill="#2a2b2d"/>
  <polygon points="325.333 605.667 359.458 641.167 393.958 553.792" fill="#c1bbbb"/>
  <polygon points="465.333 598.667 416.333 682.167 446 708" fill="#e6dada"/>
  <polygon points="465.333 598.667 496.083 603.667 446 708" fill="#c4bcbc"/>
  <polygon points="496.083 603.667 513.5 719 483.167 723.333" fill="#b4abae"/>
  <polygon points="496.083 603.667 538.333 710.167 513.5 719" fill="#b3adaf"/>
  <polygon points="496.083 603.667 525.792 602.542 538.333 710.167" fill="#b4b0b1"/>
  <polygon points="525.792 602.542 571.083 679.167 538.333 710.167" fill="#c6bcbd"/>
  <polygon points="525.792 602.542 542.5 592.417 571.083 679.167" fill="#b2acac"/>
  <polygon points="423.833 464.042 433.333 476.417 393.958 553.792" fill="#eadede"/>
  <polygon points="433.333 476.417 430.708 560.917 446.458 556.417" fill="#eadede"/>
  <polygon points="414.083 558.792 430.708 560.917 433.333 476.417" fill="#e9dddd"/>
  <polygon points="393.958 553.792 414.083 558.792 433.333 476.417" fill="#e9dddd"/>
  <polygon points="581.833 560.833 602.167 551.833 620.833 637.667" fill="#b5afaf"/>
  <polygon points="602.167 551.833 661.708 584.167 620.833 637.667" fill="#bbb5b5"/>
  <polygon points="602.167 551.833 689.167 540 661.708 584.167" fill="#c6bcbd"/>
  <polygon points="266.583 220.417 274.083 122.417 309.458 212.042" fill="#ded2d2"/>
  <polygon points="352.333 199.917 376.333 79.417 421.708 170.917" fill="#e4d8d8"/>
  <polygon points="376.333 79.417 497.833 20.667 421.708 170.917" fill="#e6e5e3"/>
  <polygon points="497.833 20.667 421.708 170.917 527.208 173.417" fill="#969499"/>
  <polygon points="497.833 20.667 573.583 2.667 527.208 173.417" fill="#423d41"/>
  <polygon points="573.583 2.667 633.333 173.333 527.208 173.417" fill="#5e5c61"/>
  <polygon points="573.583 2.667 624.583 11.917 633.333 173.333" fill="#605e63"/>
  <polygon points="624.583 11.917 651.5 3.667 633.333 173.333" fill="#1a1e1f"/>
  <polygon points="651.5 3.667 766.667 162.667 633.333 173.333" fill="#363638"/>
  <polygon points="766.667 162.667 849.583 195.667 769 251.667" fill="#413f44"/>
  <polygon points="766.667 162.667 794.833 108.917 849.583 195.667" fill="#323035"/>
  <polygon points="651.5 3.667 794.833 108.917 766.667 162.667" fill="#5c5c5e"/>
  <polygon points="794.833 108.917 829.083 46.917 849.583 195.667" fill="#3e3b42"/>
  <polygon points="829.083 46.917 991.583 206.917 849.583 195.667" fill="#313133"/>
  <polygon points="802.583 1.667 794.833 108.917 829.083 46.917" fill="#322f38"/>
  <polygon points="651.5 3.667 802.583 1.667 794.833 108.917" fill="#525055"/>
  <polygon points="769 251.667 844.083 279.917 733.083 331.542" fill="#232426"/>
  <polygon points="733.083 331.542 773.333 368.292 844.083 279.917" fill="#201f25"/>
  <polygon points="773.333 368.292 844.083 279.917 851.083 382.917" fill="#2a2a2a"/>
  <polygon points="772.833 368.292 850.583 382.917 831.833 431.167" fill="#58565b"/>
  <polygon points="773.333 368.292 718.875 452.667 832.333 431.167" fill="#1d1e20"/>
  <polygon points="718.875 452.667 689.167 540 735.083 519.917" fill="#241f23"/>
  <polygon points="718.875 452.667 735.083 519.917 832.333 431.167" fill="#1f2022"/>
  <polygon points="735.083 519.917 832.333 431.167 806.833 557.417" fill="#2d2b2e"/>
  <polygon points="832.333 431.167 852.083 438.917 806.833 557.417" fill="#5e5c5f"/>
  <polygon points="733.083 369.542 718.875 452.667 773.333 368.292" fill="#222224"/>
  <polygon points="266.583 220.417 309.458 212.042 302.958 270.667" fill="#dbd1d2"/>
  <polygon points="274.083 122.417 376.333 79.417 352.333 199.917" fill="#f0e2e2"/>
  <polygon points="274.083 122.417 317.667 0 376.333 79.417" fill="#b5afb1"/>
  <polygon points="238.333 57.667 317.667 0 274.083 122.417" fill="#1f1f21"/>
  <polygon points="238.333 57.667 242 105 274.083 122.417" fill="#2f2a30"/>
  <polygon points="242 105 211.333 146.667 274.083 122.417" fill="#34353a"/>
  <polygon points="117.667 76 238.333 57.667 242 105" fill="#706e71"/>
  <polygon points="117.667 76 242 105 211.333 146.667" fill="#868187"/>
  <polygon points="117.667 76 211.333 146.667 200.667 184.333" fill="#3b3a3f"/>
  <polygon points="117.667 76 200.667 184.333 187.833 210" fill="#413c42"/>
  <polygon points="200.667 184.333 211.333 146.667 266.583 220.417" fill="#878384"/>
  <polygon points="187.833 210 200.667 184.333 266.583 220.417" fill="#888485"/>
  <polygon points="211.333 146.667 274.083 122.417 266.583 220.417" fill="#1d1c21"/>
  <polygon points="117.667 76 43.333 224.667 187.833 210" fill="#5e595f"/>
  <polygon points="43.333 224.667 187.833 210 187.333 316.667" fill="#69646a"/>
  <polygon points="43.333 224.667 187.333 316.667 175.5 359.333" fill="#6b666c"/>
  <polygon points="43.333 224.667 4.333 402.333 175.5 359.333" fill="#827d83"/>
  <polygon points="4.333 402.333 175.5 359.333 145 425.333" fill="#787379"/>
  <polygon points="4.333 402.333 145 425.333 88.333 526.333" fill="#5e595f"/>
  <polygon points="145 425.333 156.333 458.667 88.333 526.333" fill="#746f75"/>
  <polygon points="145 425.333 156.333 458.667 198.167 421.5" fill="#635e64"/>
  <polygon points="175.5 359.333 145 425.333 198.167 421.5" fill="#807b82"/>
  <polygon points="156.333 458.667 198.167 421.5 194 482.5" fill="#77767c"/>
  <polygon points="156.333 458.667 194 482.5 178 556.333" fill="#706e73"/>
  <polygon points="88.333 526.333 156.333 458.667 178 556.333" fill="#878183"/>
  <polygon points="178 556.333 216.333 515.167 194 482.5" fill="#303032"/>
  <polygon points="178 556.333 192.333 580.333 216.333 515.167" fill="#272729"/>
  <polygon points="88.333 526.333 136.667 569.667 178 556.333" fill="#69646a"/>
  <polygon points="136.667 569.667 178 556.333 192.333 580.333" fill="#767177"/>
  <polygon points="136.667 569.667 128 590.333 192.333 580.333" fill="#7a757b"/>
  <polygon points="88.333 526.333 128 590.333 136.667 569.667" fill="#6f6a6e"/>
  <polygon points="88.333 526.333 5.667 634.333 128 590.333" fill="#5d585e"/>
  <polygon points="4.333 402.333 88.333 526.333 5.667 634.333" fill="#6c676d"/>
  <polygon points="128 590.333 136.667 663.333 192.333 580.333" fill="#3e3c41"/>
  <polygon points="192.333 580.333 136.667 663.333 219.667 614.667" fill="#757074"/>
  <polygon points="219.667 614.667 136.667 663.333 183.333 683" fill="#2e2b32"/>
  <polygon points="219.667 614.667 183.333 683 215.667 707" fill="#242426"/>
  <polygon points="219.667 614.667 215.667 707 325.333 605.667" fill="#1d1e20"/>
  <polygon points="5.667 634.333 128 590.333 79 672.333" fill="#cabec0"/>
  <polygon points="5.667 634.333 79 672.333 69.667 681.333" fill="#e6dada"/>
  <polygon points="128 590.333 79 672.333 136.667 663.333" fill="#cec4c5"/>
  <polygon points="79 672.333 97.167 681.667 136.667 663.333" fill="#d5c9cb"/>
  <polygon points="79 672.333 69.667 681.333 83.333 687.667" fill="#9c9492"/>
  <polygon points="79 672.333 83.333 687.667 97.167 681.667" fill="#7f7a7e"/>
  <polygon points="97.167 681.667 110.667 692.667 136.667 663.333" fill="#b7b3b4"/>
  <polygon points="83.333 687.667 97.167 681.667 110.667 692.667" fill="#787377"/>
  <polygon points="110.667 692.667 136.667 663.333 127.333 694" fill="#9f999b"/>
  <polygon points="136.667 663.333 131.833 698.833 127.333 694" fill="#928d91"/>
  <polygon points="136.667 663.333 183.333 683 131.833 698.833" fill="#77757a"/>
  <polygon points="131.833 698.833 137.167 718.5 183.333 683" fill="#67666b"/>
  <polygon points="183.333 683 137.167 718.5 162 760.833" fill="#7f7d82"/>
  <polygon points="183.333 683 215.667 707 162 760.833" fill="#201d24"/>
  <polygon points="215.667 707 235.167 742.167 162 760.833" fill="#27262c"/>
  <polygon points="110.667 692.667 127.333 694 131.833 698.833" fill="#545358"/>
  <polygon points="110.667 692.667 137.167 718.5 131.833 698.833" fill="#a3a1a2"/>
  <polygon points="83.333 687.667 110.667 692.667 137.167 718.5" fill="#aca8a9"/>
  <polygon points="83.333 687.667 144 802.833 137.167 718.5" fill="#9e989a"/>
  <polygon points="137.167 718.5 162 760.833 144 802.833" fill="#46454a"/>
  <polygon points="162 760.833 181.5 818.833 144 802.833" fill="#444247"/>
  <polygon points="162 760.833 235.167 742.167 181.5 818.833" fill="#242529"/>
  <polygon points="181.5 818.833 208.5 834.833 235.167 742.167" fill="#353338"/>
  <polygon points="144 802.833 141.333 827.167 181.5 818.833" fill="#333136"/>
  <polygon points="208.5 834.833 235.167 742.167 265.667 894.667" fill="#1d1e20"/>
  <polygon points="215.667 707 325.333 605.667 359.458 641.167" fill="#1f2022"/>
  <polygon points="215.667 707 235.167 742.167 359.458 641.167" fill="#201f25"/>
  <polygon points="359.458 641.167 416.333 682.167 235.167 742.167" fill="#2b2c30"/>
  <polygon points="235.167 742.167 416.333 682.167 446 708" fill="#3d3b40"/>
  <polygon points="235.167 742.167 265.667 894.667 446 708" fill="#38353c"/>
  <polygon points="265.667 894.667 302.667 918.667 446 708" fill="#645f65"/>
  <polygon points="446 708 483.167 723.333 302.667 918.667" fill="#676268"/>
  <polygon points="483.167 723.333 469.667 968.333 302.667 918.667" fill="#645f65"/>
  <polygon points="483.167 723.333 513.5 719 469.667 968.333" fill="#757076"/>
  <polygon points="513.5 719 686.667 793.333 469.667 968.333" fill="#5e595f"/>
  <polygon points="513.5 719 538.333 710.167 686.667 793.333" fill="#4c4a4f"/>
  <polygon points="686.667 793.333 770.333 908.667 469.667 968.333" fill="#999395"/>
  <polygon points="686.667 793.333 778.333 863 770.333 908.667" fill="#3c3a3f"/>
  <polygon points="778.333 863 836 927.333 770.333 908.667" fill="#948f95"/>
  <polygon points="778.333 863 878.667 813.667 836 927.333" fill="#4c4a4f"/>
  <polygon points="878.667 813.667 906.667 839 836 927.333" fill="#313035"/>
  <polygon points="538.333 710.167 571.083 679.167 686.667 793.333" fill="#3d3b40"/>
  <polygon points="571.083 679.167 659 682.333 686.667 793.333" fill="#2c2b31"/>
  <polygon points="571.083 679.167 620.833 637.667 659 682.333" fill="#3c3a3f"/>
  <polygon points="659 682.333 839 703.333 686.667 793.333" fill="#212026"/>
  <polygon points="659 682.333 692.333 613 839 703.333" fill="#1e1d22"/>
  <polygon points="620.833 637.667 692.333 613 659 682.333" fill="#202123"/>
  <polygon points="620.833 637.667 661.708 584.167 692.333 613" fill="#212123"/>
  <polygon points="692.333 613 801 607.667 839 703.333" fill="#29292b"/>
  <polygon points="692.333 613 735.667 519 801 607.667" fill="#1f2022"/>
  <polygon points="735.5 519.25 806.833 557.417 801 607.667" fill="#312e35"/>
  <polygon points="806.833 557.417 851 597.667 801 607.667" fill="#343237"/>
  <polygon points="801 607.667 851 597.667 859 646.333" fill="#242426"/>
  <polygon points="801 607.667 859 646.333 839 703.333" fill="#464449"/>
  <polygon points="661.708 584.167 689.167 540 692.333 613" fill="#212224"/>
  <polygon points="689.167 540 735.083 519.917 692.333 613" fill="#212224"/>
  <polygon points="769 251.667 849.583 195.667 844.083 279.917" fill="#252326"/>
  <polygon points="849.583 195.667 929.833 271.667 844.083 279.917" fill="#242227"/>
  <polygon points="849.583 195.667 991.583 206.917 929.833 271.667" fill="#2e2b32"/>
  <polygon points="829.083 46.917 849.583 195.667 991.583 206.917" fill="#313133"/>
  <polygon points="802.583 1.667 829.083 46.917 985.333 0.667" fill="#2c2a2f"/>
  <polygon points="829.083 46.917 985.333 0.667 991.583 206.917" fill="#29292b"/>
  <polygon points="844.083 279.917 851.083 382.917 929.833 271.667" fill="#36333a"/>
  <polygon points="929.833 271.667 991.583 206.917 987.833 604.167" fill="#333039"/>
  <polygon points="852.083 438.917 929.833 271.667 987.833 604.167" fill="#2b2b2d"/>
  <polygon points="832.333 431.167 851.083 382.917 852.083 438.917" fill="#302d34"/>
  <polygon points="851.083 382.917 929.833 271.667 852.083 438.917" fill="#2e2d33"/>
  <polygon points="806.833 557.417 852.083 438.917 851 597.667" fill="#1f1e23"/>
  <polygon points="852.083 438.917 987.833 604.167 851 597.667" fill="#272729"/>
  <polygon points="851 597.667 987.833 604.167 916.333 627.667" fill="#2e2e30"/>
  <polygon points="851 597.667 859 646.333 878.333 639.167" fill="#2d2c31"/>
  <polygon points="851 597.667 878.333 639.167 916.333 627.667" fill="#232325"/>
  <polygon points="916.333 627.667 948.333 671.167 987.833 604.167" fill="#272729"/>
  <polygon points="878.333 639.167 916.333 627.667 948.333 671.167" fill="#2b2b2d"/>
  <polygon points="948.333 671.167 987.833 604.167 973.833 681.167" fill="#2b2b2d"/>
  <polygon points="948.333 671.167 912.833 703.167 973.833 681.167" fill="#5b565c"/>
  <polygon points="878.333 639.167 912.833 703.167 948.333 671.167" fill="#58565b"/>
  <polygon points="859 646.333 878.333 639.167 912.833 703.167" fill="#3c3c3e"/>
  <polygon points="859 646.333 839 703.333 912.833 703.167" fill="#2f2d32"/>
  <polygon points="839 703.333 878.667 813.667 912.833 703.167" fill="#3d3b40"/>
  <polygon points="912.833 703.167 878.667 813.667 906.667 839" fill="#6e696f"/>
  <polygon points="912.833 703.167 973.833 681.167 906.667 839" fill="#514f54"/>
  <polygon points="686.667 793.333 839 703.333 778.333 863" fill="#464648"/>
  <polygon points="839 703.333 778.333 863 878.667 813.667" fill="#303032"/>
  <polygon points="906.667 839 973.833 681.167 979.833 974.667" fill="#858086"/>
  <polygon points="987.833 604.167 973.833 681.167 979.833 974.667" fill="#847f85"/>
  <polygon points="906.667 839 836 927.333 979.833 974.667" fill="#9f999b"/>
  <polygon points="878.667 813.667 836 927.333 906.667 839" fill="#313035"/>
  <polygon points="469.667 968.333 770.333 908.667 836 927.333" fill="#b3adad"/>
  <polygon points="469.667 968.333 836 927.333 979.833 974.667" fill="#cdc3c4"/>
  <polygon points="208.5 834.833 77.333 879.667 265.667 894.667" fill="#49474a"/>
  <polygon points="77.333 879.667 10.833 974.667 265.667 894.667" fill="#343237"/>
  <polygon points="265.667 894.667 10.833 974.667 302.667 918.667" fill="#59575c"/>
  <polygon points="302.667 918.667 10.833 974.667 469.667 968.333" fill="#6c676d"/>
  <polygon points="77.333 879.667 11.333 918.667 10.833 974.667" fill="#706b71"/>
  <polygon points="83.333 687.667 77.333 879.667 144 802.833" fill="#948e90"/>
  <polygon points="141.333 827.167 181.5 818.833 208.5 834.833" fill="#2b292e"/>
  <polygon points="141.333 827.167 77.333 879.667 208.5 834.833" fill="#302d34"/>
  <polygon points="144 802.833 77.333 879.667 141.333 827.167" fill="#544f55"/>
  <polygon points="69.667 681.333 83.333 687.667 77.333 879.667" fill="#c7c2be"/>
  <polygon points="69.667 681.333 11.333 918.667 77.333 879.667" fill="#a6a0a2"/>
  <polygon points="5.667 634.333 69.667 681.333 11.333 918.667" fill="#d4cacb"/>
  <polygon points="1.333 45 43.333 224.667 4.333 402.333" fill="#716c72"/>
  <polygon points="1.333 45 117.667 76 43.333 224.667" fill="#59575c"/>
  <polygon points="1.333 45 0 1.667 117.667 76" fill="#4b494e"/>
  <polygon points="0 1.667 257.667 5 117.667 76" fill="#504e53"/>
  <polygon points="117.667 76 257.667 5 238.333 57.667" fill="#656066"/>
  <polygon points="257.667 5 317.667 0 238.333 57.667" fill="#9d9394"/>
  <polygon points="0 1.667 317.667 0 257.667 5" fill="#737176"/>
  <polygon points="317.667 0 347 5 398.667 5.333" fill="#969293"/>
  <polygon points="317.667 0 347 5 376.333 79.417" fill="#bfb9b9"/>
  <polygon points="347 5 398.667 5.333 376.333 79.417" fill="#888387"/>
  <polygon points="398.667 5.333 452.667 1 376.333 79.417" fill="#626065"/>
  <polygon points="452.667 1 497.833 20.667 376.333 79.417" fill="#383339"/>
  <polygon points="452.667 1 573.583 2.667 497.833 20.667" fill="#a7a1a3"/>
  <polygon points="317.667 0 398.667 5.333 452.667 1" fill="#8c878b"/>
  <polygon points="573.583 2.667 651.5 3.667 624.583 11.917" fill="#1e1c1f"/>
  <polygon points="633.333 173.333 766.667 162.667 642 215" fill="#242426"/>
  <polygon points="642 215 766.667 162.667 720.667 239.667" fill="#242426"/>
  <polygon points="766.667 162.667 769 251.667 720.667 239.667" fill="#25262a"/>
  <polygon points="720.667 239.667 719 285.333 769 251.667" fill="#1f1f21"/>
  <polygon points="719 285.333 733.083 331.542 769 251.667" fill="#1f1e23"/>
  <polygon points="720.667 239.667 688.667 285.333 719 285.333" fill="#6b666a"/>
  <polygon points="642 215 640.333 246.333 672.667 267.667" fill="#8c8990"/>
  <polygon points="642 215 720.667 239.667 672.667 267.667" fill="#9e989a"/>
  <polygon points="672.667 267.667 688.667 285.333 720.667 239.667" fill="#8b868a"/>
  <polygon points="638.333 257.917 672.667 267.667 663.333 283.542" fill="#242529"/>
  <polygon points="672.667 267.667 663.333 283.542 684.833 287.792" fill="#6b6a6f"/>
  <polygon points="638.333 257.917 620.458 274.292 639.583 281.542" fill="#39363d"/>
  <polygon points="672.667 267.667 684.833 287.792 688.667 285.333" fill="#4b4a4f"/>
  <polygon points="642 215 591.667 251.667 640.333 246.333" fill="#817c82"/>
  <polygon points="496.083 603.667 483.167 723.333 446 708" fill="#eee2e2"/>
  <polygon points="274.083 122.417 352.333 199.917 309.458 212.042" fill="#eee2e2"/>
  <polygon points="375.083 281.167 380.333 287.917 367.083 287.417" fill="#8e8b92"/>
  <polygon points="486.458 383.667 546.333 370.542 553 437.333" fill="#cec4c5"/>
  <polygon points="583.458 382.542 631.083 326.292 718.875 452.667" fill="#b0aaac"/>
</svg>
