<svg id="Layer_2" data-name="Layer 2" xmlns="http://www.w3.org/2000/svg" viewBox="0 0 991.58 974.67">
	<title>face2</title>
<path d="M 591.67 251.67 L 640.33 246.33 L 638.33 257.92 L 591.67 251.67 z" fill="#2a2a2c"/>
<path d="M 640.33 246.33 L 672.67 267.67 L 638.33 257.92 L 640.33 246.33 z" fill="#312c32"/>
<path d="M 638.33 257.96 L 663.33 283.58 L 639.58 281.58 L 638.33 257.96 z" fill="#777278"/>
<path d="M 663.33 283.54 L 684.83 287.79 L 675.08 294.54 L 663.33 283.54 z" fill="#545358"/>
<path d="M 663.33 283.54 L 675.08 294.54 L 658.83 300.67 L 663.33 283.54 z" fill="#777578"/>
<path d="M 684.83 287.79 L 704.67 314.17 L 675.08 294.54 L 684.83 287.79 z" fill="#a9a5a6"/>
<path d="M 675.08 294.54 L 704.67 314.17 L 658.83 300.67 L 675.08 294.54 z" fill="#a9a0a3"/>
<path d="M 658.83 300.67 L 704.67 314.17 L 631.08 326.29 L 658.83 300.67 z" fill="#d5cbcc"/>
<path d="M 633.33 308.79 L 658.83 300.67 L 631.08 326.29 L 633.33 308.79 z" fill="#838182"/>
<path d="M 631.08 326.29 L 704.67 314.17 L 733.08 369.54 L 631.08 326.29 z" fill="#bcb6b6"/>
<path d="M 704.67 314.17 L 733.08 331.54 L 733.08 369.54 L 704.67 314.17 z" fill="#847f83"/>
<path d="M 684.83 287.79 L 688.67 285.33 L 704.67 314.17 L 684.83 287.79 z" fill="#817d7e"/>
<path d="M 688.67 285.33 L 719 285.33 L 704.67 314.17 L 688.67 285.33 z" fill="#6e6a6b"/>
<path d="M 719 285.33 L 733.08 331.54 L 704.67 314.17 L 719 285.33 z" fill="#464449"/>
<path d="M 733.08 331.54 L 773.33 368.29 L 733.08 369.54 L 733.08 331.54 z" fill="#232325"/>
<path d="M 631.08 326.29 L 733.08 369.54 L 718.88 452.67 L 631.08 326.29 z" fill="#cac0c1"/>
<path d="M 569.58 362.54 L 631.08 326.29 L 583.46 382.54 L 569.58 362.54 z" fill="#7e797f"/>
<path d="M 583.46 382.54 L 718.88 452.67 L 620.83 470.83 L 583.46 382.54 z" fill="#bbb5b5"/>
<path d="M 583.46 382.54 L 620.83 470.83 L 565.5 445.33 L 583.46 382.54 z" fill="#aaa4a4"/>
<path d="M 620.83 470.83 L 718.88 452.67 L 689.17 540 L 620.83 470.83 z" fill="#cdc3c4"/>
<path d="M 620.83 470.83 L 689.17 540 L 602.17 551.83 L 620.83 470.83 z" fill="#d0c6c7"/>
<path d="M 620.83 470.83 L 602.17 551.83 L 558.17 494 L 620.83 470.83 z" fill="#cac0c1"/>
<path d="M 565.5 445.33 L 620.83 470.83 L 559.5 471.67 L 565.5 445.33 z" fill="#969092"/>
<path d="M 559.5 471.67 L 620.83 470.83 L 558.17 494 L 559.5 471.67 z" fill="#a6a0a2"/>
<path d="M 583.46 382.54 L 553 437.33 L 565.5 445.33 L 583.46 382.54 z" fill="#b4aeb2"/>
<path d="M 553 437.33 L 565.5 445.33 L 559.5 471.67 L 555.67 474 z" fill="#dcd2d3"/>
<path d="M 496.5 456.58 L 553 437.33 L 532.5 477.83 L 496.5 456.58 z" fill="#d9cdcf"/>
<path d="M 496.5 456.58 L 532.5 477.83 L 501.42 484.58 L 496.5 456.58 z" fill="#bcb6b6"/>
<path d="M 496.5 456.58 L 477.58 484.58 L 501.42 484.58 L 496.5 456.58 z" fill="#ccc2c3"/>
<!--<path d="M 501.42 484.58 L 496.92 492.75 L 532.5 477.83 L 501.42 484.58 z" fill="#beb8b8"/>
<path d="M 477.58 484.58 L 501.42 484.58 L 496.92 492.75 L 477.58 484.58 z" fill="#b4aeb0"/>
<path d="M 477.58 484.58 L 496.92 492.75 L 470.17 553.58 L 477.58 484.58 z" fill="#c4bebe"/>
<path d="M 496.92 492.75 L 503.17 553.58 L 470.17 553.58 L 496.92 492.75 z" fill="#9c9698"/>
<path d="M 496.92 492.75 L 519.08 548.25 L 503.17 553.58 L 496.92 492.75 z" fill="#c2bcbe"/>
<path d="M 496.92 492.75 L 532.5 477.83 L 519.08 548.25 L 496.92 492.75 z" fill="#cac0c1"/>
<path d="M 519.08 548.25 L 529.33 548.92 L 532.5 477.83 L 519.08 548.25 z" fill="#cbc1c2"/>
<path d="M 532.5 477.83 L 558.17 494 L 529.33 548.92 L 532.5 477.83 z" fill="#ccc2c3"/>
<path d="M 529.33 548.92 L 572.67 563.92 L 558.17 494 L 529.33 548.92 z" fill="#c8bebf"/>
<path d="M 558.17 494 L 581.83 560.83 L 572.67 563.92 L 558.17 494 z" fill="#cac0c1"/>
<path d="M 558.17 494 L 602.17 551.83 L 581.83 560.83 L 558.17 494 z" fill="#c2bcbe"/>
<path d="M 529.33 548.92 L 572.67 563.92 L 562.25 569.67 L 529.33 548.92 z" fill="#544f55"/>
<path d="M 529.33 548.92 L 562.25 569.67 L 532.92 561.33 L 529.33 548.92 z" fill="#787379"/>
<path d="M 519.08 548.25 L 529.33 548.92 L 532.92 561.33 L 519.08 548.25 z" fill="#8f8b8c"/>
<path d="M 519.08 548.25 L 507.42 575.42 L 532.92 561.33 L 519.08 548.25 z" fill="#6d686e"/>
<path d="M 507.42 575.42 L 532.92 561.33 L 539.25 580.58 L 507.42 575.42 z" fill="#7a7579"/>
<path d="M 532.92 561.33 L 562.25 569.67 L 539.25 580.58 L 532.92 561.33 z" fill="#aea8aa"/>
<path d="M 562.25 569.67 L 557.17 581.92 L 539.25 580.58 L 562.25 569.67 z" fill="#bbb5b7"/>
<path d="M 562.25 569.67 L 572.67 563.92 L 557.17 581.92 L 562.25 569.67 z" fill="#938d8f"/>
<path d="M 572.67 563.92 L 581.83 560.83 L 557.17 581.92 L 572.67 563.92 z" fill="#756f71"/>
<path d="M 557.17 581.92 L 581.83 560.83 L 620.83 637.67 L 557.17 581.92 z" fill="#bcb2b3"/>
<path d="M 539.25 580.58 L 557.17 581.92 L 542.5 592.42 L 539.25 580.58 z" fill="#8c8688"/>
<path d="M 542.5 592.42 L 557.17 581.92 L 620.83 637.67 L 542.5 592.42 z" fill="#bcb6b6"/>
<path d="M 542.5 592.42 L 571.08 679.17 L 620.83 637.67 L 542.5 592.42 z" fill="#c3bdbd"/>
<path d="M 539.25 580.58 L 525.79 602.54 L 542.5 592.42 L 539.25 580.58 z" fill="#a09599"/>
<path d="M 507.42 575.42 L 539.25 580.58 L 525.79 602.54 L 507.42 575.42 z" fill="#989294"/>
<path d="M 507.42 575.42 L 496.08 603.67 L 525.79 602.54 L 507.42 575.42 z" fill="#b0aaac"/>
<path d="M 503.17 553.58 L 507.42 575.42 L 519.08 548.25 L 503.17 553.58 z" fill="#7d787c"/>
<path d="M 486.67 560.83 L 503.17 553.58 L 507.42 575.42 L 486.67 560.83 z" fill="#787178"/>
<path d="M 486.67 560.83 L 490.21 585.29 L 507.42 575.42 L 486.67 560.83 z" fill="#6f6a70"/>
<path d="M 470.17 553.58 L 503.17 553.58 L 486.67 560.83 L 470.17 553.58 z" fill="#c4bbbe"/>
<path d="M 470.17 553.58 L 466.33 561.83 L 486.67 560.83 L 470.17 553.58 z" fill="#a79ea3"/>
<path d="M 446.46 556.42 L 470.17 553.58 L 466.33 561.83 L 446.46 556.42 z" fill="#d8cecd"/>
<path d="M 639.58 281.54 L 658.83 300.67 L 663.33 283.54 L 639.58 281.54 z" fill="#c3c1c4"/>
<path d="M 639.58 281.54 L 638.33 295.58 L 658.83 300.67 L 639.58 281.54 z" fill="#c5bfc1"/>
<path d="M 638.33 295.58 L 633.33 308.79 L 658.83 300.67 L 638.33 295.58 z" fill="#464044"/>
<path d="M 605.58 310.92 L 633.33 308.79 L 631.08 326.29 L 605.58 310.92 z" fill="#6f6d70"/>
<path d="M 605.58 310.92 L 618.25 298.42 L 633.33 308.79 L 605.58 310.92 z" fill="#353338"/>
<path d="M 618.25 298.42 L 638.33 295.58 L 633.33 308.79 L 618.25 298.42 z" fill="#5c5a5d"/>
<path d="M 626.08 282.83 L 639.58 281.54 L 638.33 295.58 L 626.08 282.83 z" fill="#444245"/>
<path d="M 619.08 287.79 L 626.08 282.83 L 638.33 295.58 L 619.08 287.79 z" fill="#4d4b4e"/>
<path d="M 619.08 287.79 L 618.25 298.42 L 638.33 295.58 L 619.08 287.79 z" fill="#444446"/>
<path d="M 620.46 274.29 L 626.08 282.83 L 639.58 281.54 L 620.46 274.29 z" fill="#2a282b"/>
<path d="M 620.46 274.29 L 619.08 287.79 L 626.08 282.83 L 620.46 274.29 z" fill="#2f2d30"/>
<path d="M 613.08 282.83 L 619.08 287.79 L 620.46 274.29 L 613.08 282.83 z" fill="#1b191c"/>
<path d="M 612.75 272 L 620.46 274.29 L 613.08 282.83 L 612.75 272 z" fill="#252527"/>
<path d="M 612.75 272 L 597.21 274.29 L 613.08 282.83 L 612.75 272 z" fill="#5d5d5f"/>
<path d="M 591.67 251.67 L 612.75 272 L 638.33 257.92 L 591.67 251.67 z" fill="#232325"/>
<path d="M 612.75 272 L 620.46 274.29 L 638.33 257.92 L 612.75 272 z" fill="#2a272e"/>
<path d="M 591.67 251.67 L 597.21 274.29 L 612.75 272 L 591.67 251.67 z" fill="#28272d"/>
<path d="M 591.67 251.67 L 565.33 266.83 L 597.21 274.29 L 591.67 251.67 z" fill="#2d2a33"/>
<path d="M 565.33 266.83 L 573.92 295.38 L 597.21 274.29 L 565.33 266.83 z" fill="#353336"/>
<path d="M 597.21 286.21 L 597.21 274.29 L 573.92 295.38 L 597.21 286.21 z" fill="#818085"/>
<path d="M 597.21 274.29 L 613.08 282.83 L 597.21 286.21 L 597.21 274.29 z" fill="#29282d"/>
<path d="M 597.21 286.21 L 600.38 295.79 L 613.08 282.83 L 597.21 286.21 z" fill="#4e4d52"/>
<path d="M 600.38 295.79 L 618.25 298.42 L 613.08 282.83 L 600.38 295.79 z" fill="#3a383b"/>
<path d="M 613.08 282.83 L 619.08 287.79 L 618.25 298.42 L 613.08 282.83 z" fill="#424043"/>
<path d="M 600.38 295.79 L 605.58 310.92 L 618.25 298.42 L 600.38 295.79 z" fill="#4b494e"/>
<path d="M 600.38 295.79 L 583.54 307.88 L 605.58 310.92 L 600.38 295.79 z" fill="#4b494e"/>
<path d="M 583.54 307.88 L 569.58 362.54 L 605.58 310.92 L 583.54 307.88 z" fill="#555358"/>
<path d="M 605.58 310.92 L 569.58 362.54 L 631.08 326.29 L 605.58 310.92 z" fill="#5c5a5f"/>
<path d="M 564.08 307.75 L 583.54 307.88 L 569.58 362.54 L 564.08 307.75 z" fill="#4b494e"/>
<path d="M 528 317.75 L 564.08 307.75 L 569.58 362.54 L 528 317.75 z" fill="#555259"/>
<path d="M 573.92 295.38 L 564.08 307.75 L 583.54 307.88 L 573.92 295.38 z" fill="#3a383b"/>
<path d="M 573.92 295.38 L 600.38 295.79 L 583.54 307.88 L 573.92 295.38 z" fill="#39373a"/>
<path d="M 573.92 295.38 L 597.21 286.21 L 600.38 295.79 L 573.92 295.38 z" fill="#79787d"/>
<path d="M 553.92 303.58 L 573.92 295.38 L 564.08 307.75 L 553.92 303.58 z" fill="#2c2c2e"/>
<path d="M 539.92 287.58 L 573.92 295.38 L 553.92 303.58 L 539.92 287.58 z" fill="#454346"/>
<path d="M 539.92 287.58 L 565.33 266.83 L 573.92 295.38 L 539.92 287.58 z" fill="#2b282f"/>
<path d="M 528.5 281.58 L 539.92 287.58 L 565.33 266.83 L 528.5 281.58 z" fill="#514f54"/>
<path d="M 528.5 281.58 L 528 317.75 L 539.92 287.58 L 528.5 281.58 z" fill="#767175"/>
<path d="M 539.92 287.58 L 528 317.75 L 553.92 303.58 L 539.92 287.58 z" fill="#48464b"/>
<path d="M 553.92 303.58 L 564.08 307.75 L 528 317.75 L 553.92 303.58 z" fill="#49474c"/>
<path d="M 515.83 248.67 L 528.5 281.58 L 565.33 266.83 L 515.83 248.67 z" fill="#b2acae"/>
<path d="M 515.83 248.67 L 478.5 299.75 L 528.5 281.58 L 515.83 248.67 z" fill="#b6afb6"/>
<path d="M 515.83 248.67 L 573.75 238.83 L 565.33 266.83 L 515.83 248.67 z" fill="#726d73"/>
<path d="M 573.75 238.83 L 591.67 251.67 L 565.33 266.83 L 573.75 238.83 z" fill="#656368"/>
<path d="M 573.75 238.83 L 642.0 215.0  L 591.67 251.67 573.75 238.83 z" fill="#898488"/>
<path d="M 527.21 173.42 L 633.33 173.33 L 573.75 238.83 L 527.21 173.42 z" fill="#302f34"/>
<path d="M 527.21 173.42 L 515.83 248.67 L 573.75 238.83 L 527.21 173.42 z" fill="#2a2b2d"/>
<path d="M 527.21 173.42 L 482.46 221.67 L 515.83 248.67 L 527.21 173.42 z" fill="#414141"/>
<path d="M 463.58 201.54 L 482.46 221.67 L 527.21 173.42 L 463.58 201.54 z" fill="#29282e"/>
<path d="M 421.71 170.92 L 463.58 201.54 L 527.21 173.42 L 421.71 170.92 z" fill="#626264"/>
<path d="M 421.71 170.92 L 425.21 219.42 L 463.58 201.54 L 421.71 170.92 z" fill="#b4aeb0"/>
<path d="M 425.21 219.42 L 463.58 201.54 L 482.46 221.67 L 425.21 219.42 z" fill="#aea7ae"/>
<path d="M 425.21 219.42 L 450.33 266.29 L 482.46 221.67 L 425.21 219.42 z" fill="#c6bcbd"/>
<path d="M 482.46 221.67 L 450.33 266.29 L 515.83 248.67 L 482.46 221.67 z" fill="#b4acac"/>
<path d="M 450.33 266.29 L 478.5 299.75 L 515.83 248.67 L 450.33 266.29 z" fill="#d0c6c7"/>
<path d="M 450.33 266.29 L 448.33 301.54 L 478.5 299.75 L 450.33 266.29 z" fill="#ebdfdf"/>
<path d="M 448.33 301.54 L 467.96 327.79 L 478.5 299.75 L 448.33 301.54 z" fill="#f3e5e5"/>
<path d="M 448.33 301.54 L 445.58 324.79 L 467.96 327.79 L 448.33 301.54 z" fill="#e6dada"/>
<path d="M 467.96 327.79 L 486.46 383.67 L 528 317.75 L 467.96 327.79 z" fill="#d9cdcf"/>
<path d="M 478.5 299.75 L 528 317.75 L 467.96 327.79 L 478.5 299.75 z" fill="#d7cbcb"/>
<path d="M 478.5 299.75 L 528.5 281.58 L 528 317.75 L 478.5 299.75 z" fill="#d5cbcc"/>
<path d="M 440.08 306.92 L 448.33 301.54 L 445.58 324.79 L 440.08 306.92 z" fill="#dbcfcf"/>
<path d="M 438.21 283.54 L 448.33 301.54 L 440.08 306.92 L 438.21 283.54 z" fill="#a2979b"/>
<path d="M 438.21 283.54 L 450.33 266.29 L 448.33 301.54 L 438.21 283.54 z" fill="#b8b0ae"/>
<path d="M 431.21 260.92 L 438.21 283.54 L 450.33 266.29 L 431.21 260.92 z" fill="#bdb4b7"/>
<path d="M 425.21 219.42 L 431.21 260.92 L 450.33 266.29 L 425.21 219.42 z" fill="#b0aaaa"/>
<path d="M 425.21 219.42 L 419.08 249.67 L 431.21 260.92 L 425.21 219.42 z" fill="#8e8a8b"/>
<path d="M 419.08 249.67 L 406.46 255.79 L 431.21 260.92 L 419.08 249.67 z" fill="#868185"/>
<path d="M 406.46 255.79 L 428.96 288.04 L 431.21 260.92 L 406.46 255.79 z" fill="#4d4b50"/>
<path d="M 406.46 255.79 L 404.46 293.04 L 428.96 288.04 L 406.46 255.79 z" fill="#535156"/>
<path d="M 396.33 236.92 L 425.21 219.42 L 419.08 249.67 L 396.33 236.92 z" fill="#878288"/>
<path d="M 396.33 236.92 L 406.46 255.79 L 419.08 249.67 L 396.33 236.92 z" fill="#858388"/>
<path d="M 396.33 236.92 L 384.71 250.54 L 406.46 255.79 L 396.33 236.92 z" fill="#5f5e63"/>
<path d="M 384.46 228.42 L 384.71 250.54 L 396.33 236.92 L 384.46 228.42 z" fill="#8f8a8e"/>
<path d="M 384.46 228.42 L 425.21 219.42 L 396.33 236.92 L 384.46 228.42 z" fill="#676165"/>
<path d="M 384.46 228.42 L 368.33 250.04 L 384.71 250.54 L 384.46 228.42 z" fill="#625f66"/>
<path d="M 352.33 199.92 L 368.33 250.04 L 384.46 228.42 L 352.33 199.92 z" fill="#a7a1a3"/>
<path d="M 352.33 199.92 L 421.71 170.92 L 384.46 228.42 L 352.33 199.92 z" fill="#d3c8c6"/>
<path d="M 421.71 170.92 L 384.46 228.42 L 425.21 219.42 L 421.71 170.92 z" fill="#c8c0c0"/>
<path d="M 352.33 199.92 L 325.08 252.42 L 368.33 250.04 L 352.33 199.92 z" fill="#969293"/>
<path d="M 309.46 212.04 L 352.33 199.92 L 325.08 252.42 L 309.46 212.04 z" fill="#d2c7cb"/>
<path d="M 309.46 212.04 L 302.96 270.67 L 325.08 252.42 L 309.46 212.04 z" fill="#a49e9e"/>
<path d="M 368.33 250.04 L 370.33 268.79 L 384.71 250.54 L 368.33 250.04 z" fill="#2e2d32"/>
<path d="M 370.33 268.79 L 384.71 250.54 L 382.33 273.92 L 370.33 268.79 z" fill="#484349"/>
<path d="M 368.33 250.04 L 364.83 270.04 L 370.33 268.79 L 368.33 250.04 z" fill="#35393c"/>
<path d="M 368.33 250.04 L 357.46 269.42 L 364.83 270.04 L 368.33 250.04 z" fill="#333136"/>
<path d="M 364.83 270.04 L 359.46 281.79 L 375.08 281.17 L 364.83 270.04 z" fill="#16131a"/>
<path d="M 364.83 270.04 L 370.33 268.79 L 375.08 281.17 L 364.83 270.04 z" fill="#28272c"/>
<path d="M 370.33 268.79 L 375.08 281.17 L 382.33 273.92 L 370.33 268.79 z" fill="#58565b"/>
<path d="M 382.33 273.92 L 375.08 281.17 L 388.71 279.54 L 382.33 273.92 z" fill="#575256"/>
<path d="M 382.33 273.92 L 391.83 270.17 L 388.71 279.54 L 382.33 273.92 z" fill="#312f34"/>
<path d="M 384.71 250.54 L 391.83 270.17 L 382.33 273.92 L 384.71 250.54 z" fill="#3b393e"/>
<path d="M 384.71 250.54 L 391.83 270.17 L 406.46 255.79 L 384.71 250.54 z" fill="#3b3a3f"/>
<path d="M 391.83 270.17 L 404.46 293.04 L 406.46 255.79 L 391.83 270.17 z" fill="#343235"/>
<path d="M 388.71 279.54 L 391.83 270.17 L 404.46 293.04 L 388.71 279.54 z" fill="#888387"/>
<path d="M 359.46 281.79 L 367.08 287.42 L 375.08 281.17 L 359.46 281.79 z" fill="#545158"/>
<path d="M 359.46 281.79 L 359.46 294.54 L 367.08 287.42 L 359.46 281.79 z" fill="#6c6970"/>
<path d="M 367.08 287.42 L 359.46 294.54 L 370.08 296.29 L 367.08 287.42 z" fill="#47444b"/>
<path d="M 367.08 287.42 L 380.33 287.92 L 370.08 296.29 L 367.08 287.42 z" fill="#838087"/>
<path d="M 375.08 281.17 L 388.71 279.54 L 380.33 287.92 L 375.08 281.17 z" fill="#908b8f"/>
<path d="M 388.71 279.54 L 388.58 288.29 L 380.33 287.92 L 388.71 279.54 z" fill="#353034"/>
<path d="M 380.33 287.92 L 384.71 294.54 L 370.08 296.29 L 380.33 287.92 z" fill="#2e2b32"/>
<path d="M 388.71 279.54 L 388.58 288.29 L 404.46 293.04 L 388.71 279.54 z" fill="#878286"/>
<path d="M 404.46 293.04 L 428.96 288.04 L 421.96 304.92 L 404.46 293.04 z" fill="#686369"/>
<path d="M 404.46 293.04 L 406.33 315.29 L 421.96 304.92 L 404.46 293.04 z" fill="#68666b"/>
<path d="M 428.96 288.04 L 421.96 304.92 L 440.08 306.92 L 428.96 288.04 z" fill="#8b898a"/>
<path d="M 428.96 288.04 L 438.21 283.54 L 431.21 260.92 L 428.96 288.04 z" fill="#69646a"/>
<path d="M 428.96 288.04 L 438.21 283.54 L 440.08 306.92 L 428.96 288.04 z" fill="#666165"/>
<path d="M 266.58 220.42 L 273.21 272.79 L 302.96 270.67 L 266.58 220.42 z" fill="#9e979e"/>
<path d="M 273.21 272.79 L 275.33 287.54 L 302.96 270.67 L 273.21 272.79 z" fill="#928c8e"/>
<path d="M 275.33 287.54 L 302.96 270.67 L 314.46 299.54 L 275.33 287.54 z" fill="#7d787e"/>
<path d="M 302.96 270.67 L 322.58 282.29 L 314.46 299.54 L 302.96 270.67 z" fill="#575258"/>
<path d="M 322.58 282.29 L 336.21 290.42 L 314.46 299.54 L 322.58 282.29 z" fill="#a7a1a3"/>
<path d="M 314.46 299.54 L 321.96 314.17 L 336.21 290.42 L 314.46 299.54 z" fill="#d7cdcc"/>
<path d="M 302.96 270.67 L 317.83 267.92 L 322.58 282.29 L 302.96 270.67 z" fill="#4d4b50"/>
<path d="M 302.96 270.67 L 325.08 252.42 L 317.83 267.92 L 302.96 270.67 z" fill="#363439"/>
<path d="M 325.08 252.42 L 340.46 269.42 L 317.83 267.92 L 325.08 252.42 z" fill="#3c3b40"/>
<path d="M 317.83 267.92 L 330.08 277.67 L 340.46 269.42 L 317.83 267.92 z" fill="#5f5e63"/>
<path d="M 317.83 267.92 L 322.58 282.29 L 330.08 277.67 L 317.83 267.92 z" fill="#39383d"/>
<path d="M 322.58 282.29 L 330.08 277.67 L 336.21 290.42 L 322.58 282.29 z" fill="#afa9ab"/>
<path d="M 330.08 277.67 L 340.46 269.42 L 349.08 279.17 L 330.08 277.67 z" fill="#ccc1c5"/>
<path d="M 330.08 277.67 L 349.08 279.17 L 336.21 290.42 L 330.08 277.67 z" fill="#daced2"/>
<path d="M 336.21 290.42 L 349.08 279.17 L 351.46 287.29 L 336.21 290.42 z" fill="#776d75"/>
<path d="M 325.08 252.42 L 346.71 266.42 L 340.46 269.42 L 325.08 252.42 z" fill="#2e2d32"/>
<path d="M 340.46 269.42 L 346.71 266.42 L 349.08 279.17 L 340.46 269.42 z" fill="#5a5154"/>
<path d="M 346.71 266.42 L 357.46 269.42 L 349.08 279.17 L 346.71 266.42 z" fill="#929095"/>
<path d="M 349.08 279.17 L 357.46 269.42 L 359.46 281.79 L 349.08 279.17 z" fill="#6b696e"/>
<path d="M 349.08 279.17 L 359.46 281.79 L 351.46 287.29 L 349.08 279.17 z" fill="#615e65"/>
<path d="M 357.46 269.42 L 364.83 270.04 L 359.46 281.79 L 357.46 269.42 z" fill="#2a282d"/>
<path d="M 325.08 252.42 L 368.33 250.04 L 346.71 266.42 L 325.08 252.42 z" fill="#252328"/>
<path d="M 368.33 250.04 L 346.71 266.42 L 357.46 269.42 L 368.33 250.04 z" fill="#222025"/>
<path d="M 336.21 290.42 L 343.21 294.54 L 351.46 287.29 L 336.21 290.42 z" fill="#d8cdd1"/>
<path d="M 336.21 290.42 L 343.21 294.54 L 321.96 314.17 L 336.21 290.42 z" fill="#a8a2a4"/>
<path d="M 321.96 314.17 L 352.08 300.54 L 343.21 294.54 L 321.96 314.17 z" fill="#827c7e"/>
<path d="M 321.96 314.17 L 345.96 326.29 L 352.08 300.54 L 321.96 314.17 z" fill="#cec4c5"/>
<path d="M 343.21 294.54 L 351.46 287.29 L 352.08 300.54 L 343.21 294.54 z" fill="#c1bcc0"/>
<path d="M 351.46 287.29 L 359.46 294.54 L 352.08 300.54 L 351.46 287.29 z" fill="#2e292d"/>
<path d="M 351.46 287.29 L 359.46 281.79 L 359.46 294.54 L 351.46 287.29 z" fill="#5a575e"/>
<path d="M 352.08 300.54 L 359.46 294.54 L 368.33 304.42 L 352.08 300.54 z" fill="#989397"/>
<path d="M 380.33 287.92 L 384.71 294.54 L 388.58 288.29 L 380.33 287.92 z" fill="#696468"/>
<path d="M 370.08 296.29 L 368.33 304.42 L 384.71 294.54 L 370.08 296.29 z" fill="#828085"/>
<path d="M 359.46 294.54 L 370.08 296.29 L 368.33 304.42 L 359.46 294.54 z" fill="#615f62"/>
<path d="M 352.08 300.54 L 368.33 304.42 L 345.96 326.29 L 352.08 300.54 z" fill="#a6a0a2"/>
<path d="M 345.96 326.29 L 368.33 304.42 L 381.96 321.42 L 345.96 326.29 z" fill="#9b9798"/>
<path d="M 345.96 326.29 L 381.96 321.42 L 402.08 343.54 L 345.96 326.29 z" fill="#868187"/>
<path d="M 345.96 326.29 L 323.46 355.42 L 402.08 343.54 L 345.96 326.29 z" fill="#ccc0c2"/>
<path d="M 321.96 314.17 L 323.46 355.42 L 345.96 326.29 L 321.96 314.17 z" fill="#e3d7d7"/>
<path d="M 270.58 323.92 L 321.96 314.17 L 323.46 355.42 L 270.58 323.92 z" fill="#e4d8d8"/>
<path d="M 255.46 340.17 L 270.58 323.92 L 323.46 355.42 L 255.46 340.17 z" fill="#d5d0cd"/>
<path d="M 255.46 340.17 L 248.21 379.54 L 323.46 355.42 L 255.46 340.17 z" fill="#eadede"/>
<path d="M 323.46 355.42 L 402.08 343.54 L 421.96 359.54 L 323.46 355.42 z" fill="#b5afb1"/>
<path d="M 368.33 304.42 L 384.71 294.54 L 394.96 304.54 L 368.33 304.42 z" fill="#69646a"/>
<path d="M 368.33 304.42 L 394.96 304.54 L 381.96 321.42 L 368.33 304.42 z" fill="#726d73"/>
<path d="M 394.96 304.54 L 406.33 315.29 L 381.96 321.42 L 394.96 304.54 z" fill="#6e696f"/>
<path d="M 381.96 321.42 L 406.33 315.29 L 402.08 343.54 L 381.96 321.42 z" fill="#757074"/>
<path d="M 406.33 315.29 L 445.58 324.79 L 402.08 343.54 L 406.33 315.29 z" fill="#999395"/>
<path d="M 394.96 304.54 L 404.46 293.04 L 406.33 315.29 L 394.96 304.54 z" fill="#727075"/>
<path d="M 388.58 288.29 L 394.96 304.54 L 404.46 293.04 L 388.58 288.29 z" fill="#645f65"/>
<path d="M 388.58 288.29 L 384.71 294.54 L 394.96 304.54 L 388.58 288.29 z" fill="#676268"/>
<path d="M 421.96 304.92 L 406.33 315.29 L 445.58 324.79 L 421.96 304.92 z" fill="#8a8687"/>
<path d="M 421.96 304.92 L 440.08 306.92 L 445.58 324.79 L 421.96 304.92 z" fill="#c3bbbb"/>
<path d="M 402.08 343.54 L 421.96 359.54 L 445.58 324.79 L 402.08 343.54 z" fill="#d2cac8"/>
<path d="M 445.58 324.79 L 421.96 359.54 L 439.71 366.79 L 445.58 324.79 z" fill="#ece0e0"/>
<path d="M 445.58 324.79 L 467.96 327.79 L 439.71 366.79 L 445.58 324.79 z" fill="#eee2e2"/>
<path d="M 467.96 327.79 L 439.71 366.79 L 486.46 383.67 L 467.96 327.79 z" fill="#efe3e3"/>
<path d="M 248.21 379.54 L 254.83 428.79 L 323.46 355.42 L 248.21 379.54 z" fill="#e6dada"/>
<path d="M 254.83 428.79 L 262.58 472.67 L 323.46 355.42 L 254.83 428.79 z" fill="#e1d5d7"/>
<path d="M 323.46 355.42 L 421.96 359.54 L 423.83 464.04 L 323.46 355.42 z" fill="#eadede"/>
<path d="M 423.83 464.04 L 452.58 440.29 L 433.33 476.42 L 423.83 464.04 z" fill="#efe1e1"/>
<path d="M 433.33 476.42 L 460.58 478.79 L 452.58 440.29 L 433.33 476.42 z" fill="#ebdfdf"/>
<path d="M 452.58 440.29 L 496.5 456.58 L 460.58 478.79 L 452.58 440.29 z" fill="#e8dcdc"/>
<path d="M 460.58 478.79 L 496.5 456.58 L 477.58 484.58 L 460.58 478.79 z" fill="#d9cfd0"/>
<path d="M 460.58 478.79 L 470.17 553.58 L 477.58 484.58 L 460.58 478.79 z" fill="#e7dbdb"/>
<path d="M 460.58 478.79 L 446.46 556.42 L 470.17 553.58 L 460.58 478.79 z" fill="#e8dcdc"/>
<path d="M 433.33 476.42 L 460.58 478.79 L 446.46 556.42 L 433.33 476.42 z" fill="#ede1e1"/>
<path d="M 446.46 556.42 L 464.96 571.42 L 466.33 561.83 L 446.46 556.42 z" fill="#989292"/>
<path d="M 446.46 556.42 L 443.08 572.42 L 464.96 571.42 L 446.46 556.42 z" fill="#958e95"/>
<path d="M 430.71 560.92 L 446.46 556.42 L 443.08 572.42 L 430.71 560.92 z" fill="#b8afb2"/>
<path d="M 430.71 560.92 L 424.33 576.79 L 443.08 572.42 L 430.71 560.92 z" fill="#cec6c6"/>
<path d="M 414.08 558.79 L 430.71 560.92 L 424.33 576.79 L 414.08 558.79 z" fill="#847a7b"/>
<path d="M 393.96 553.79 L 414.08 558.79 L 424.33 576.79 L 393.96 553.79 z" fill="#6e676e"/>
<path d="M 424.33 576.79 L 443.08 572.42 L 446.58 590.42 L 424.33 576.79 z" fill="#ddd2d0"/>
<path d="M 393.96 553.79 L 359.46 641.17 L 424.33 576.79 L 393.96 553.79 z" fill="#e5d9d9"/>
<path d="M 424.33 576.79 L 359.46 641.17 L 446.58 590.42 L 424.33 576.79 z" fill="#e3d7d7"/>
<path d="M 446.58 590.42 L 416.33 682.17 L 359.46 641.17 L 446.58 590.42 z" fill="#ddd1d3"/>
<path d="M 446.58 590.42 L 465.33 598.67 L 416.33 682.17 L 446.58 590.42 z" fill="#d3c7c9"/>
<path d="M 446.58 590.42 L 464.96 571.42 L 465.33 598.67 L 446.58 590.42 z" fill="#ded2d4"/>
<path d="M 443.08 572.42 L 464.96 571.42 L 446.58 590.42 L 443.08 572.42 z" fill="#d9cfce"/>
<path d="M 464.96 571.42 L 490.21 585.29 L 465.33 598.67 L 464.96 571.42 z" fill="#9f9596"/>
<path d="M 465.33 598.67 L 490.21 585.29 L 496.08 603.67 L 465.33 598.67 z" fill="#b9b3b5"/>
<path d="M 490.21 585.29 L 507.42 575.42 L 496.08 603.67 L 490.21 585.29 z" fill="#726e6f"/>
<path d="M 486.67 560.83 L 464.96 571.42 L 490.21 585.29 L 486.67 560.83 z" fill="#7e797d"/>
<path d="M 466.33 561.83 L 464.96 571.42 L 486.67 560.83 L 466.33 561.83 z" fill="#7e787c"/>
<path d="M 528 317.75 L 546.33 370.54 L 486.46 383.67 L 528 317.75 z" fill="#c3b9ba"/>
<path d="M 528 317.75 L 569.58 362.54 L 546.33 370.54 L 528 317.75 z" fill="#bbb5b7"/>
<path d="M 569.58 362.54 L 546.33 370.54 L 583.46 382.54 L 569.58 362.54 z" fill="#bcb6ba"/>
<path d="M 546.33 370.54 L 553 437.33 L 583.46 382.54 L 546.33 370.54 z" fill="#cfc3c5"/>
<path d="M 486.46 383.67 L 496.5 456.58 L 553 437.33 L 486.46 383.67 z" fill="#ded2d2"/>
<path d="M 486.46 383.67 L 452.58 440.29 L 496.5 456.58 L 486.46 383.67 z" fill="#ece0e0"/>
<path d="M 444.46 388.54 L 423.83 464.04 L 452.58 440.29 L 444.46 388.54 z" fill="#f3e5e5"/>
<path d="M 444.46 388.54 L 486.46 383.67 L 452.58 440.29 L 444.46 388.54 z" fill="#efe3e3"/>
<path d="M 439.71 366.79 L 444.46 388.54 L 486.46 383.67 L 439.71 366.79 z" fill="#f2e4e4"/>
<path d="M 421.96 359.54 L 444.46 388.54 L 439.71 366.79 L 421.96 359.54 z" fill="#f4e6e6"/>
<path d="M 421.96 359.54 L 444.46 388.54 L 423.83 464.04 L 421.96 359.54 z" fill="#f4e6e5"/>
<path d="M 187.83 210 L 266.58 220.42 L 273.21 272.79 L 187.83 210 z" fill="#272729"/>
<path d="M 187.83 210 L 187.33 316.67 L 273.21 272.79 L 187.83 210 z" fill="#535154"/>
<path d="M 187.33 316.67 L 273.21 272.79 L 246.83 323 L 187.33 316.67 z" fill="#212224"/>
<path d="M 187.33 316.67 L 175.5 359.33 L 246.83 323 L 187.33 316.67 z" fill="#454044"/>
<path d="M 273.21 272.79 L 246.83 323 L 275.33 287.54 L 273.21 272.79 z" fill="#404042"/>
<path d="M 275.33 287.54 L 270.58 323.92 L 314.46 299.54 L 275.33 287.54 z" fill="#a7a1a3"/>
<path d="M 314.46 299.54 L 321.96 314.17 L 270.58 323.92 L 314.46 299.54 z" fill="#c0b6b7"/>
<path d="M 275.33 287.54 L 246.83 323 L 270.58 323.92 L 275.33 287.54 z" fill="#3d3b40"/>
<path d="M 246.83 323 L 255.46 340.17 L 270.58 323.92 L 246.83 323 z" fill="#38363b"/>
<path d="M 175.5 359.33 L 246.83 323 L 255.46 340.17 L 175.5 359.33 z" fill="#222325"/>
<path d="M 175.5 359.33 L 255.46 340.17 L 248.21 379.54 L 175.5 359.33 z" fill="#242527"/>
<path d="M 175.5 359.33 L 215.5 405.5 L 248.21 379.54 L 175.5 359.33 z" fill="#29292b"/>
<path d="M 175.5 359.33 L 198.17 421.5 L 215.5 405.5 L 175.5 359.33 z" fill="#504d54"/>
<path d="M 215.5 405.5 L 248.21 379.54 L 254.83 428.79 L 215.5 405.5 z" fill="#252527"/>
<path d="M 215.5 405.5 L 198.17 421.5 L 254.83 428.79 L 215.5 405.5 z" fill="#202123"/>
<path d="M 198.17 421.5 L 194 482.5 L 254.83 428.79 L 198.17 421.5 z" fill="#2c2b30"/>
<path d="M 254.83 428.79 L 262.58 472.67 L 194 482.5 L 254.83 428.79 z" fill="#2c2c2e"/>
<path d="M 194 482.5 L 216.33 515.17 L 262.58 472.67 L 194 482.5 z" fill="#212025"/>
<path d="M 262.58 472.67 L 285.83 536.67 L 216.33 515.17 L 262.58 472.67 z" fill="#29272a"/>
<path d="M 323.46 355.42 L 262.58 472.67 L 423.83 464.04 L 323.46 355.42 z" fill="#e8dcdc"/>
<path d="M 262.58 472.67 L 285.83 536.67 L 423.83 464.04 L 262.58 472.67 z" fill="#e9dddd"/>
<path d="M 285.83 536.67 L 393.96 553.79 L 423.83 464.04 L 285.83 536.67 z" fill="#e1d5d5"/>
<path d="M 285.83 536.67 L 325.33 605.67 L 393.96 553.79 L 285.83 536.67 z" fill="#d8d0ce"/>
<path d="M 285.83 536.67 L 256 560.17 L 325.33 605.67 L 285.83 536.67 z" fill="#232426"/>
<path d="M 216.33 515.17 L 256 560.17 L 285.83 536.67 L 216.33 515.17 z" fill="#232426"/>
<path d="M 216.33 515.17 L 192.33 580.33 L 256 560.17 L 216.33 515.17 z" fill="#212224"/>
<path d="M 192.33 580.33 L 219.67 614.67 L 256 560.17 L 192.33 580.33 z" fill="#252628"/>
<path d="M 256 560.17 L 219.67 614.67 L 325.33 605.67 L 256 560.17 z" fill="#2a2b2d"/>
<path d="M 325.33 605.67 L 359.46 641.17 L 393.96 553.79 L 325.33 605.67 z" fill="#c1bbbb"/>
<path d="M 496.08 603.67 L 513.5 719 L 483.17 723.33 L 496.08 603.67 z" fill="#b4abae"/>
<path d="M 496.08 603.67 L 538.33 710.17 L 513.5 719 L 496.08 603.67 z" fill="#b3adaf"/>
<path d="M 496.08 603.67 L 525.79 602.54 L 538.33 710.17 L 496.08 603.67 z" fill="#b4b0b1"/>
<path d="M 525.79 602.54 L 571.08 679.17 L 538.33 710.17 L 525.79 602.54 z" fill="#c6bcbd"/>
<path d="M 525.79 602.54 L 542.5 592.42 L 571.08 679.17 L 525.79 602.54 z" fill="#b2acac"/>
<path d="M 423.83 464.04 L 433.33 476.42 L 393.96 553.79 L 423.83 464.04 z" fill="#eadede"/>
<path d="M 433.33 476.42 L 430.71 560.92 L 446.46 556.42 L 433.33 476.42 z" fill="#eadede"/>
<path d="M 414.08 558.79 L 430.71 560.92 L 433.33 476.42 L 414.08 558.79 z" fill="#e9dddd"/>
<path d="M 393.96 553.79 L 414.08 558.79 L 433.33 476.42 L 393.96 553.79 z" fill="#e9dddd"/>
<path d="M 581.83 560.83 L 602.17 551.83 L 620.83 637.67 L 581.83 560.83 z" fill="#b5afaf"/>
<path d="M 602.17 551.83 L 661.71 584.17 L 620.83 637.67 L 602.17 551.83 z" fill="#bbb5b5"/>
<path d="M 602.17 551.83 L 689.17 540 L 661.71 584.17 L 602.17 551.83 z" fill="#c6bcbd"/>
<path d="M 266.58 220.42 L 274.08 122.42 L 309.46 212.04 L 266.58 220.42 z" fill="#ded2d2"/>
<path d="M 352.33 199.92 L 376.33 79.42 L 421.71 170.92 L 352.33 199.92 z" fill="#e4d8d8"/>
<path d="M 376.33 79.42 L 497.83 20.67 L 421.71 170.92 L 376.33 79.42 z" fill="#e6e5e3"/>
<path d="M 497.83 20.67 L 421.71 170.92 L 527.21 173.42 L 497.83 20.67 z" fill="#969499"/>
<path d="M 497.83 20.67 L 573.58 2.67 L 527.21 173.42 L 497.83 20.67 z" fill="#423d41"/>
<path d="M 573.58 2.67 L 633.33 173.33 L 527.21 173.42 L 573.58 2.67 z" fill="#5e5c61"/>
<path d="M 573.58 2.67 L 624.58 11.92 L 633.33 173.33 L 573.58 2.67 z" fill="#605e63"/>
<path d="M 624.58 11.92 L 651.5 3.67 L 633.33 173.33 L 624.58 11.92 z" fill="#1a1e1f"/>
<path d="M 651.5 3.67 L 766.67 162.67 L 633.33 173.33 L 651.5 3.67 z" fill="#363638"/>
<path d="M 766.67 162.67 L 849.58 195.67 L 769 251.67 L 766.67 162.67 z" fill="#413f44"/>
<path d="M 766.67 162.67 L 794.83 108.92 L 849.58 195.67 L 766.67 162.67 z" fill="#323035"/>
<path d="M 651.5 3.67 L 794.83 108.92 L 766.67 162.67 L 651.5 3.67 z" fill="#5c5c5e"/>
<path d="M 794.83 108.92 L 829.08 46.92 L 849.58 195.67 L 794.83 108.92 z" fill="#3e3b42"/>
<path d="M 829.08 46.92 L 991.58 206.92 L 849.58 195.67 L 829.08 46.92 z" fill="#313133"/>
<path d="M 802.58 1.67 L 794.83 108.92 L 829.08 46.92 L 802.58 1.67 z" fill="#322f38"/>
<path d="M 651.5 3.67 L 802.58 1.67 L 794.83 108.92 L 651.5 3.67 z" fill="#525055"/>
<path d="M 769 251.67 L 844.08 279.92 L 733.08 331.54 L 769 251.67 z" fill="#232426"/>
<path d="M 733.08 331.54 L 773.33 368.29 L 844.08 279.92 L 733.08 331.54 z" fill="#201f25"/>
<path d="M 773.33 368.29 L 844.08 279.92 L 851.08 382.92 L 773.33 368.29 z" fill="#2a2a2a"/>
<path d="M 772.83 368.29 L 850.58 382.92 L 831.83 431.17 L 772.83 368.29 z" fill="#58565b"/>
<path d="M 773.33 368.29 L 718.88 452.67 L 832.33 431.17 L 773.33 368.29 z" fill="#1d1e20"/>
<path d="M 718.88 452.67 L 689.17 540 L 735.08 519.92 L 718.88 452.67 z" fill="#241f23"/>
<path d="M 718.88 452.67 L 735.08 519.92 L 832.33 431.17 L 718.88 452.67 z" fill="#1f2022"/>
<path d="M 735.08 519.92 L 832.33 431.17 L 806.83 557.42 L 735.08 519.92 z" fill="#2d2b2e"/>
<path d="M 832.33 431.17 L 852.08 438.92 L 806.83 557.42 L 832.33 431.17 z" fill="#5e5c5f"/>
<path d="M 733.08 369.54 L 718.88 452.67 L 773.33 368.29 L 733.08 369.54 z" fill="#222224"/>
<path d="M 266.58 220.42 L 309.46 212.04 L 302.96 270.67 L 266.58 220.42 z" fill="#dbd1d2"/>
<path d="M 274.08 122.42 L 376.33 79.42 L 352.33 199.92 L 274.08 122.42 z" fill="#f0e2e2"/>
<path d="M 274.08 122.42 L 317.67 0 L 376.33 79.42 L 274.08 122.42 z" fill="#b5afb1"/>
<path d="M 238.33 57.67 L 317.67 0 L 274.08 122.42 L 238.33 57.67 z" fill="#1f1f21"/>
<path d="M 117.67 76 L 211.33 146.67 L 200.67 184.33 L 117.67 76 z" fill="#3b3a3f"/>
<path d="M 117.67 76 L 200.67 184.33 L 187.83 210 L 117.67 76 z" fill="#413c42"/>
<path d="M 200.67 184.33 L 211.33 146.67 L 266.58 220.42 L 200.67 184.33 z" fill="#878384"/>
<path d="M 187.83 210 L 200.67 184.33 L 266.58 220.42 L 187.83 210 z" fill="#888485"/>
<path d="M 211.33 146.67 L 274.08 122.42 L 266.58 220.42 L 211.33 146.67 z" fill="#1d1c21"/>
<path d="M 43.33 224.67 L 187.83 210 L 187.33 316.67 L 43.33 224.67 z" fill="#69646a"/>
<path d="M 43.33 224.67 L 187.33 316.67 L 175.5 359.33 L 43.33 224.67 z" fill="#6b666c"/>
<path d="M 43.33 224.67 L 4.33 402.33 L 175.5 359.33 L 43.33 224.67 z" fill="#827d83"/>
<path d="M 4.33 402.33 L 175.5 359.33 L 145 425.33 L 4.33 402.33 z" fill="#787379"/>
<path d="M 4.33 402.33 L 145 425.33 L 88.33 526.33 L 4.33 402.33 z" fill="#5e595f"/>
<path d="M 145 425.33 L 156.33 458.67 L 88.33 526.33 L 145 425.33 z" fill="#746f75"/>
<path d="M 145 425.33 L 156.33 458.67 L 198.17 421.5 L 145 425.33 z" fill="#635e64"/>
<path d="M 175.5 359.33 L 145 425.33 L 198.17 421.5 L 175.5 359.33 z" fill="#807b82"/>
<path d="M 156.33 458.67 L 198.17 421.5 L 194 482.5 L 156.33 458.67 z" fill="#77767c"/>
<path d="M 156.33 458.67 L 194 482.5 L 178 556.33 L 156.33 458.67 z" fill="#706e73"/>
<path d="M 88.33 526.33 L 156.33 458.67 L 178 556.33 L 88.33 526.33 z" fill="#878183"/>
<path d="M 178 556.33 L 216.33 515.17 L 194 482.5 L 178 556.33 z" fill="#303032"/>
<path d="M 178 556.33 L 192.33 580.33 L 216.33 515.17 L 178 556.33 z" fill="#272729"/>
<path d="M 88.33 526.33 L 136.67 569.67 L 178 556.33 L 88.33 526.33 z" fill="#69646a"/>
<path d="M 136.67 569.67 L 178 556.33 L 192.33 580.33 L 136.67 569.67 z" fill="#767177"/>
<path d="M 136.67 569.67 L 128 590.33 L 192.33 580.33 L 136.67 569.67 z" fill="#7a757b"/>
<path d="M 88.33 526.33 L 128 590.33 L 136.67 569.67 L 88.33 526.33 z" fill="#6f6a6e"/>
<path d="M 88.33 526.33 L 5.67 634.33 L 128 590.33 L 88.33 526.33 z" fill="#5d585e"/>
<path d="M 4.33 402.33 L 88.33 526.33 L 5.67 634.33 L 4.33 402.33 z" fill="#6c676d"/>
<path d="M 128 590.33 L 136.67 663.33 L 192.33 580.33 L 128 590.33 z" fill="#3e3c41"/>
<path d="M 192.33 580.33 L 136.67 663.33 L 219.67 614.67 L 192.33 580.33 z" fill="#757074"/>
<path d="M 219.67 614.67 L 136.67 663.33 L 183.33 683 L 219.67 614.67 z" fill="#2e2b32"/>
<path d="M 219.67 614.67 L 183.33 683 L 215.67 707 L 219.67 614.67 z" fill="#242426"/>
<path d="M 219.67 614.67 L 215.67 707 L 325.33 605.67 L 219.67 614.67 z" fill="#1d1e20"/>
<path d="M 5.67 634.33 L 128 590.33 L 79 672.33 L 5.67 634.33 z" fill="#cabec0"/>
<path d="M 5.67 634.33 L 79 672.33 L 69.67 681.33 L 5.67 634.33 z" fill="#e6dada"/>
<path d="M 128 590.33 L 79 672.33 L 136.67 663.33 L 128 590.33 z" fill="#cec4c5"/>
<path d="M 79 672.33 L 97.17 681.67 L 136.67 663.33 L 79 672.33 z" fill="#d5c9cb"/>
<path d="M 79 672.33 L 69.67 681.33 L 83.33 687.67 L 79 672.33 z" fill="#9c9492"/>
<path d="M 79 672.33 L 83.33 687.67 L 97.17 681.67 L 79 672.33 z" fill="#7f7a7e"/>
<path d="M 97.17 681.67 L 110.67 692.67 L 136.67 663.33 L 97.17 681.67 z" fill="#b7b3b4"/>
<path d="M 83.33 687.67 L 97.17 681.67 L 110.67 692.67 L 83.33 687.67 z" fill="#787377"/>
<path d="M 110.67 692.67 L 136.67 663.33 L 127.33 694 L 110.67 692.67 z" fill="#9f999b"/>
<path d="M 136.67 663.33 L 131.83 698.83 L 127.33 694 L 136.67 663.33 z" fill="#928d91"/>
<path d="M 136.67 663.33 L 183.33 683 L 131.83 698.83 L 136.67 663.33 z" fill="#77757a"/>
<path d="M 131.83 698.83 L 137.17 718.5 L 183.33 683 L 131.83 698.83 z" fill="#67666b"/>
<path d="M 183.33 683 L 137.17 718.5 L 162 760.83 L 183.33 683 z" fill="#7f7d82"/>
<path d="M 110.67 692.67 L 127.33 694 L 131.83 698.83 L 110.67 692.67 z" fill="#545358"/>
<path d="M 110.67 692.67 L 137.17 718.5 L 131.83 698.83 L 110.67 692.67 z" fill="#a3a1a2"/>
<path d="M 83.33 687.67 L 110.67 692.67 L 137.17 718.5 L 83.33 687.67 z" fill="#aca8a9"/>
<path d="M 83.33 687.67 L 144 802.83 L 137.17 718.5 L 83.33 687.67 z" fill="#9e989a"/>
<path d="M 137.17 718.5 L 162 760.83 L 144 802.83 L 137.17 718.5 z" fill="#46454a"/>
<path d="M 162 760.83 L 181.5 818.83 L 144 802.83 L 162 760.83 z" fill="#444247"/>
<path d="M 162 760.83 L 235.17 742.17 L 181.5 818.83 L 162 760.83 z" fill="#242529"/>
<path d="M 181.5 818.83 L 208.5 834.83 L 235.17 742.17 L 181.5 818.83 z" fill="#353338"/>
<path d="M 144 802.83 L 141.33 827.17 L 181.5 818.83 L 144 802.83 z" fill="#333136"/>
<path d="M 208.5 834.83 L 235.17 742.17 L 265.67 894.67 L 208.5 834.83 z" fill="#1d1e20"/>
<path d="M 215.67 707 L 325.33 605.67 L 359.46 641.17 L 215.67 707 z" fill="#1f2022"/>
<path d="M 215.67 707 L 235.17 742.17 L 359.46 641.17 L 215.67 707 z" fill="#201f25"/>
<path d="M 359.46 641.17 L 416.33 682.17 L 235.17 742.17 L 359.46 641.17 z" fill="#2b2c30"/>
<path d="M 483.17 723.33 L 469.67 968.33 L 302.67 918.67 L 483.17 723.33 z" fill="#645f65"/>
<path d="M 483.17 723.33 L 513.5 719 L 469.67 968.33 L 483.17 723.33 z" fill="#757076"/>
<path d="M 513.5 719 L 686.67 793.33 L 469.67 968.33 L 513.5 719 z" fill="#5e595f"/>
<path d="M 513.5 719 L 538.33 710.17 L 686.67 793.33 L 513.5 719 z" fill="#4c4a4f"/>
<path d="M 686.67 793.33 L 770.33 908.67 L 469.67 968.33 L 686.67 793.33 z" fill="#999395"/>
<path d="M 686.67 793.33 L 778.33 863 L 770.33 908.67 L 686.67 793.33 z" fill="#3c3a3f"/>
<path d="M 778.33 863 L 878.67 813.67 L 836 927.33 L 778.33 863 z" fill="#4c4a4f"/>
<path d="M 538.33 710.17 L 571.08 679.17 L 686.67 793.33 L 538.33 710.17 z" fill="#3d3b40"/>
<path d="M 571.08 679.17 L 659 682.33 L 686.67 793.33 L 571.08 679.17 z" fill="#2c2b31"/>
<path d="M 571.08 679.17 L 620.83 637.67 L 659 682.33 L 571.08 679.17 z" fill="#3c3a3f"/>
<path d="M 659 682.33 L 839 703.33 L 686.67 793.33 L 659 682.33 z" fill="#212026"/>
<path d="M 620.83 637.67 L 661.71 584.17 L 692.33 613 L 620.83 637.67 z" fill="#212123"/>
<path d="M 692.33 613 L 735.67 519 L 801 607.67 L 692.33 613 z" fill="#1f2022"/>
<path d="M 735.5 519.25 L 806.83 557.42 L 801 607.67 L 735.5 519.25 z" fill="#312e35"/>
<path d="M 806.83 557.42 L 851 597.67 L 801 607.67 L 806.83 557.42 z" fill="#343237"/>
<path d="M 801 607.67 L 851 597.67 L 859 646.33 L 801 607.67 z" fill="#242426"/>
<path d="M 801 607.67 L 859 646.33 L 839 703.33 L 801 607.67 z" fill="#464449"/>
<path d="M 661.71 584.17 L 689.17 540 L 692.33 613 L 661.71 584.17 z" fill="#212224"/>
<path d="M 689.17 540 L 735.08 519.92 L 692.33 613 L 689.17 540 z" fill="#212224"/>
<path d="M 769 251.67 L 849.58 195.67 L 844.08 279.92 L 769 251.67 z" fill="#252326"/>
<path d="M 849.58 195.67 L 929.83 271.67 L 844.08 279.92 L 849.58 195.67 z" fill="#242227"/>
<path d="M 849.58 195.67 L 991.58 206.92 L 929.83 271.67 L 849.58 195.67 z" fill="#2e2b32"/>
<path d="M 829.08 46.92 L 849.58 195.67 L 991.58 206.92 L 829.08 46.92 z" fill="#313133"/>
<path d="M 802.58 1.67 L 829.08 46.92 L 985.33 0.67 L 802.58 1.67 z" fill="#2c2a2f"/>
<path d="M 829.08 46.92 L 985.33 0.67 L 991.58 206.92 L 829.08 46.92 z" fill="#29292b"/>
<path d="M 844.08 279.92 L 851.08 382.92 L 929.83 271.67 L 844.08 279.92 z" fill="#36333a"/>
<path d="M 929.83 271.67 L 991.58 206.92 L 987.83 604.17 L 929.83 271.67 z" fill="#333039"/>
<path d="M 852.08 438.92 L 929.83 271.67 L 987.83 604.17 L 852.08 438.92 z" fill="#2b2b2d"/>
<path d="M 832.33 431.17 L 851.08 382.92 L 852.08 438.92 L 832.33 431.17 z" fill="#302d34"/>
<path d="M 851.08 382.92 L 929.83 271.67 L 852.08 438.92 L 851.08 382.92 z" fill="#2e2d33"/>
<path d="M 806.83 557.42 L 852.08 438.92 L 851 597.67 L 806.83 557.42 z" fill="#1f1e23"/>
<path d="M 852.08 438.92 L 987.83 604.17 L 851 597.67 L 852.08 438.92 z" fill="#272729"/>
<path d="M 851 597.67 L 987.83 604.17 L 916.33 627.67 L 851 597.67 z" fill="#2e2e30"/>
<path d="M 851 597.67 L 859 646.33 L 878.33 639.17 L 851 597.67 z" fill="#2d2c31"/>
<path d="M 851 597.67 L 878.33 639.17 L 916.33 627.67 L 851 597.67 z" fill="#232325"/>
<path d="M 916.33 627.67 L 948.33 671.17 L 987.83 604.17 L 916.33 627.67 z" fill="#272729"/>
<path d="M 878.33 639.17 L 916.33 627.67 L 948.33 671.17 L 878.33 639.17 z" fill="#2b2b2d"/>
<path d="M 948.33 671.17 L 987.83 604.17 L 973.83 681.17 L 948.33 671.17 z" fill="#2b2b2d"/>
<path d="M 948.33 671.17 L 912.83 703.17 L 973.83 681.17 L 948.33 671.17 z" fill="#5b565c"/>
<path d="M 878.33 639.17 L 912.83 703.17 L 948.33 671.17 L 878.33 639.17 z" fill="#58565b"/>
<path d="M 859 646.33 L 878.33 639.17 L 912.83 703.17 L 859 646.33 z" fill="#3c3c3e"/>
<path d="M 859 646.33 L 839 703.33 L 912.83 703.17 L 859 646.33 z" fill="#2f2d32"/>
<path d="M 839 703.33 L 878.67 813.67 L 912.83 703.17 L 839 703.33 z" fill="#3d3b40"/>
<path d="M 912.83 703.17 L 878.67 813.67 L 906.67 839 L 912.83 703.17 z" fill="#6e696f"/>
<path d="M 912.83 703.17 L 973.83 681.17 L 906.67 839 L 912.83 703.17 z" fill="#514f54"/>
<path d="M 686.67 793.33 L 839 703.33 L 778.33 863 L 686.67 793.33 z" fill="#464648"/>
<path d="M 839 703.33 L 778.33 863 L 878.67 813.67 L 839 703.33 z" fill="#303032"/>
<path d="M 906.67 839 L 973.83 681.17 L 979.83 974.67 L 906.67 839 z" fill="#858086"/>
<path d="M 987.83 604.17 L 973.83 681.17 L 979.83 974.67 L 987.83 604.17 z" fill="#847f85"/>
<path d="M 878.67 813.67 L 836 927.33 L 906.67 839 L 878.67 813.67 z" fill="#313035"/>
<path d="M 469.67 968.33 L 770.33 908.67 L 836 927.33 L 469.67 968.33 z" fill="#b3adad"/>
<path d="M 469.67 968.33 L 836 927.33 L 979.83 974.67 L 469.67 968.33 z" fill="#cdc3c4"/>
<path d="M 208.5 834.83 L 77.33 879.67 L 265.67 894.67 L 208.5 834.83 z" fill="#49474a"/>
<path d="M 77.33 879.67 L 10.83 974.67 L 265.67 894.67 L 77.33 879.67 z" fill="#343237"/>
<path d="M 265.67 894.67 L 10.83 974.67 L 302.67 918.67 L 265.67 894.67 z" fill="#59575c"/>
<path d="M 302.67 918.67 L 10.83 974.67 L 469.67 968.33 L 302.67 918.67 z" fill="#6c676d"/>
<path d="M 77.33 879.67 L 11.33 918.67 L 10.83 974.67 L 77.33 879.67 z" fill="#706b71"/>
<path d="M 83.33 687.67 L 77.33 879.67 L 144 802.83 L 83.33 687.67 z" fill="#948e90"/>
<path d="M 141.33 827.17 L 181.5 818.83 L 208.5 834.83 L 141.33 827.17 z" fill="#2b292e"/>
<path d="M 141.33 827.17 L 77.33 879.67 L 208.5 834.83 L 141.33 827.17 z" fill="#302d34"/>
<path d="M 144 802.83 L 77.33 879.67 L 141.33 827.17 L 144 802.83 z" fill="#544f55"/>
<path d="M 69.67 681.33 L 83.33 687.67 L 77.33 879.67 L 69.67 681.33 z" fill="#c7c2be"/>
<path d="M 69.67 681.33 L 11.33 918.67 L 77.33 879.67 L 69.67 681.33 z" fill="#a6a0a2"/>
<path d="M 5.67 634.33 L 69.67 681.33 L 11.33 918.67 L 5.67 634.33 z" fill="#d4cacb"/>
<path d="M 1.33 45 L 43.33 224.67 L 4.33 402.33 L 1.33 45 z" fill="#716c72"/>
<path d="M 1.33 45 L 117.67 76 L 43.33 224.67 L 1.33 45 z" fill="#59575c"/>
<path d="M 398.67 5.33 L 452.67 1 L 376.33 79.42 L 398.67 5.33 z" fill="#626065"/>
<path d="M 452.67 1 L 497.83 20.67 L 376.33 79.42 L 452.67 1 z" fill="#383339"/>
<path d="M 452.67 1 L 573.58 2.67 L 497.83 20.67 L 452.67 1 z" fill="#a7a1a3"/>
<path d="M 317.67 0 L 398.67 5.33 L 452.67 1 L 317.67 0 z" fill="#8c878b"/>
<path d="M 573.58 2.67 L 651.5 3.67 L 624.58 11.92 L 573.58 2.67 z" fill="#1e1c1f"/>
<path d="M 766.67 162.67 L 769 251.67 L 720.67 239.67 L 766.67 162.67 z" fill="#25262a"/>
<path d="M 720.67 239.67 L 719 285.33 L 769 251.67 L 720.67 239.67 z" fill="#1f1f21"/>
<path d="M 719 285.33 L 733.08 331.54 L 769 251.67 L 719 285.33 z" fill="#1f1e23"/>
<path d="M 720.67 239.67 L 688.67 285.33 L 719 285.33 L 720.67 239.67 z" fill="#6b666a"/>
<path d="M 672.67 267.67 L 688.67 285.33 L 720.67 239.67 L 672.67 267.67 z" fill="#8b868a"/>
<path d="M 638.33 257.92 L 672.67 267.67 L 663.33 283.54 L 638.33 257.92 z" fill="#242529"/>
<path d="M 672.67 267.67 L 663.33 283.54 L 684.83 287.79 L 672.67 267.67 z" fill="#6b6a6f"/>
<path d="M 638.33 257.92 L 620.46 274.29 L 639.58 281.54 L 638.33 257.92 z" fill="#39363d"/>
<path d="M 672.67 267.67 L 684.83 287.79 L 688.67 285.33 L 672.67 267.67 z" fill="#4b4a4f"/>
<path d="M 274.08 122.42 L 352.33 199.92 L 309.46 212.04 L 274.08 122.42 z" fill="#eee2e2"/>
<path d="M 375.08 281.17 L 380.33 287.92 L 367.08 287.42 L 375.08 281.17 z" fill="#8e8b92"/>
<path d="M 486.46 383.67 L 546.33 370.54 L 553 437.33 L 486.46 383.67 z" fill="#cec4c5"/>
<path d="M 583.46 382.54 L 631.08 326.29 L 718.88 452.67 L 583.46 382.54 z" fill="#b0aaac"/> -->
</svg>