<svg id="Layer_2" data-name="Layer 2" xmlns="http://www.w3.org/2000/svg" width="991.58" height="974.67" viewBox="0 0 991.58 974.67">
  <title>face2</title>
  <polygon points="591.67 251.67 640.33 246.33 638.33 257.92 591.67 251.67" fill="#2a2a2c"/>
  <polygon points="640.33 246.33 672.67 267.67 638.33 257.92 640.33 246.33" fill="#312c32"/>
  <polygon points="638.33 257.96 663.33 283.58 639.58 281.58 638.33 257.96" fill="#777278"/>
  <polygon points="663.33 283.54 684.83 287.79 675.08 294.54 663.33 283.54" fill="#545358"/>
  <polygon points="663.33 283.54 675.08 294.54 658.83 300.67 663.33 283.54" fill="#777578"/>
  <polygon points="684.83 287.79 704.67 314.17 675.08 294.54 684.83 287.79" fill="#a9a5a6"/>
  <polygon points="675.08 294.54 704.67 314.17 658.83 300.67 675.08 294.54" fill="#a9a0a3"/>
  <polygon points="658.83 300.67 704.67 314.17 631.08 326.29 658.83 300.67" fill="#d5cbcc"/>
  <polygon points="633.33 308.79 658.83 300.67 631.08 326.29 633.33 308.79" fill="#838182"/>
  <polygon points="631.08 326.29 704.67 314.17 733.08 369.54 631.08 326.29" fill="#bcb6b6"/>
  <polygon points="704.67 314.17 733.08 331.54 733.08 369.54 704.67 314.17" fill="#847f83"/>
  <polygon points="684.83 287.79 688.67 285.33 704.67 314.17 684.83 287.79" fill="#817d7e"/>
  <polygon points="688.67 285.33 719 285.33 704.67 314.17 688.67 285.33" fill="#6e6a6b"/>
  <polygon points="719 285.33 733.08 331.54 704.67 314.17 719 285.33" fill="#464449"/>
  <polygon points="733.08 331.54 773.33 368.29 733.08 369.54 733.08 331.54" fill="#232325"/>
  <polygon points="631.08 326.29 733.08 369.54 718.88 452.67 631.08 326.29" fill="#cac0c1"/>
  <polygon points="569.58 362.54 631.08 326.29 583.46 382.54 569.58 362.54" fill="#7e797f"/>
  <polygon points="583.46 382.54 718.88 452.67 620.83 470.83 583.46 382.54" fill="#bbb5b5"/>
  <polygon points="583.46 382.54 620.83 470.83 565.5 445.33 583.46 382.54" fill="#aaa4a4"/>
  <polygon points="620.83 470.83 718.88 452.67 689.17 540 620.83 470.83" fill="#cdc3c4"/>
  <polygon points="620.83 470.83 689.17 540 602.17 551.83 620.83 470.83" fill="#d0c6c7"/>
  <polygon points="620.83 470.83 602.17 551.83 558.17 494 620.83 470.83" fill="#cac0c1"/>
  <polygon points="565.5 445.33 620.83 470.83 559.5 471.67 565.5 445.33" fill="#969092"/>
  <polygon points="559.5 471.67 620.83 470.83 558.17 494 559.5 471.67" fill="#a6a0a2"/>
  <polygon points="583.46 382.54 553 437.33 565.5 445.33 583.46 382.54" fill="#b4aeb2"/>
  <polygon points="553 437.33 565.5 445.33 559.5 471.67 555.67 474 553 437.33" fill="#dcd2d3"/>
  <polygon points="555.67 474 559.5 471.67 558.17 494 555.67 474" fill="#c5bfc1"/>
  <polygon points="553 437.33 532.5 477.83 555.67 474 553 437.33" fill="#d8cccc"/>
  <polygon points="532.5 477.83 555.67 474 558.17 494 532.5 477.83" fill="#cfc5c6"/>
  <polygon points="496.5 456.58 553 437.33 532.5 477.83 496.5 456.58" fill="#d9cdcf"/>
  <polygon points="496.5 456.58 532.5 477.83 501.42 484.58 496.5 456.58" fill="#bcb6b6"/>
  <polygon points="496.5 456.58 477.58 484.58 501.42 484.58 496.5 456.58" fill="#ccc2c3"/>
  <polygon points="501.42 484.58 496.92 492.75 532.5 477.83 501.42 484.58" fill="#beb8b8"/>
  <polygon points="477.58 484.58 501.42 484.58 496.92 492.75 477.58 484.58" fill="#b4aeb0"/>
  <polygon points="477.58 484.58 496.92 492.75 470.17 553.58 477.58 484.58" fill="#c4bebe"/>
  <polygon points="496.92 492.75 503.17 553.58 470.17 553.58 496.92 492.75" fill="#9c9698"/>
  <polygon points="496.92 492.75 519.08 548.25 503.17 553.58 496.92 492.75" fill="#c2bcbe"/>
  <polygon points="496.92 492.75 532.5 477.83 519.08 548.25 496.92 492.75" fill="#cac0c1"/>
  <polygon points="519.08 548.25 529.33 548.92 532.5 477.83 519.08 548.25" fill="#cbc1c2"/>
  <polygon points="532.5 477.83 558.17 494 529.33 548.92 532.5 477.83" fill="#ccc2c3"/>
  <polygon points="529.33 548.92 572.67 563.92 558.17 494 529.33 548.92" fill="#c8bebf"/>
  <polygon points="558.17 494 581.83 560.83 572.67 563.92 558.17 494" fill="#cac0c1"/>
  <polygon points="558.17 494 602.17 551.83 581.83 560.83 558.17 494" fill="#c2bcbe"/>
  <polygon points="529.33 548.92 572.67 563.92 562.25 569.67 529.33 548.92" fill="#544f55"/>
  <polygon points="529.33 548.92 562.25 569.67 532.92 561.33 529.33 548.92" fill="#787379"/>
  <polygon points="519.08 548.25 529.33 548.92 532.92 561.33 519.08 548.25" fill="#8f8b8c"/>
  <polygon points="519.08 548.25 507.42 575.42 532.92 561.33 519.08 548.25" fill="#6d686e"/>
  <polygon points="507.42 575.42 532.92 561.33 539.25 580.58 507.42 575.42" fill="#7a7579"/>
  <polygon points="532.92 561.33 562.25 569.67 539.25 580.58 532.92 561.33" fill="#aea8aa"/>
  <polygon points="562.25 569.67 557.17 581.92 539.25 580.58 562.25 569.67" fill="#bbb5b7"/>
  <polygon points="562.25 569.67 572.67 563.92 557.17 581.92 562.25 569.67" fill="#938d8f"/>
  <polygon points="572.67 563.92 581.83 560.83 557.17 581.92 572.67 563.92" fill="#756f71"/>
  <polygon points="557.17 581.92 581.83 560.83 620.83 637.67 557.17 581.92" fill="#bcb2b3"/>
  <polygon points="539.25 580.58 557.17 581.92 542.5 592.42 539.25 580.58" fill="#8c8688"/>
  <polygon points="542.5 592.42 557.17 581.92 620.83 637.67 542.5 592.42" fill="#bcb6b6"/>
  <polygon points="542.5 592.42 571.08 679.17 620.83 637.67 542.5 592.42" fill="#c3bdbd"/>
  <polygon points="539.25 580.58 525.79 602.54 542.5 592.42 539.25 580.58" fill="#a09599"/>
  <polygon points="507.42 575.42 539.25 580.58 525.79 602.54 507.42 575.42" fill="#989294"/>
  <polygon points="507.42 575.42 496.08 603.67 525.79 602.54 507.42 575.42" fill="#b0aaac"/>
  <polygon points="503.17 553.58 507.42 575.42 519.08 548.25 503.17 553.58" fill="#7d787c"/>
  <polygon points="486.67 560.83 503.17 553.58 507.42 575.42 486.67 560.83" fill="#787178"/>
  <polygon points="486.67 560.83 490.21 585.29 507.42 575.42 486.67 560.83" fill="#6f6a70"/>
  <polygon points="470.17 553.58 503.17 553.58 486.67 560.83 470.17 553.58" fill="#c4bbbe"/>
  <polygon points="470.17 553.58 466.33 561.83 486.67 560.83 470.17 553.58" fill="#a79ea3"/>
  <polygon points="446.46 556.42 470.17 553.58 466.33 561.83 446.46 556.42" fill="#d8cecd"/>
  <polygon points="639.58 281.54 658.83 300.67 663.33 283.54 639.58 281.54" fill="#c3c1c4"/>
  <polygon points="639.58 281.54 638.33 295.58 658.83 300.67 639.58 281.54" fill="#c5bfc1"/>
  <polygon points="638.33 295.58 633.33 308.79 658.83 300.67 638.33 295.58" fill="#464044"/>
  <polygon points="605.58 310.92 633.33 308.79 631.08 326.29 605.58 310.92" fill="#6f6d70"/>
  <polygon points="605.58 310.92 618.25 298.42 633.33 308.79 605.58 310.92" fill="#353338"/>
  <polygon points="618.25 298.42 638.33 295.58 633.33 308.79 618.25 298.42" fill="#5c5a5d"/>
  <polygon points="626.08 282.83 639.58 281.54 638.33 295.58 626.08 282.83" fill="#444245"/>
  <polygon points="619.08 287.79 626.08 282.83 638.33 295.58 619.08 287.79" fill="#4d4b4e"/>
  <polygon points="619.08 287.79 618.25 298.42 638.33 295.58 619.08 287.79" fill="#444446"/>
  <polygon points="620.46 274.29 626.08 282.83 639.58 281.54 620.46 274.29" fill="#2a282b"/>
  <polygon points="620.46 274.29 619.08 287.79 626.08 282.83 620.46 274.29" fill="#2f2d30"/>
  <polygon points="613.08 282.83 619.08 287.79 620.46 274.29 613.08 282.83" fill="#1b191c"/>
  <polygon points="612.75 272 620.46 274.29 613.08 282.83 612.75 272" fill="#252527"/>
  <polygon points="612.75 272 597.21 274.29 613.08 282.83 612.75 272" fill="#5d5d5f"/>
  <polygon points="591.67 251.67 612.75 272 638.33 257.92 591.67 251.67" fill="#232325"/>
  <polygon points="612.75 272 620.46 274.29 638.33 257.92 612.75 272" fill="#2a272e"/>
  <polygon points="591.67 251.67 597.21 274.29 612.75 272 591.67 251.67" fill="#28272d"/>
  <polygon points="591.67 251.67 565.33 266.83 597.21 274.29 591.67 251.67" fill="#2d2a33"/>
  <polygon points="565.33 266.83 573.92 295.38 597.21 274.29 565.33 266.83" fill="#353336"/>
  <polygon points="597.21 286.21 597.21 274.29 573.92 295.38 597.21 286.21" fill="#818085"/>
  <polygon points="597.21 274.29 613.08 282.83 597.21 286.21 597.21 274.29" fill="#29282d"/>
  <polygon points="597.21 286.21 600.38 295.79 613.08 282.83 597.21 286.21" fill="#4e4d52"/>
  <polygon points="600.38 295.79 618.25 298.42 613.08 282.83 600.38 295.79" fill="#3a383b"/>
  <polygon points="613.08 282.83 619.08 287.79 618.25 298.42 613.08 282.83" fill="#424043"/>
  <polygon points="600.38 295.79 605.58 310.92 618.25 298.42 600.38 295.79" fill="#4b494e"/>
  <polygon points="600.38 295.79 583.54 307.88 605.58 310.92 600.38 295.79" fill="#4b494e"/>
  <polygon points="583.54 307.88 569.58 362.54 605.58 310.92 583.54 307.88" fill="#555358"/>
  <polygon points="605.58 310.92 569.58 362.54 631.08 326.29 605.58 310.92" fill="#5c5a5f"/>
  <polygon points="564.08 307.75 583.54 307.88 569.58 362.54 564.08 307.75" fill="#4b494e"/>
  <polygon points="528 317.75 564.08 307.75 569.58 362.54 528 317.75" fill="#555259"/>
  <polygon points="573.92 295.38 564.08 307.75 583.54 307.88 573.92 295.38" fill="#3a383b"/>
  <polygon points="573.92 295.38 600.38 295.79 583.54 307.88 573.92 295.38" fill="#39373a"/>
  <polygon points="573.92 295.38 597.21 286.21 600.38 295.79 573.92 295.38" fill="#79787d"/>
  <polygon points="553.92 303.58 573.92 295.38 564.08 307.75 553.92 303.58" fill="#2c2c2e"/>
  <polygon points="539.92 287.58 573.92 295.38 553.92 303.58 539.92 287.58" fill="#454346"/>
  <polygon points="539.92 287.58 565.33 266.83 573.92 295.38 539.92 287.58" fill="#2b282f"/>
  <polygon points="528.5 281.58 539.92 287.58 565.33 266.83 528.5 281.58" fill="#514f54"/>
  <polygon points="528.5 281.58 528 317.75 539.92 287.58 528.5 281.58" fill="#767175"/>
  <polygon points="539.92 287.58 528 317.75 553.92 303.58 539.92 287.58" fill="#48464b"/>
  <polygon points="553.92 303.58 564.08 307.75 528 317.75 553.92 303.58" fill="#49474c"/>
  <polygon points="515.83 248.67 528.5 281.58 565.33 266.83 515.83 248.67" fill="#b2acae"/>
  <polygon points="515.83 248.67 478.5 299.75 528.5 281.58 515.83 248.67" fill="#b6afb6"/>
  <polygon points="515.83 248.67 573.75 238.83 565.33 266.83 515.83 248.67" fill="#726d73"/>
  <polygon points="573.75 238.83 591.67 251.67 565.33 266.83 573.75 238.83" fill="#656368"/>
  <polygon points="573.75 238.83 642 215 591.67 251.67 573.75 238.83" fill="#898488"/>
  <polygon points="633.33 173.33 573.75 238.83 642 215 633.33 173.33" fill="#666167"/>
  <polygon points="527.21 173.42 633.33 173.33 573.75 238.83 527.21 173.42" fill="#302f34"/>
  <polygon points="527.21 173.42 515.83 248.67 573.75 238.83 527.21 173.42" fill="#2a2b2d"/>
  <polygon points="527.21 173.42 482.46 221.67 515.83 248.67 527.21 173.42" fill="#414141"/>
  <polygon points="463.58 201.54 482.46 221.67 527.21 173.42 463.58 201.54" fill="#29282e"/>
  <polygon points="421.71 170.92 463.58 201.54 527.21 173.42 421.71 170.92" fill="#626264"/>
  <polygon points="421.71 170.92 425.21 219.42 463.58 201.54 421.71 170.92" fill="#b4aeb0"/>
  <polygon points="425.21 219.42 463.58 201.54 482.46 221.67 425.21 219.42" fill="#aea7ae"/>
  <polygon points="425.21 219.42 450.33 266.29 482.46 221.67 425.21 219.42" fill="#c6bcbd"/>
  <polygon points="482.46 221.67 450.33 266.29 515.83 248.67 482.46 221.67" fill="#b4acac"/>
  <polygon points="450.33 266.29 478.5 299.75 515.83 248.67 450.33 266.29" fill="#d0c6c7"/>
  <polygon points="450.33 266.29 448.33 301.54 478.5 299.75 450.33 266.29" fill="#ebdfdf"/>
  <polygon points="448.33 301.54 467.96 327.79 478.5 299.75 448.33 301.54" fill="#f3e5e5"/>
  <polygon points="448.33 301.54 445.58 324.79 467.96 327.79 448.33 301.54" fill="#e6dada"/>
  <polygon points="467.96 327.79 486.46 383.67 528 317.75 467.96 327.79" fill="#d9cdcf"/>
  <polygon points="478.5 299.75 528 317.75 467.96 327.79 478.5 299.75" fill="#d7cbcb"/>
  <polygon points="478.5 299.75 528.5 281.58 528 317.75 478.5 299.75" fill="#d5cbcc"/>
  <polygon points="440.08 306.92 448.33 301.54 445.58 324.79 440.08 306.92" fill="#dbcfcf"/>
  <polygon points="438.21 283.54 448.33 301.54 440.08 306.92 438.21 283.54" fill="#a2979b"/>
  <polygon points="438.21 283.54 450.33 266.29 448.33 301.54 438.21 283.54" fill="#b8b0ae"/>
  <polygon points="431.21 260.92 438.21 283.54 450.33 266.29 431.21 260.92" fill="#bdb4b7"/>
  <polygon points="425.21 219.42 431.21 260.92 450.33 266.29 425.21 219.42" fill="#b0aaaa"/>
  <polygon points="425.21 219.42 419.08 249.67 431.21 260.92 425.21 219.42" fill="#8e8a8b"/>
  <polygon points="419.08 249.67 406.46 255.79 431.21 260.92 419.08 249.67" fill="#868185"/>
  <polygon points="406.46 255.79 428.96 288.04 431.21 260.92 406.46 255.79" fill="#4d4b50"/>
  <polygon points="406.46 255.79 404.46 293.04 428.96 288.04 406.46 255.79" fill="#535156"/>
  <polygon points="396.33 236.92 425.21 219.42 419.08 249.67 396.33 236.92" fill="#878288"/>
  <polygon points="396.33 236.92 406.46 255.79 419.08 249.67 396.33 236.92" fill="#858388"/>
  <polygon points="396.33 236.92 384.71 250.54 406.46 255.79 396.33 236.92" fill="#5f5e63"/>
  <polygon points="384.46 228.42 384.71 250.54 396.33 236.92 384.46 228.42" fill="#8f8a8e"/>
  <polygon points="384.46 228.42 425.21 219.42 396.33 236.92 384.46 228.42" fill="#676165"/>
  <polygon points="384.46 228.42 368.33 250.04 384.71 250.54 384.46 228.42" fill="#625f66"/>
  <polygon points="352.33 199.92 368.33 250.04 384.46 228.42 352.33 199.92" fill="#a7a1a3"/>
  <polygon points="352.33 199.92 421.71 170.92 384.46 228.42 352.33 199.92" fill="#d3c8c6"/>
  <polygon points="421.71 170.92 384.46 228.42 425.21 219.42 421.71 170.92" fill="#c8c0c0"/>
  <polygon points="352.33 199.92 325.08 252.42 368.33 250.04 352.33 199.92" fill="#969293"/>
  <polygon points="309.46 212.04 352.33 199.92 325.08 252.42 309.46 212.04" fill="#d2c7cb"/>
  <polygon points="309.46 212.04 302.96 270.67 325.08 252.42 309.46 212.04" fill="#a49e9e"/>
  <polygon points="368.33 250.04 370.33 268.79 384.71 250.54 368.33 250.04" fill="#2e2d32"/>
  <polygon points="370.33 268.79 384.71 250.54 382.33 273.92 370.33 268.79" fill="#484349"/>
  <polygon points="368.33 250.04 364.83 270.04 370.33 268.79 368.33 250.04" fill="#35393c"/>
  <polygon points="368.33 250.04 357.46 269.42 364.83 270.04 368.33 250.04" fill="#333136"/>
  <polygon points="364.83 270.04 359.46 281.79 375.08 281.17 364.83 270.04" fill="#16131a"/>
  <polygon points="364.83 270.04 370.33 268.79 375.08 281.17 364.83 270.04" fill="#28272c"/>
  <polygon points="370.33 268.79 375.08 281.17 382.33 273.92 370.33 268.79" fill="#58565b"/>
  <polygon points="382.33 273.92 375.08 281.17 388.71 279.54 382.33 273.92" fill="#575256"/>
  <polygon points="382.33 273.92 391.83 270.17 388.71 279.54 382.33 273.92" fill="#312f34"/>
  <polygon points="384.71 250.54 391.83 270.17 382.33 273.92 384.71 250.54" fill="#3b393e"/>
  <polygon points="384.71 250.54 391.83 270.17 406.46 255.79 384.71 250.54" fill="#3b3a3f"/>
  <polygon points="391.83 270.17 404.46 293.04 406.46 255.79 391.83 270.17" fill="#343235"/>
  <polygon points="388.71 279.54 391.83 270.17 404.46 293.04 388.71 279.54" fill="#888387"/>
  <polygon points="359.46 281.79 367.08 287.42 375.08 281.17 359.46 281.79" fill="#545158"/>
  <polygon points="359.46 281.79 359.46 294.54 367.08 287.42 359.46 281.79" fill="#6c6970"/>
  <polygon points="367.08 287.42 359.46 294.54 370.08 296.29 367.08 287.42" fill="#47444b"/>
  <polygon points="367.08 287.42 380.33 287.92 370.08 296.29 367.08 287.42" fill="#838087"/>
  <polygon points="375.08 281.17 388.71 279.54 380.33 287.92 375.08 281.17" fill="#908b8f"/>
  <polygon points="388.71 279.54 388.58 288.29 380.33 287.92 388.71 279.54" fill="#353034"/>
  <polygon points="380.33 287.92 384.71 294.54 370.08 296.29 380.33 287.92" fill="#2e2b32"/>
  <polygon points="388.71 279.54 388.58 288.29 404.46 293.04 388.71 279.54" fill="#878286"/>
  <polygon points="404.46 293.04 428.96 288.04 421.96 304.92 404.46 293.04" fill="#686369"/>
  <polygon points="404.46 293.04 406.33 315.29 421.96 304.92 404.46 293.04" fill="#68666b"/>
  <polygon points="428.96 288.04 421.96 304.92 440.08 306.92 428.96 288.04" fill="#8b898a"/>
  <polygon points="428.96 288.04 438.21 283.54 431.21 260.92 428.96 288.04" fill="#69646a"/>
  <polygon points="428.96 288.04 438.21 283.54 440.08 306.92 428.96 288.04" fill="#666165"/>
  <polygon points="266.58 220.42 273.21 272.79 302.96 270.67 266.58 220.42" fill="#9e979e"/>
  <polygon points="273.21 272.79 275.33 287.54 302.96 270.67 273.21 272.79" fill="#928c8e"/>
  <polygon points="275.33 287.54 302.96 270.67 314.46 299.54 275.33 287.54" fill="#7d787e"/>
  <polygon points="302.96 270.67 322.58 282.29 314.46 299.54 302.96 270.67" fill="#575258"/>
  <polygon points="322.58 282.29 336.21 290.42 314.46 299.54 322.58 282.29" fill="#a7a1a3"/>
  <polygon points="314.46 299.54 321.96 314.17 336.21 290.42 314.46 299.54" fill="#d7cdcc"/>
  <polygon points="302.96 270.67 317.83 267.92 322.58 282.29 302.96 270.67" fill="#4d4b50"/>
  <polygon points="302.96 270.67 325.08 252.42 317.83 267.92 302.96 270.67" fill="#363439"/>
  <polygon points="325.08 252.42 340.46 269.42 317.83 267.92 325.08 252.42" fill="#3c3b40"/>
  <polygon points="317.83 267.92 330.08 277.67 340.46 269.42 317.83 267.92" fill="#5f5e63"/>
  <polygon points="317.83 267.92 322.58 282.29 330.08 277.67 317.83 267.92" fill="#39383d"/>
  <polygon points="322.58 282.29 330.08 277.67 336.21 290.42 322.58 282.29" fill="#afa9ab"/>
  <polygon points="330.08 277.67 340.46 269.42 349.08 279.17 330.08 277.67" fill="#ccc1c5"/>
  <polygon points="330.08 277.67 349.08 279.17 336.21 290.42 330.08 277.67" fill="#daced2"/>
  <polygon points="336.21 290.42 349.08 279.17 351.46 287.29 336.21 290.42" fill="#776d75"/>
  <polygon points="325.08 252.42 346.71 266.42 340.46 269.42 325.08 252.42" fill="#2e2d32"/>
  <polygon points="340.46 269.42 346.71 266.42 349.08 279.17 340.46 269.42" fill="#5a5154"/>
  <polygon points="346.71 266.42 357.46 269.42 349.08 279.17 346.71 266.42" fill="#929095"/>
  <polygon points="349.08 279.17 357.46 269.42 359.46 281.79 349.08 279.17" fill="#6b696e"/>
  <polygon points="349.08 279.17 359.46 281.79 351.46 287.29 349.08 279.17" fill="#615e65"/>
  <polygon points="357.46 269.42 364.83 270.04 359.46 281.79 357.46 269.42" fill="#2a282d"/>
  <polygon points="325.08 252.42 368.33 250.04 346.71 266.42 325.08 252.42" fill="#252328"/>
  <polygon points="368.33 250.04 346.71 266.42 357.46 269.42 368.33 250.04" fill="#222025"/>
  <polygon points="336.21 290.42 343.21 294.54 351.46 287.29 336.21 290.42" fill="#d8cdd1"/>
  <polygon points="336.21 290.42 343.21 294.54 321.96 314.17 336.21 290.42" fill="#a8a2a4"/>
  <polygon points="321.96 314.17 352.08 300.54 343.21 294.54 321.96 314.17" fill="#827c7e"/>
  <polygon points="321.96 314.17 345.96 326.29 352.08 300.54 321.96 314.17" fill="#cec4c5"/>
  <polygon points="343.21 294.54 351.46 287.29 352.08 300.54 343.21 294.54" fill="#c1bcc0"/>
  <polygon points="351.46 287.29 359.46 294.54 352.08 300.54 351.46 287.29" fill="#2e292d"/>
  <polygon points="351.46 287.29 359.46 281.79 359.46 294.54 351.46 287.29" fill="#5a575e"/>
  <polygon points="352.08 300.54 359.46 294.54 368.33 304.42 352.08 300.54" fill="#989397"/>
  <polygon points="380.33 287.92 384.71 294.54 388.58 288.29 380.33 287.92" fill="#696468"/>
  <polygon points="370.08 296.29 368.33 304.42 384.71 294.54 370.08 296.29" fill="#828085"/>
  <polygon points="359.46 294.54 370.08 296.29 368.33 304.42 359.46 294.54" fill="#615f62"/>
  <polygon points="352.08 300.54 368.33 304.42 345.96 326.29 352.08 300.54" fill="#a6a0a2"/>
  <polygon points="345.96 326.29 368.33 304.42 381.96 321.42 345.96 326.29" fill="#9b9798"/>
  <polygon points="345.96 326.29 381.96 321.42 402.08 343.54 345.96 326.29" fill="#868187"/>
  <polygon points="345.96 326.29 323.46 355.42 402.08 343.54 345.96 326.29" fill="#ccc0c2"/>
  <polygon points="321.96 314.17 323.46 355.42 345.96 326.29 321.96 314.17" fill="#e3d7d7"/>
  <polygon points="270.58 323.92 321.96 314.17 323.46 355.42 270.58 323.92" fill="#e4d8d8"/>
  <polygon points="255.46 340.17 270.58 323.92 323.46 355.42 255.46 340.17" fill="#d5d0cd"/>
  <polygon points="255.46 340.17 248.21 379.54 323.46 355.42 255.46 340.17" fill="#eadede"/>
  <polygon points="323.46 355.42 402.08 343.54 421.96 359.54 323.46 355.42" fill="#b5afb1"/>
  <polygon points="368.33 304.42 384.71 294.54 394.96 304.54 368.33 304.42" fill="#69646a"/>
  <polygon points="368.33 304.42 394.96 304.54 381.96 321.42 368.33 304.42" fill="#726d73"/>
  <polygon points="394.96 304.54 406.33 315.29 381.96 321.42 394.96 304.54" fill="#6e696f"/>
  <polygon points="381.96 321.42 406.33 315.29 402.08 343.54 381.96 321.42" fill="#757074"/>
  <polygon points="406.33 315.29 445.58 324.79 402.08 343.54 406.33 315.29" fill="#999395"/>
  <polygon points="394.96 304.54 404.46 293.04 406.33 315.29 394.96 304.54" fill="#727075"/>
  <polygon points="388.58 288.29 394.96 304.54 404.46 293.04 388.58 288.29" fill="#645f65"/>
  <polygon points="388.58 288.29 384.71 294.54 394.96 304.54 388.58 288.29" fill="#676268"/>
  <polygon points="421.96 304.92 406.33 315.29 445.58 324.79 421.96 304.92" fill="#8a8687"/>
  <polygon points="421.96 304.92 440.08 306.92 445.58 324.79 421.96 304.92" fill="#c3bbbb"/>
  <polygon points="402.08 343.54 421.96 359.54 445.58 324.79 402.08 343.54" fill="#d2cac8"/>
  <polygon points="445.58 324.79 421.96 359.54 439.71 366.79 445.58 324.79" fill="#ece0e0"/>
  <polygon points="445.58 324.79 467.96 327.79 439.71 366.79 445.58 324.79" fill="#eee2e2"/>
  <polygon points="467.96 327.79 439.71 366.79 486.46 383.67 467.96 327.79" fill="#efe3e3"/>
  <polygon points="248.21 379.54 254.83 428.79 323.46 355.42 248.21 379.54" fill="#e6dada"/>
  <polygon points="254.83 428.79 262.58 472.67 323.46 355.42 254.83 428.79" fill="#e1d5d7"/>
  <polygon points="323.46 355.42 421.96 359.54 423.83 464.04 323.46 355.42" fill="#eadede"/>
  <polygon points="423.83 464.04 452.58 440.29 433.33 476.42 423.83 464.04" fill="#efe1e1"/>
  <polygon points="433.33 476.42 460.58 478.79 452.58 440.29 433.33 476.42" fill="#ebdfdf"/>
  <polygon points="452.58 440.29 496.5 456.58 460.58 478.79 452.58 440.29" fill="#e8dcdc"/>
  <polygon points="460.58 478.79 496.5 456.58 477.58 484.58 460.58 478.79" fill="#d9cfd0"/>
  <polygon points="460.58 478.79 470.17 553.58 477.58 484.58 460.58 478.79" fill="#e7dbdb"/>
  <polygon points="460.58 478.79 446.46 556.42 470.17 553.58 460.58 478.79" fill="#e8dcdc"/>
  <polygon points="433.33 476.42 460.58 478.79 446.46 556.42 433.33 476.42" fill="#ede1e1"/>
  <polygon points="446.46 556.42 464.96 571.42 466.33 561.83 446.46 556.42" fill="#989292"/>
  <polygon points="446.46 556.42 443.08 572.42 464.96 571.42 446.46 556.42" fill="#958e95"/>
  <polygon points="430.71 560.92 446.46 556.42 443.08 572.42 430.71 560.92" fill="#b8afb2"/>
  <polygon points="430.71 560.92 424.33 576.79 443.08 572.42 430.71 560.92" fill="#cec6c6"/>
  <polygon points="414.08 558.79 430.71 560.92 424.33 576.79 414.08 558.79" fill="#847a7b"/>
  <polygon points="393.96 553.79 414.08 558.79 424.33 576.79 393.96 553.79" fill="#6e676e"/>
  <polygon points="424.33 576.79 443.08 572.42 446.58 590.42 424.33 576.79" fill="#ddd2d0"/>
  <polygon points="393.96 553.79 359.46 641.17 424.33 576.79 393.96 553.79" fill="#e5d9d9"/>
  <polygon points="424.33 576.79 359.46 641.17 446.58 590.42 424.33 576.79" fill="#e3d7d7"/>
  <polygon points="446.58 590.42 416.33 682.17 359.46 641.17 446.58 590.42" fill="#ddd1d3"/>
  <polygon points="446.58 590.42 465.33 598.67 416.33 682.17 446.58 590.42" fill="#d3c7c9"/>
  <polygon points="446.58 590.42 464.96 571.42 465.33 598.67 446.58 590.42" fill="#ded2d4"/>
  <polygon points="443.08 572.42 464.96 571.42 446.58 590.42 443.08 572.42" fill="#d9cfce"/>
  <polygon points="464.96 571.42 490.21 585.29 465.33 598.67 464.96 571.42" fill="#9f9596"/>
  <polygon points="465.33 598.67 490.21 585.29 496.08 603.67 465.33 598.67" fill="#b9b3b5"/>
  <polygon points="490.21 585.29 507.42 575.42 496.08 603.67 490.21 585.29" fill="#726e6f"/>
  <polygon points="486.67 560.83 464.96 571.42 490.21 585.29 486.67 560.83" fill="#7e797d"/>
  <polygon points="466.33 561.83 464.96 571.42 486.67 560.83 466.33 561.83" fill="#7e787c"/>
  <polygon points="528 317.75 546.33 370.54 486.46 383.67 528 317.75" fill="#c3b9ba"/>
  <polygon points="528 317.75 569.58 362.54 546.33 370.54 528 317.75" fill="#bbb5b7"/>
  <polygon points="569.58 362.54 546.33 370.54 583.46 382.54 569.58 362.54" fill="#bcb6ba"/>
  <polygon points="546.33 370.54 553 437.33 583.46 382.54 546.33 370.54" fill="#cfc3c5"/>
  <polygon points="486.46 383.67 496.5 456.58 553 437.33 486.46 383.67" fill="#ded2d2"/>
  <polygon points="486.46 383.67 452.58 440.29 496.5 456.58 486.46 383.67" fill="#ece0e0"/>
  <polygon points="444.46 388.54 423.83 464.04 452.58 440.29 444.46 388.54" fill="#f3e5e5"/>
  <polygon points="444.46 388.54 486.46 383.67 452.58 440.29 444.46 388.54" fill="#efe3e3"/>
  <polygon points="439.71 366.79 444.46 388.54 486.46 383.67 439.71 366.79" fill="#f2e4e4"/>
  <polygon points="421.96 359.54 444.46 388.54 439.71 366.79 421.96 359.54" fill="#f4e6e6"/>
  <polygon points="421.96 359.54 444.46 388.54 423.83 464.04 421.96 359.54" fill="#f4e6e5"/>
  <polygon points="187.83 210 266.58 220.42 273.21 272.79 187.83 210" fill="#272729"/>
  <polygon points="187.83 210 187.33 316.67 273.21 272.79 187.83 210" fill="#535154"/>
  <polygon points="187.33 316.67 273.21 272.79 246.83 323 187.33 316.67" fill="#212224"/>
  <polygon points="187.33 316.67 175.5 359.33 246.83 323 187.33 316.67" fill="#454044"/>
  <polygon points="273.21 272.79 246.83 323 275.33 287.54 273.21 272.79" fill="#404042"/>
  <polygon points="275.33 287.54 270.58 323.92 314.46 299.54 275.33 287.54" fill="#a7a1a3"/>
  <polygon points="314.46 299.54 321.96 314.17 270.58 323.92 314.46 299.54" fill="#c0b6b7"/>
  <polygon points="275.33 287.54 246.83 323 270.58 323.92 275.33 287.54" fill="#3d3b40"/>
  <polygon points="246.83 323 255.46 340.17 270.58 323.92 246.83 323" fill="#38363b"/>
  <polygon points="175.5 359.33 246.83 323 255.46 340.17 175.5 359.33" fill="#222325"/>
  <polygon points="175.5 359.33 255.46 340.17 248.21 379.54 175.5 359.33" fill="#242527"/>
  <polygon points="175.5 359.33 215.5 405.5 248.21 379.54 175.5 359.33" fill="#29292b"/>
  <polygon points="175.5 359.33 198.17 421.5 215.5 405.5 175.5 359.33" fill="#504d54"/>
  <polygon points="215.5 405.5 248.21 379.54 254.83 428.79 215.5 405.5" fill="#252527"/>
  <polygon points="215.5 405.5 198.17 421.5 254.83 428.79 215.5 405.5" fill="#202123"/>
  <polygon points="198.17 421.5 194 482.5 254.83 428.79 198.17 421.5" fill="#2c2b30"/>
  <polygon points="254.83 428.79 262.58 472.67 194 482.5 254.83 428.79" fill="#2c2c2e"/>
  <polygon points="194 482.5 216.33 515.17 262.58 472.67 194 482.5" fill="#212025"/>
  <polygon points="262.58 472.67 285.83 536.67 216.33 515.17 262.58 472.67" fill="#29272a"/>
  <polygon points="323.46 355.42 262.58 472.67 423.83 464.04 323.46 355.42" fill="#e8dcdc"/>
  <polygon points="262.58 472.67 285.83 536.67 423.83 464.04 262.58 472.67" fill="#e9dddd"/>
  <polygon points="285.83 536.67 393.96 553.79 423.83 464.04 285.83 536.67" fill="#e1d5d5"/>
  <polygon points="285.83 536.67 325.33 605.67 393.96 553.79 285.83 536.67" fill="#d8d0ce"/>
  <polygon points="285.83 536.67 256 560.17 325.33 605.67 285.83 536.67" fill="#232426"/>
  <polygon points="216.33 515.17 256 560.17 285.83 536.67 216.33 515.17" fill="#232426"/>
  <polygon points="216.33 515.17 192.33 580.33 256 560.17 216.33 515.17" fill="#212224"/>
  <polygon points="192.33 580.33 219.67 614.67 256 560.17 192.33 580.33" fill="#252628"/>
  <polygon points="256 560.17 219.67 614.67 325.33 605.67 256 560.17" fill="#2a2b2d"/>
  <polygon points="325.33 605.67 359.46 641.17 393.96 553.79 325.33 605.67" fill="#c1bbbb"/>
  <polygon points="465.33 598.67 416.33 682.17 446 708 465.33 598.67" fill="#e6dada"/>
  <polygon points="465.33 598.67 496.08 603.67 446 708 465.33 598.67" fill="#c4bcbc"/>
  <polygon points="496.08 603.67 513.5 719 483.17 723.33 496.08 603.67" fill="#b4abae"/>
  <polygon points="496.08 603.67 538.33 710.17 513.5 719 496.08 603.67" fill="#b3adaf"/>
  <polygon points="496.08 603.67 525.79 602.54 538.33 710.17 496.08 603.67" fill="#b4b0b1"/>
  <polygon points="525.79 602.54 571.08 679.17 538.33 710.17 525.79 602.54" fill="#c6bcbd"/>
  <polygon points="525.79 602.54 542.5 592.42 571.08 679.17 525.79 602.54" fill="#b2acac"/>
  <polygon points="423.83 464.04 433.33 476.42 393.96 553.79 423.83 464.04" fill="#eadede"/>
  <polygon points="433.33 476.42 430.71 560.92 446.46 556.42 433.33 476.42" fill="#eadede"/>
  <polygon points="414.08 558.79 430.71 560.92 433.33 476.42 414.08 558.79" fill="#e9dddd"/>
  <polygon points="393.96 553.79 414.08 558.79 433.33 476.42 393.96 553.79" fill="#e9dddd"/>
  <polygon points="581.83 560.83 602.17 551.83 620.83 637.67 581.83 560.83" fill="#b5afaf"/>
  <polygon points="602.17 551.83 661.71 584.17 620.83 637.67 602.17 551.83" fill="#bbb5b5"/>
  <polygon points="602.17 551.83 689.17 540 661.71 584.17 602.17 551.83" fill="#c6bcbd"/>
  <polygon points="266.58 220.42 274.08 122.42 309.46 212.04 266.58 220.42" fill="#ded2d2"/>
  <polygon points="352.33 199.92 376.33 79.42 421.71 170.92 352.33 199.92" fill="#e4d8d8"/>
  <polygon points="376.33 79.42 497.83 20.67 421.71 170.92 376.33 79.42" fill="#e6e5e3"/>
  <polygon points="497.83 20.67 421.71 170.92 527.21 173.42 497.83 20.67" fill="#969499"/>
  <polygon points="497.83 20.67 573.58 2.67 527.21 173.42 497.83 20.67" fill="#423d41"/>
  <polygon points="573.58 2.67 633.33 173.33 527.21 173.42 573.58 2.67" fill="#5e5c61"/>
  <polygon points="573.58 2.67 624.58 11.92 633.33 173.33 573.58 2.67" fill="#605e63"/>
  <polygon points="624.58 11.92 651.5 3.67 633.33 173.33 624.58 11.92" fill="#1a1e1f"/>
  <polygon points="651.5 3.67 766.67 162.67 633.33 173.33 651.5 3.67" fill="#363638"/>
  <polygon points="766.67 162.67 849.58 195.67 769 251.67 766.67 162.67" fill="#413f44"/>
  <polygon points="766.67 162.67 794.83 108.92 849.58 195.67 766.67 162.67" fill="#323035"/>
  <polygon points="651.5 3.67 794.83 108.92 766.67 162.67 651.5 3.67" fill="#5c5c5e"/>
  <polygon points="794.83 108.92 829.08 46.92 849.58 195.67 794.83 108.92" fill="#3e3b42"/>
  <polygon points="829.08 46.92 991.58 206.92 849.58 195.67 829.08 46.92" fill="#313133"/>
  <polygon points="802.58 1.67 794.83 108.92 829.08 46.92 802.58 1.67" fill="#322f38"/>
  <polygon points="651.5 3.67 802.58 1.67 794.83 108.92 651.5 3.67" fill="#525055"/>
  <polygon points="769 251.67 844.08 279.92 733.08 331.54 769 251.67" fill="#232426"/>
  <polygon points="733.08 331.54 773.33 368.29 844.08 279.92 733.08 331.54" fill="#201f25"/>
  <polygon points="773.33 368.29 844.08 279.92 851.08 382.92 773.33 368.29" fill="#2a2a2a"/>
  <polygon points="772.83 368.29 850.58 382.92 831.83 431.17 772.83 368.29" fill="#58565b"/>
  <polygon points="773.33 368.29 718.88 452.67 832.33 431.17 773.33 368.29" fill="#1d1e20"/>
  <polygon points="718.88 452.67 689.17 540 735.08 519.92 718.88 452.67" fill="#241f23"/>
  <polygon points="718.88 452.67 735.08 519.92 832.33 431.17 718.88 452.67" fill="#1f2022"/>
  <polygon points="735.08 519.92 832.33 431.17 806.83 557.42 735.08 519.92" fill="#2d2b2e"/>
  <polygon points="832.33 431.17 852.08 438.92 806.83 557.42 832.33 431.17" fill="#5e5c5f"/>
  <polygon points="733.08 369.54 718.88 452.67 773.33 368.29 733.08 369.54" fill="#222224"/>
  <polygon points="266.58 220.42 309.46 212.04 302.96 270.67 266.58 220.42" fill="#dbd1d2"/>
  <polygon points="274.08 122.42 376.33 79.42 352.33 199.92 274.08 122.42" fill="#f0e2e2"/>
  <polygon points="274.08 122.42 317.67 0 376.33 79.42 274.08 122.42" fill="#b5afb1"/>
  <polygon points="238.33 57.67 317.67 0 274.08 122.42 238.33 57.67" fill="#1f1f21"/>
  <polygon points="238.33 57.67 242 105 274.08 122.42 238.33 57.67" fill="#2f2a30"/>
  <polygon points="242 105 211.33 146.67 274.08 122.42 242 105" fill="#34353a"/>
  <polygon points="117.67 76 238.33 57.67 242 105 117.67 76" fill="#706e71"/>
  <polygon points="117.67 76 242 105 211.33 146.67 117.67 76" fill="#868187"/>
  <polygon points="117.67 76 211.33 146.67 200.67 184.33 117.67 76" fill="#3b3a3f"/>
  <polygon points="117.67 76 200.67 184.33 187.83 210 117.67 76" fill="#413c42"/>
  <polygon points="200.67 184.33 211.33 146.67 266.58 220.42 200.67 184.33" fill="#878384"/>
  <polygon points="187.83 210 200.67 184.33 266.58 220.42 187.83 210" fill="#888485"/>
  <polygon points="211.33 146.67 274.08 122.42 266.58 220.42 211.33 146.67" fill="#1d1c21"/>
  <polygon points="117.67 76 43.33 224.67 187.83 210 117.67 76" fill="#5e595f"/>
  <polygon points="43.33 224.67 187.83 210 187.33 316.67 43.33 224.67" fill="#69646a"/>
  <polygon points="43.33 224.67 187.33 316.67 175.5 359.33 43.33 224.67" fill="#6b666c"/>
  <polygon points="43.33 224.67 4.33 402.33 175.5 359.33 43.33 224.67" fill="#827d83"/>
  <polygon points="4.33 402.33 175.5 359.33 145 425.33 4.33 402.33" fill="#787379"/>
  <polygon points="4.33 402.33 145 425.33 88.33 526.33 4.33 402.33" fill="#5e595f"/>
  <polygon points="145 425.33 156.33 458.67 88.33 526.33 145 425.33" fill="#746f75"/>
  <polygon points="145 425.33 156.33 458.67 198.17 421.5 145 425.33" fill="#635e64"/>
  <polygon points="175.5 359.33 145 425.33 198.17 421.5 175.5 359.33" fill="#807b82"/>
  <polygon points="156.33 458.67 198.17 421.5 194 482.5 156.33 458.67" fill="#77767c"/>
  <polygon points="156.33 458.67 194 482.5 178 556.33 156.33 458.67" fill="#706e73"/>
  <polygon points="88.33 526.33 156.33 458.67 178 556.33 88.33 526.33" fill="#878183"/>
  <polygon points="178 556.33 216.33 515.17 194 482.5 178 556.33" fill="#303032"/>
  <polygon points="178 556.33 192.33 580.33 216.33 515.17 178 556.33" fill="#272729"/>
  <polygon points="88.33 526.33 136.67 569.67 178 556.33 88.33 526.33" fill="#69646a"/>
  <polygon points="136.67 569.67 178 556.33 192.33 580.33 136.67 569.67" fill="#767177"/>
  <polygon points="136.67 569.67 128 590.33 192.33 580.33 136.67 569.67" fill="#7a757b"/>
  <polygon points="88.33 526.33 128 590.33 136.67 569.67 88.33 526.33" fill="#6f6a6e"/>
  <polygon points="88.33 526.33 5.67 634.33 128 590.33 88.33 526.33" fill="#5d585e"/>
  <polygon points="4.33 402.33 88.33 526.33 5.67 634.33 4.33 402.33" fill="#6c676d"/>
  <polygon points="128 590.33 136.67 663.33 192.33 580.33 128 590.33" fill="#3e3c41"/>
  <polygon points="192.33 580.33 136.67 663.33 219.67 614.67 192.33 580.33" fill="#757074"/>
  <polygon points="219.67 614.67 136.67 663.33 183.33 683 219.67 614.67" fill="#2e2b32"/>
  <polygon points="219.67 614.67 183.33 683 215.67 707 219.67 614.67" fill="#242426"/>
  <polygon points="219.67 614.67 215.67 707 325.33 605.67 219.67 614.67" fill="#1d1e20"/>
  <polygon points="5.67 634.33 128 590.33 79 672.33 5.67 634.33" fill="#cabec0"/>
  <polygon points="5.67 634.33 79 672.33 69.67 681.33 5.67 634.33" fill="#e6dada"/>
  <polygon points="128 590.33 79 672.33 136.67 663.33 128 590.33" fill="#cec4c5"/>
  <polygon points="79 672.33 97.17 681.67 136.67 663.33 79 672.33" fill="#d5c9cb"/>
  <polygon points="79 672.33 69.67 681.33 83.33 687.67 79 672.33" fill="#9c9492"/>
  <polygon points="79 672.33 83.33 687.67 97.17 681.67 79 672.33" fill="#7f7a7e"/>
  <polygon points="97.17 681.67 110.67 692.67 136.67 663.33 97.17 681.67" fill="#b7b3b4"/>
  <polygon points="83.33 687.67 97.17 681.67 110.67 692.67 83.33 687.67" fill="#787377"/>
  <polygon points="110.67 692.67 136.67 663.33 127.33 694 110.67 692.67" fill="#9f999b"/>
  <polygon points="136.67 663.33 131.83 698.83 127.33 694 136.67 663.33" fill="#928d91"/>
  <polygon points="136.67 663.33 183.33 683 131.83 698.83 136.67 663.33" fill="#77757a"/>
  <polygon points="131.83 698.83 137.17 718.5 183.33 683 131.83 698.83" fill="#67666b"/>
  <polygon points="183.33 683 137.17 718.5 162 760.83 183.33 683" fill="#7f7d82"/>
  <polygon points="183.33 683 215.67 707 162 760.83 183.33 683" fill="#201d24"/>
  <polygon points="215.67 707 235.17 742.17 162 760.83 215.67 707" fill="#27262c"/>
  <polygon points="110.67 692.67 127.33 694 131.83 698.83 110.67 692.67" fill="#545358"/>
  <polygon points="110.67 692.67 137.17 718.5 131.83 698.83 110.67 692.67" fill="#a3a1a2"/>
  <polygon points="83.33 687.67 110.67 692.67 137.17 718.5 83.33 687.67" fill="#aca8a9"/>
  <polygon points="83.33 687.67 144 802.83 137.17 718.5 83.33 687.67" fill="#9e989a"/>
  <polygon points="137.17 718.5 162 760.83 144 802.83 137.17 718.5" fill="#46454a"/>
  <polygon points="162 760.83 181.5 818.83 144 802.83 162 760.83" fill="#444247"/>
  <polygon points="162 760.83 235.17 742.17 181.5 818.83 162 760.83" fill="#242529"/>
  <polygon points="181.5 818.83 208.5 834.83 235.17 742.17 181.5 818.83" fill="#353338"/>
  <polygon points="144 802.83 141.33 827.17 181.5 818.83 144 802.83" fill="#333136"/>
  <polygon points="208.5 834.83 235.17 742.17 265.67 894.67 208.5 834.83" fill="#1d1e20"/>
  <polygon points="215.67 707 325.33 605.67 359.46 641.17 215.67 707" fill="#1f2022"/>
  <polygon points="215.67 707 235.17 742.17 359.46 641.17 215.67 707" fill="#201f25"/>
  <polygon points="359.46 641.17 416.33 682.17 235.17 742.17 359.46 641.17" fill="#2b2c30"/>
  <polygon points="235.17 742.17 416.33 682.17 446 708 235.17 742.17" fill="#3d3b40"/>
  <polygon points="235.17 742.17 265.67 894.67 446 708 235.17 742.17" fill="#38353c"/>
  <polygon points="265.67 894.67 302.67 918.67 446 708 265.67 894.67" fill="#645f65"/>
  <polygon points="446 708 483.17 723.33 302.67 918.67 446 708" fill="#676268"/>
  <polygon points="483.17 723.33 469.67 968.33 302.67 918.67 483.17 723.33" fill="#645f65"/>
  <polygon points="483.17 723.33 513.5 719 469.67 968.33 483.17 723.33" fill="#757076"/>
  <polygon points="513.5 719 686.67 793.33 469.67 968.33 513.5 719" fill="#5e595f"/>
  <polygon points="513.5 719 538.33 710.17 686.67 793.33 513.5 719" fill="#4c4a4f"/>
  <polygon points="686.67 793.33 770.33 908.67 469.67 968.33 686.67 793.33" fill="#999395"/>
  <polygon points="686.67 793.33 778.33 863 770.33 908.67 686.67 793.33" fill="#3c3a3f"/>
  <polygon points="778.33 863 836 927.33 770.33 908.67 778.33 863" fill="#948f95"/>
  <polygon points="778.33 863 878.67 813.67 836 927.33 778.33 863" fill="#4c4a4f"/>
  <polygon points="878.67 813.67 906.67 839 836 927.33 878.67 813.67" fill="#313035"/>
  <polygon points="538.33 710.17 571.08 679.17 686.67 793.33 538.33 710.17" fill="#3d3b40"/>
  <polygon points="571.08 679.17 659 682.33 686.67 793.33 571.08 679.17" fill="#2c2b31"/>
  <polygon points="571.08 679.17 620.83 637.67 659 682.33 571.08 679.17" fill="#3c3a3f"/>
  <polygon points="659 682.33 839 703.33 686.67 793.33 659 682.33" fill="#212026"/>
  <polygon points="659 682.33 692.33 613 839 703.33 659 682.33" fill="#1e1d22"/>
  <polygon points="620.83 637.67 692.33 613 659 682.33 620.83 637.67" fill="#202123"/>
  <polygon points="620.83 637.67 661.71 584.17 692.33 613 620.83 637.67" fill="#212123"/>
  <polygon points="692.33 613 801 607.67 839 703.33 692.33 613" fill="#29292b"/>
  <polygon points="692.33 613 735.67 519 801 607.67 692.33 613" fill="#1f2022"/>
  <polygon points="735.5 519.25 806.83 557.42 801 607.67 735.5 519.25" fill="#312e35"/>
  <polygon points="806.83 557.42 851 597.67 801 607.67 806.83 557.42" fill="#343237"/>
  <polygon points="801 607.67 851 597.67 859 646.33 801 607.67" fill="#242426"/>
  <polygon points="801 607.67 859 646.33 839 703.33 801 607.67" fill="#464449"/>
  <polygon points="661.71 584.17 689.17 540 692.33 613 661.71 584.17" fill="#212224"/>
  <polygon points="689.17 540 735.08 519.92 692.33 613 689.17 540" fill="#212224"/>
  <polygon points="769 251.67 849.58 195.67 844.08 279.92 769 251.67" fill="#252326"/>
  <polygon points="849.58 195.67 929.83 271.67 844.08 279.92 849.58 195.67" fill="#242227"/>
  <polygon points="849.58 195.67 991.58 206.92 929.83 271.67 849.58 195.67" fill="#2e2b32"/>
  <polygon points="829.08 46.92 849.58 195.67 991.58 206.92 829.08 46.92" fill="#313133"/>
  <polygon points="802.58 1.67 829.08 46.92 985.33 0.67 802.58 1.67" fill="#2c2a2f"/>
  <polygon points="829.08 46.92 985.33 0.67 991.58 206.92 829.08 46.92" fill="#29292b"/>
  <polygon points="844.08 279.92 851.08 382.92 929.83 271.67 844.08 279.92" fill="#36333a"/>
  <polygon points="929.83 271.67 991.58 206.92 987.83 604.17 929.83 271.67" fill="#333039"/>
  <polygon points="852.08 438.92 929.83 271.67 987.83 604.17 852.08 438.92" fill="#2b2b2d"/>
  <polygon points="832.33 431.17 851.08 382.92 852.08 438.92 832.33 431.17" fill="#302d34"/>
  <polygon points="851.08 382.92 929.83 271.67 852.08 438.92 851.08 382.92" fill="#2e2d33"/>
  <polygon points="806.83 557.42 852.08 438.92 851 597.67 806.83 557.42" fill="#1f1e23"/>
  <polygon points="852.08 438.92 987.83 604.17 851 597.67 852.08 438.92" fill="#272729"/>
  <polygon points="851 597.67 987.83 604.17 916.33 627.67 851 597.67" fill="#2e2e30"/>
  <polygon points="851 597.67 859 646.33 878.33 639.17 851 597.67" fill="#2d2c31"/>
  <polygon points="851 597.67 878.33 639.17 916.33 627.67 851 597.67" fill="#232325"/>
  <polygon points="916.33 627.67 948.33 671.17 987.83 604.17 916.33 627.67" fill="#272729"/>
  <polygon points="878.33 639.17 916.33 627.67 948.33 671.17 878.33 639.17" fill="#2b2b2d"/>
  <polygon points="948.33 671.17 987.83 604.17 973.83 681.17 948.33 671.17" fill="#2b2b2d"/>
  <polygon points="948.33 671.17 912.83 703.17 973.83 681.17 948.33 671.17" fill="#5b565c"/>
  <polygon points="878.33 639.17 912.83 703.17 948.33 671.17 878.33 639.17" fill="#58565b"/>
  <polygon points="859 646.33 878.33 639.17 912.83 703.17 859 646.33" fill="#3c3c3e"/>
  <polygon points="859 646.33 839 703.33 912.83 703.17 859 646.33" fill="#2f2d32"/>
  <polygon points="839 703.33 878.67 813.67 912.83 703.17 839 703.33" fill="#3d3b40"/>
  <polygon points="912.83 703.17 878.67 813.67 906.67 839 912.83 703.17" fill="#6e696f"/>
  <polygon points="912.83 703.17 973.83 681.17 906.67 839 912.83 703.17" fill="#514f54"/>
  <polygon points="686.67 793.33 839 703.33 778.33 863 686.67 793.33" fill="#464648"/>
  <polygon points="839 703.33 778.33 863 878.67 813.67 839 703.33" fill="#303032"/>
  <polygon points="906.67 839 973.83 681.17 979.83 974.67 906.67 839" fill="#858086"/>
  <polygon points="987.83 604.17 973.83 681.17 979.83 974.67 987.83 604.17" fill="#847f85"/>
  <polygon points="906.67 839 836 927.33 979.83 974.67 906.67 839" fill="#9f999b"/>
  <polygon points="878.67 813.67 836 927.33 906.67 839 878.67 813.67" fill="#313035"/>
  <polygon points="469.67 968.33 770.33 908.67 836 927.33 469.67 968.33" fill="#b3adad"/>
  <polygon points="469.67 968.33 836 927.33 979.83 974.67 469.67 968.33" fill="#cdc3c4"/>
  <polygon points="208.5 834.83 77.33 879.67 265.67 894.67 208.5 834.83" fill="#49474a"/>
  <polygon points="77.33 879.67 10.83 974.67 265.67 894.67 77.33 879.67" fill="#343237"/>
  <polygon points="265.67 894.67 10.83 974.67 302.67 918.67 265.67 894.67" fill="#59575c"/>
  <polygon points="302.67 918.67 10.83 974.67 469.67 968.33 302.67 918.67" fill="#6c676d"/>
  <polygon points="77.33 879.67 11.33 918.67 10.83 974.67 77.33 879.67" fill="#706b71"/>
  <polygon points="83.33 687.67 77.33 879.67 144 802.83 83.33 687.67" fill="#948e90"/>
  <polygon points="141.33 827.17 181.5 818.83 208.5 834.83 141.33 827.17" fill="#2b292e"/>
  <polygon points="141.33 827.17 77.33 879.67 208.5 834.83 141.33 827.17" fill="#302d34"/>
  <polygon points="144 802.83 77.33 879.67 141.33 827.17 144 802.83" fill="#544f55"/>
  <polygon points="69.67 681.33 83.33 687.67 77.33 879.67 69.67 681.33" fill="#c7c2be"/>
  <polygon points="69.67 681.33 11.33 918.67 77.33 879.67 69.67 681.33" fill="#a6a0a2"/>
  <polygon points="5.67 634.33 69.67 681.33 11.33 918.67 5.67 634.33" fill="#d4cacb"/>
  <polygon points="1.33 45 43.33 224.67 4.33 402.33 1.33 45" fill="#716c72"/>
  <polygon points="1.33 45 117.67 76 43.33 224.67 1.33 45" fill="#59575c"/>
  <polygon points="1.33 45 0 1.67 117.67 76 1.33 45" fill="#4b494e"/>
  <polygon points="0 1.67 257.67 5 117.67 76 0 1.67" fill="#504e53"/>
  <polygon points="117.67 76 257.67 5 238.33 57.67 117.67 76" fill="#656066"/>
  <polygon points="257.67 5 317.67 0 238.33 57.67 257.67 5" fill="#9d9394"/>
  <polygon points="0 1.67 317.67 0 257.67 5 0 1.67" fill="#737176"/>
  <polygon points="317.67 0 347 5 398.67 5.33 317.67 0" fill="#969293"/>
  <polygon points="317.67 0 347 5 376.33 79.42 317.67 0" fill="#bfb9b9"/>
  <polygon points="347 5 398.67 5.33 376.33 79.42 347 5" fill="#888387"/>
  <polygon points="398.67 5.33 452.67 1 376.33 79.42 398.67 5.33" fill="#626065"/>
  <polygon points="452.67 1 497.83 20.67 376.33 79.42 452.67 1" fill="#383339"/>
  <polygon points="452.67 1 573.58 2.67 497.83 20.67 452.67 1" fill="#a7a1a3"/>
  <polygon points="317.67 0 398.67 5.33 452.67 1 317.67 0" fill="#8c878b"/>
  <polygon points="573.58 2.67 651.5 3.67 624.58 11.92 573.58 2.67" fill="#1e1c1f"/>
  <polygon points="633.33 173.33 766.67 162.67 642 215 633.33 173.33" fill="#242426"/>
  <polygon points="642 215 766.67 162.67 720.67 239.67 642 215" fill="#242426"/>
  <polygon points="766.67 162.67 769 251.67 720.67 239.67 766.67 162.67" fill="#25262a"/>
  <polygon points="720.67 239.67 719 285.33 769 251.67 720.67 239.67" fill="#1f1f21"/>
  <polygon points="719 285.33 733.08 331.54 769 251.67 719 285.33" fill="#1f1e23"/>
  <polygon points="720.67 239.67 688.67 285.33 719 285.33 720.67 239.67" fill="#6b666a"/>
  <polygon points="642 215 640.33 246.33 672.67 267.67 642 215" fill="#8c8990"/>
  <polygon points="642 215 720.67 239.67 672.67 267.67 642 215" fill="#9e989a"/>
  <polygon points="672.67 267.67 688.67 285.33 720.67 239.67 672.67 267.67" fill="#8b868a"/>
  <polygon points="638.33 257.92 672.67 267.67 663.33 283.54 638.33 257.92" fill="#242529"/>
  <polygon points="672.67 267.67 663.33 283.54 684.83 287.79 672.67 267.67" fill="#6b6a6f"/>
  <polygon points="638.33 257.92 620.46 274.29 639.58 281.54 638.33 257.92" fill="#39363d"/>
  <polygon points="672.67 267.67 684.83 287.79 688.67 285.33 672.67 267.67" fill="#4b4a4f"/>
  <polygon points="642 215 591.67 251.67 640.33 246.33 642 215" fill="#817c82"/>
  <polygon points="496.08 603.67 483.17 723.33 446 708 496.08 603.67" fill="#eee2e2"/>
  <polygon points="274.08 122.42 352.33 199.92 309.46 212.04 274.08 122.42" fill="#eee2e2"/>
  <polygon points="375.08 281.17 380.33 287.92 367.08 287.42 375.08 281.17" fill="#8e8b92"/>
  <polygon points="486.46 383.67 546.33 370.54 553 437.33 486.46 383.67" fill="#cec4c5"/>
  <polygon points="583.46 382.54 631.08 326.29 718.88 452.67 583.46 382.54" fill="#b0aaac"/>
</svg>
