<?xml version="1.0" encoding="utf-8"?>
<!-- Generator: Adobe Illustrator 15.0.0, SVG Export Plug-In  -->
<!DOCTYPE svg PUBLIC "-//W3C//DTD SVG 1.1//EN" "http://www.w3.org/Graphics/SVG/1.1/DTD/svg11.dtd" [
	<!ENTITY ns_flows "http://ns.adobe.com/Flows/1.0/">
]>
<svg version="1.1" xmlns="http://www.w3.org/2000/svg" xmlns:xlink="http://www.w3.org/1999/xlink" x="0px" y="0px"
	 viewBox="0 0 612 792" style="enable-background:new 0 0 612 792;" xml:space="preserve">
	 <circle fill="none" cx="22.5" cy="22.5" r="9"/>
<style type="text/css">
	.st0{display:none;}
	.st1{fill:#2A2A2C;}
	.st2{fill:#312C32;}
	.st3{fill:#777278;}
	.st4{fill:#545358;}
	.st5{fill:#777578;}
	.st6{fill:#A9A5A6;}
	.st7{fill:#A9A0A3;}
	.st8{fill:#D5CBCC;}
	.st9{fill:#838182;}
	.st10{fill:#BCB6B6;}
	.st11{fill:#847F83;}
	.st12{fill:#817D7E;}
	.st13{fill:#6E6A6B;}
	.st14{fill:#464449;}
	.st15{fill:#232325;}
	.st16{fill:#CAC0C1;}
	.st17{fill:#7E797F;}
	.st18{fill:#B0AAAC;}
	.st19{fill:#BBB5B5;}
	.st20{fill:#AAA4A4;}
	.st21{fill:#CDC3C4;}
	.st22{fill:#D0C6C7;}
	.st23{fill:#969092;}
	.st24{fill:#A6A0A2;}
	.st25{fill:#B4AEB2;}
	.st26{fill:#DCD2D3;}
	.st27{fill:#C5BFC1;}
	.st28{fill:#D8CCCC;}
	.st29{fill:#CFC5C6;}
	.st30{fill:#D9CDCF;}
	.st31{fill:#CCC2C3;}
	.st32{fill:#BEB8B8;}
	.st33{fill:#B4AEB0;}
	.st34{fill:#C4BEBE;}
	.st35{fill:#9C9698;}
	.st36{fill:#C2BCBE;}
	.st37{fill:#CBC1C2;}
	.st38{fill:#C8BEBF;}
	.st39{fill:#544F55;}
	.st40{fill:#787379;}
	.st41{fill:#8F8B8C;}
	.st42{fill:#6D686E;}
	.st43{fill:#7A7579;}
	.st44{fill:#AEA8AA;}
	.st45{fill:#BBB5B7;}
	.st46{fill:#938D8F;}
	.st47{fill:#756F71;}
	.st48{fill:#BCB2B3;}
	.st49{fill:#8C8688;}
	.st50{fill:#C3BDBD;}
	.st51{fill:#A09599;}
	.st52{fill:#989294;}
	.st53{fill:#7D787C;}
	.st54{fill:#787178;}
	.st55{fill:#6F6A70;}
	.st56{fill:#C4BBBE;}
	.st57{fill:#A79EA3;}
	.st58{fill:#D8CECD;}
	.st59{fill:#C3C1C4;}
	.st60{fill:#464044;}
	.st61{fill:#6F6D70;}
	.st62{fill:#353338;}
	.st63{fill:#5C5A5D;}
	.st64{fill:#444245;}
	.st65{fill:#4D4B4E;}
	.st66{fill:#444446;}
	.st67{fill:#2A282B;}
	.st68{fill:#2F2D30;}
	.st69{fill:#1B191C;}
	.st70{fill:#252527;}
	.st71{fill:#2A272E;}
	.st72{fill:#5D5D5F;}
	.st73{fill:#28272D;}
	.st74{fill:#2D2A33;}
	.st75{fill:#353336;}
	.st76{fill:#818085;}
	.st77{fill:#29282D;}
	.st78{fill:#4E4D52;}
	.st79{fill:#3A383B;}
	.st80{fill:#424043;}
	.st81{fill:#4B494E;}
	.st82{fill:#555358;}
	.st83{fill:#5C5A5F;}
	.st84{fill:#555259;}
	.st85{fill:#39373A;}
	.st86{fill:#79787D;}
	.st87{fill:#2C2C2E;}
	.st88{fill:#454346;}
	.st89{fill:#2B282F;}
	.st90{fill:#514F54;}
	.st91{fill:#767175;}
	.st92{fill:#48464B;}
	.st93{fill:#49474C;}
	.st94{fill:#B2ACAE;}
	.st95{fill:#B6AFB6;}
	.st96{fill:#726D73;}
	.st97{fill:#656368;}
	.st98{fill:#898488;}
	.st99{fill:#666167;}
	.st100{fill:#302F34;}
	.st101{fill:#2A2B2D;}
	.st102{fill:#414141;}
	.st103{fill:#29282E;}
	.st104{fill:#626264;}
	.st105{fill:#AEA7AE;}
	.st106{fill:#C6BCBD;}
	.st107{fill:#B4ACAC;}
	.st108{fill:#EBDFDF;}
	.st109{fill:#F3E5E5;}
	.st110{fill:#E6DADA;}
	.st111{fill:#D7CBCB;}
	.st112{fill:#DBCFCF;}
	.st113{fill:#A2979B;}
	.st114{fill:#B8B0AE;}
	.st115{fill:#BDB4B7;}
	.st116{fill:#B0AAAA;}
	.st117{fill:#8E8A8B;}
	.st118{fill:#868185;}
	.st119{fill:#4D4B50;}
	.st120{fill:#535156;}
	.st121{fill:#878288;}
	.st122{fill:#858388;}
	.st123{fill:#5F5E63;}
	.st124{fill:#8F8A8E;}
	.st125{fill:#676165;}
	.st126{fill:#625F66;}
	.st127{fill:#A7A1A3;}
	.st128{fill:#D3C8C6;}
	.st129{fill:#C8C0C0;}
	.st130{fill:#969293;}
	.st131{fill:#D2C7CB;}
	.st132{fill:#A49E9E;}
	.st133{fill:#2E2D32;}
	.st134{fill:#484349;}
	.st135{fill:#35393C;}
	.st136{fill:#333136;}
	.st137{fill:#16131A;}
	.st138{fill:#28272C;}
	.st139{fill:#58565B;}
	.st140{fill:#575256;}
	.st141{fill:#312F34;}
	.st142{fill:#3B393E;}
	.st143{fill:#3B3A3F;}
	.st144{fill:#343235;}
	.st145{fill:#888387;}
	.st146{fill:#545158;}
	.st147{fill:#6C6970;}
	.st148{fill:#47444B;}
	.st149{fill:#838087;}
	.st150{fill:#908B8F;}
	.st151{fill:#353034;}
	.st152{fill:#2E2B32;}
	.st153{fill:#878286;}
	.st154{fill:#686369;}
	.st155{fill:#68666B;}
	.st156{fill:#8B898A;}
	.st157{fill:#69646A;}
	.st158{fill:#666165;}
	.st159{fill:#9E979E;}
	.st160{fill:#928C8E;}
	.st161{fill:#7D787E;}
	.st162{fill:#575258;}
	.st163{fill:#D7CDCC;}
	.st164{fill:#363439;}
	.st165{fill:#3C3B40;}
	.st166{fill:#39383D;}
	.st167{fill:#AFA9AB;}
	.st168{fill:#CCC1C5;}
	.st169{fill:#DACED2;}
	.st170{fill:#776D75;}
	.st171{fill:#5A5154;}
	.st172{fill:#929095;}
	.st173{fill:#6B696E;}
	.st174{fill:#615E65;}
	.st175{fill:#2A282D;}
	.st176{fill:#252328;}
	.st177{fill:#222025;}
	.st178{fill:#D8CDD1;}
	.st179{fill:#A8A2A4;}
	.st180{fill:#827C7E;}
	.st181{fill:#CEC4C5;}
	.st182{fill:#C1BCC0;}
	.st183{fill:#2E292D;}
	.st184{fill:#5A575E;}
	.st185{fill:#989397;}
	.st186{fill:#696468;}
	.st187{fill:#828085;}
	.st188{fill:#615F62;}
	.st189{fill:#9B9798;}
	.st190{fill:#868187;}
	.st191{fill:#CCC0C2;}
	.st192{fill:#E3D7D7;}
	.st193{fill:#E4D8D8;}
	.st194{fill:#D5D0CD;}
	.st195{fill:#EADEDE;}
	.st196{fill:#B5AFB1;}
	.st197{fill:#6E696F;}
	.st198{fill:#757074;}
	.st199{fill:#999395;}
	.st200{fill:#727075;}
	.st201{fill:#645F65;}
	.st202{fill:#676268;}
	.st203{fill:#8A8687;}
	.st204{fill:#C3BBBB;}
	.st205{fill:#D2CAC8;}
	.st206{fill:#ECE0E0;}
	.st207{fill:#EEE2E2;}
	.st208{fill:#EFE3E3;}
	.st209{fill:#E1D5D7;}
	.st210{fill:#EFE1E1;}
	.st211{fill:#E8DCDC;}
	.st212{fill:#D9CFD0;}
	.st213{fill:#E7DBDB;}
	.st214{fill:#EDE1E1;}
	.st215{fill:#989292;}
	.st216{fill:#958E95;}
	.st217{fill:#B8AFB2;}
	.st218{fill:#CEC6C6;}
	.st219{fill:#847A7B;}
	.st220{fill:#6E676E;}
	.st221{fill:#DDD2D0;}
	.st222{fill:#E5D9D9;}
	.st223{fill:#DDD1D3;}
	.st224{fill:#D3C7C9;}
	.st225{fill:#DED2D4;}
	.st226{fill:#D9CFCE;}
	.st227{fill:#9F9596;}
	.st228{fill:#B9B3B5;}
	.st229{fill:#726E6F;}
	.st230{fill:#7E797D;}
	.st231{fill:#7E787C;}
	.st232{fill:#C3B9BA;}
	.st233{fill:#BCB6BA;}
	.st234{fill:#CFC3C5;}
	.st235{fill:#DED2D2;}
	.st236{fill:#F2E4E4;}
	.st237{fill:#F4E6E6;}
	.st238{fill:#F4E6E5;}
	.st239{fill:#272729;}
	.st240{fill:#535154;}
	.st241{fill:#212224;}
	.st242{fill:#454044;}
	.st243{fill:#404042;}
	.st244{fill:#C0B6B7;}
	.st245{fill:#3D3B40;}
	.st246{fill:#38363B;}
	.st247{fill:#222325;}
	.st248{fill:#242527;}
	.st249{fill:#29292B;}
	.st250{fill:#504D54;}
	.st251{fill:#202123;}
	.st252{fill:#2C2B30;}
	.st253{fill:#212025;}
	.st254{fill:#29272A;}
	.st255{fill:#E9DDDD;}
	.st256{fill:#E1D5D5;}
	.st257{fill:#D8D0CE;}
	.st258{fill:#232426;}
	.st259{fill:#252628;}
	.st260{fill:#C1BBBB;}
	.st261{fill:#C4BCBC;}
	.st262{fill:#B4ABAE;}
	.st263{fill:#B3ADAF;}
	.st264{fill:#B4B0B1;}
	.st265{fill:#B2ACAC;}
	.st266{fill:#B5AFAF;}
	.st267{fill:#E6E5E3;}
	.st268{fill:#969499;}
	.st269{fill:#423D41;}
	.st270{fill:#5E5C61;}
	.st271{fill:#605E63;}
	.st272{fill:#1A1E1F;}
	.st273{fill:#363638;}
	.st274{fill:#413F44;}
	.st275{fill:#323035;}
	.st276{fill:#5C5C5E;}
	.st277{fill:#3E3B42;}
	.st278{fill:#313133;}
	.st279{fill:#322F38;}
	.st280{fill:#525055;}
	.st281{fill:#201F25;}
	.st282{fill:#2A2A2A;}
	.st283{fill:#1D1E20;}
	.st284{fill:#241F23;}
	.st285{fill:#1F2022;}
	.st286{fill:#2D2B2E;}
	.st287{fill:#5E5C5F;}
	.st288{fill:#222224;}
	.st289{fill:#DBD1D2;}
	.st290{fill:#F0E2E2;}
	.st291{fill:#1F1F21;}
	.st292{fill:#2F2A30;}
	.st293{fill:#34353A;}
	.st294{fill:#706E71;}
	.st295{fill:#413C42;}
	.st296{fill:#878384;}
	.st297{fill:#888485;}
	.st298{fill:#1D1C21;}
	.st299{fill:#5E595F;}
	.st300{fill:#6B666C;}
	.st301{fill:#827D83;}
	.st302{fill:#746F75;}
	.st303{fill:#635E64;}
	.st304{fill:#807B82;}
	.st305{fill:#77767C;}
	.st306{fill:#706E73;}
	.st307{fill:#878183;}
	.st308{fill:#303032;}
	.st309{fill:#767177;}
	.st310{fill:#7A757B;}
	.st311{fill:#6F6A6E;}
	.st312{fill:#5D585E;}
	.st313{fill:#6C676D;}
	.st314{fill:#3E3C41;}
	.st315{fill:#242426;}
	.st316{fill:#CABEC0;}
	.st317{fill:#D5C9CB;}
	.st318{fill:#9C9492;}
	.st319{fill:#7F7A7E;}
	.st320{fill:#B7B3B4;}
	.st321{fill:#787377;}
	.st322{fill:#9F999B;}
	.st323{fill:#928D91;}
	.st324{fill:#77757A;}
	.st325{fill:#67666B;}
	.st326{fill:#7F7D82;}
	.st327{fill:#201D24;}
	.st328{fill:#27262C;}
	.st329{fill:#A3A1A2;}
	.st330{fill:#ACA8A9;}
	.st331{fill:#9E989A;}
	.st332{fill:#46454A;}
	.st333{fill:#444247;}
	.st334{fill:#242529;}
	.st335{fill:#2B2C30;}
	.st336{fill:#38353C;}
	.st337{fill:#757076;}
	.st338{fill:#4C4A4F;}
	.st339{fill:#3C3A3F;}
	.st340{fill:#948F95;}
	.st341{fill:#313035;}
	.st342{fill:#2C2B31;}
	.st343{fill:#212026;}
	.st344{fill:#1E1D22;}
	.st345{fill:#212123;}
	.st346{fill:#312E35;}
	.st347{fill:#343237;}
	.st348{fill:#252326;}
	.st349{fill:#242227;}
	.st350{fill:#2C2A2F;}
	.st351{fill:#36333A;}
	.st352{fill:#333039;}
	.st353{fill:#2B2B2D;}
	.st354{fill:#302D34;}
	.st355{fill:#2E2D33;}
	.st356{fill:#1F1E23;}
	.st357{fill:#2E2E30;}
	.st358{fill:#2D2C31;}
	.st359{fill:#5B565C;}
	.st360{fill:#3C3C3E;}
	.st361{fill:#2F2D32;}
	.st362{fill:#464648;}
	.st363{fill:#858086;}
	.st364{fill:#847F85;}
	.st365{fill:#B3ADAD;}
	.st366{fill:#49474A;}
	.st367{fill:#59575C;}
	.st368{fill:#706B71;}
	.st369{fill:#948E90;}
	.st370{fill:#2B292E;}
	.st371{fill:#C7C2BE;}
	.st372{fill:#D4CACB;}
	.st373{fill:#716C72;}
	.st374{fill:#504E53;}
	.st375{fill:#656066;}
	.st376{fill:#9D9394;}
	.st377{fill:#737176;}
	.st378{fill:#BFB9B9;}
	.st379{fill:#626065;}
	.st380{fill:#383339;}
	.st381{fill:#8C878B;}
	.st382{fill:#1E1C1F;}
	.st383{fill:#25262A;}
	.st384{fill:#6B666A;}
	.st385{fill:#8C8990;}
	.st386{fill:#8B868A;}
	.st387{fill:#6B6A6F;}
	.st388{fill:#39363D;}
	.st389{fill:#4B4A4F;}
	.st390{fill:#817C82;}
	.st391{fill:#8E8B92;}
</style>
<g id="Layer_2">
	<polygon class="st1" points="412.3,160 461,154.7 459,166.2 	"/>
	<polygon class="st2" points="461,154.7 493.3,176 459,166.2 	"/>
	<polygon class="st3" points="459,166.3 484,191.9 460.2,189.9 	"/>
	<polygon class="st4" points="484,191.9 505.5,196.1 495.8,202.9 	"/>
	<polygon class="st5" points="484,191.9 495.8,202.9 479.5,209 	"/>
	<polygon class="st6" points="505.5,196.1 525.3,222.5 495.8,202.9 	"/>
	<polygon class="st7" points="495.8,202.9 525.3,222.5 479.5,209 	"/>
	<polygon class="st8" points="479.5,209 525.3,222.5 451.8,234.6 	"/>
	<polygon class="st9" points="454,217.1 479.5,209 451.8,234.6 	"/>
	<polygon class="st10" points="451.8,234.6 525.3,222.5 553.8,277.9 	"/>
	<polygon class="st11" points="525.3,222.5 553.8,239.9 553.8,277.9 	"/>
	<polygon class="st12" points="505.5,196.1 509.3,193.7 525.3,222.5 	"/>
	<polygon class="st13" points="509.3,193.7 539.7,193.7 525.3,222.5 	"/>
	<polygon class="st14" points="539.7,193.7 553.8,239.9 525.3,222.5 	"/>
	<polygon class="st15" points="553.8,239.9 594,276.6 553.8,277.9 	"/>
	<polygon class="st16" points="451.8,234.6 553.8,277.9 539.5,361 	"/>
	<polygon class="st17" points="390.2,270.9 451.8,234.6 404.1,290.9 	"/>
	<polygon class="st18" points="451.8,234.6 539.5,361 404.1,290.9 	"/>
	<polygon class="st19" points="404.1,290.9 539.5,361 441.5,379.2 	"/>
	<polygon class="st20" points="404.1,290.9 441.5,379.2 386.2,353.7 	"/>
	<polygon class="st21" points="441.5,379.2 539.5,361 509.8,448.3 	"/>
	<polygon class="st22" points="441.5,379.2 509.8,448.3 422.8,460.2 	"/>
	<polygon class="st16" points="441.5,379.2 422.8,460.2 378.8,402.3 	"/>
	<polygon class="st23" points="386.2,353.7 441.5,379.2 380.2,380 	"/>
	<polygon class="st24" points="380.2,380 441.5,379.2 378.8,402.3 	"/>
	<polygon class="st25" points="404.1,290.9 373.7,345.7 386.2,353.7 	"/>
	<polygon class="st26" points="373.7,345.7 386.2,353.7 380.2,380 376.3,382.3 	"/>
	<polygon class="st27" points="376.3,382.3 380.2,380 378.8,402.3 	"/>
	<polygon class="st28" points="373.7,345.7 353.2,386.2 376.3,382.3 	"/>
	<polygon class="st29" points="353.2,386.2 376.3,382.3 378.8,402.3 	"/>
	<polygon class="st30" points="317.2,364.9 373.7,345.7 353.2,386.2 	"/>
	<polygon class="st10" points="317.2,364.9 353.2,386.2 322.1,392.9 	"/>
	<polygon class="st31" points="317.2,364.9 298.2,392.9 322.1,392.9 	"/>
	<polygon class="st32" points="322.1,392.9 317.6,401.1 353.2,386.2 	"/>
	<polygon class="st33" points="298.2,392.9 322.1,392.9 317.6,401.1 	"/>
	<polygon class="st34" points="298.2,392.9 317.6,401.1 290.8,461.9 	"/>
	<polygon class="st35" points="317.6,401.1 323.8,461.9 290.8,461.9 	"/>
	<polygon class="st36" points="317.6,401.1 339.8,456.6 323.8,461.9 	"/>
	<polygon class="st16" points="317.6,401.1 353.2,386.2 339.8,456.6 	"/>
	<polygon class="st37" points="339.8,456.6 350,457.2 353.2,386.2 	"/>
	<polygon class="st31" points="353.2,386.2 378.8,402.3 350,457.2 	"/>
	<polygon class="st38" points="350,457.2 393.3,472.2 378.8,402.3 	"/>
	<polygon class="st16" points="378.8,402.3 402.5,469.2 393.3,472.2 	"/>
	<polygon class="st36" points="378.8,402.3 422.8,460.2 402.5,469.2 	"/>
	<polygon class="st39" points="350,457.2 393.3,472.2 382.9,478 	"/>
	<polygon class="st40" points="350,457.2 382.9,478 353.6,469.7 	"/>
	<polygon class="st41" points="339.8,456.6 350,457.2 353.6,469.7 	"/>
	<polygon class="st42" points="339.8,456.6 328.1,483.8 353.6,469.7 	"/>
	<polygon class="st43" points="328.1,483.8 353.6,469.7 359.9,488.9 	"/>
	<polygon class="st44" points="353.6,469.7 382.9,478 359.9,488.9 	"/>
	<polygon class="st45" points="382.9,478 377.8,490.2 359.9,488.9 	"/>
	<polygon class="st46" points="382.9,478 393.3,472.2 377.8,490.2 	"/>
	<polygon class="st47" points="393.3,472.2 402.5,469.2 377.8,490.2 	"/>
	<polygon class="st48" points="377.8,490.2 402.5,469.2 441.5,546 	"/>
	<polygon class="st49" points="359.9,488.9 377.8,490.2 363.2,500.8 	"/>
	<polygon class="st10" points="363.2,500.8 377.8,490.2 441.5,546 	"/>
	<polygon class="st50" points="363.2,500.8 391.8,587.5 441.5,546 	"/>
	<polygon class="st51" points="359.9,488.9 346.5,510.9 363.2,500.8 	"/>
	<polygon class="st52" points="328.1,483.8 359.9,488.9 346.5,510.9 	"/>
	<polygon class="st18" points="328.1,483.8 316.8,512 346.5,510.9 	"/>
	<polygon class="st53" points="323.8,461.9 328.1,483.8 339.8,456.6 	"/>
	<polygon class="st54" points="307.3,469.2 323.8,461.9 328.1,483.8 	"/>
	<polygon class="st55" points="307.3,469.2 310.9,493.6 328.1,483.8 	"/>
	<polygon class="st56" points="290.8,461.9 323.8,461.9 307.3,469.2 	"/>
	<polygon class="st57" points="290.8,461.9 287,470.2 307.3,469.2 	"/>
	<polygon class="st58" points="267.1,464.8 290.8,461.9 287,470.2 	"/>
	<polygon class="st59" points="460.2,189.9 479.5,209 484,191.9 	"/>
	<polygon class="st27" points="460.2,189.9 459,203.9 479.5,209 	"/>
	<polygon class="st60" points="459,203.9 454,217.1 479.5,209 	"/>
	<polygon class="st61" points="426.2,219.2 454,217.1 451.8,234.6 	"/>
	<polygon class="st62" points="426.2,219.2 438.9,206.8 454,217.1 	"/>
	<polygon class="st63" points="438.9,206.8 459,203.9 454,217.1 	"/>
	<polygon class="st64" points="446.8,191.2 460.2,189.9 459,203.9 	"/>
	<polygon class="st65" points="439.8,196.1 446.8,191.2 459,203.9 	"/>
	<polygon class="st66" points="439.8,196.1 438.9,206.8 459,203.9 	"/>
	<polygon class="st67" points="441.1,182.6 446.8,191.2 460.2,189.9 	"/>
	<polygon class="st68" points="441.1,182.6 439.8,196.1 446.8,191.2 	"/>
	<polygon class="st69" points="433.8,191.2 439.8,196.1 441.1,182.6 	"/>
	<polygon class="st70" points="433.4,180.3 441.1,182.6 433.8,191.2 	"/>
	<path class="st71" d="M441.1,182.6"/>
	<polygon class="st72" points="433.4,180.3 417.9,182.6 433.8,191.2 	"/>
	<polygon class="st15" points="412.3,160 433.4,180.3 459,166.2 	"/>
	<polygon class="st71" points="433.4,180.3 441.1,182.6 459,166.2 	"/>
	<polygon class="st73" points="412.3,160 417.9,182.6 433.4,180.3 	"/>
	<polygon class="st74" points="412.3,160 386,175.2 417.9,182.6 	"/>
	<polygon class="st75" points="386,175.2 394.6,203.7 417.9,182.6 	"/>
	<polygon class="st76" points="417.9,194.5 417.9,182.6 394.6,203.7 	"/>
	<polygon class="st77" points="417.9,182.6 433.8,191.2 417.9,194.5 	"/>
	<polygon class="st78" points="417.9,194.5 421,204.1 433.8,191.2 	"/>
	<polygon class="st79" points="421,204.1 438.9,206.8 433.8,191.2 	"/>
	<polygon class="st80" points="433.8,191.2 439.8,196.1 438.9,206.8 	"/>
	<polygon class="st81" points="421,204.1 426.2,219.2 438.9,206.8 	"/>
	<polygon class="st81" points="421,204.1 404.2,216.2 426.2,219.2 	"/>
	<polygon class="st82" points="404.2,216.2 390.2,270.9 426.2,219.2 	"/>
	<polygon class="st83" points="426.2,219.2 390.2,270.9 451.8,234.6 	"/>
	<polygon class="st81" points="384.8,216.1 404.2,216.2 390.2,270.9 	"/>
	<polygon class="st84" points="348.7,226.1 384.8,216.1 390.2,270.9 	"/>
	<polygon class="st79" points="394.6,203.7 384.8,216.1 404.2,216.2 	"/>
	<polygon class="st85" points="394.6,203.7 421,204.1 404.2,216.2 	"/>
	<polygon class="st86" points="394.6,203.7 417.9,194.5 421,204.1 	"/>
	<polygon class="st87" points="374.6,211.9 394.6,203.7 384.8,216.1 	"/>
	<polygon class="st88" points="360.6,195.9 394.6,203.7 374.6,211.9 	"/>
	<polygon class="st89" points="360.6,195.9 386,175.2 394.6,203.7 	"/>
	<polygon class="st90" points="349.2,189.9 360.6,195.9 386,175.2 	"/>
	<polygon class="st91" points="349.2,189.9 348.7,226.1 360.6,195.9 	"/>
	<polygon class="st92" points="360.6,195.9 348.7,226.1 374.6,211.9 	"/>
	<polygon class="st93" points="374.6,211.9 384.8,216.1 348.7,226.1 	"/>
	<polygon class="st94" points="336.5,157 349.2,189.9 386,175.2 	"/>
	<polygon class="st95" points="336.5,157 299.2,208.1 349.2,189.9 	"/>
	<polygon class="st96" points="336.5,157 394.4,147.2 386,175.2 	"/>
	<polygon class="st97" points="394.4,147.2 412.3,160 386,175.2 	"/>
	<polygon class="st98" points="394.4,147.2 462.7,123.3 412.3,160 	"/>
	<polygon class="st99" points="454,81.7 394.4,147.2 462.7,123.3 	"/>
	<polygon class="st100" points="347.9,81.8 454,81.7 394.4,147.2 	"/>
	<polygon class="st101" points="347.9,81.8 336.5,157 394.4,147.2 	"/>
	<polygon class="st102" points="347.9,81.8 303.1,130 336.5,157 	"/>
	<polygon class="st103" points="284.2,109.9 303.1,130 347.9,81.8 	"/>
	<polygon class="st104" points="242.4,79.2 284.2,109.9 347.9,81.8 	"/>
	<polygon class="st33" points="242.4,79.2 245.9,127.8 284.2,109.9 	"/>
	<polygon class="st105" points="245.9,127.8 284.2,109.9 303.1,130 	"/>
	<polygon class="st106" points="245.9,127.8 271,174.6 303.1,130 	"/>
	<polygon class="st107" points="303.1,130 271,174.6 336.5,157 	"/>
	<polygon class="st22" points="271,174.6 299.2,208.1 336.5,157 	"/>
	<polygon class="st108" points="271,174.6 269,209.9 299.2,208.1 	"/>
	<polygon class="st109" points="269,209.9 288.6,236.1 299.2,208.1 	"/>
	<polygon class="st110" points="269,209.9 266.2,233.1 288.6,236.1 	"/>
	<polygon class="st30" points="288.6,236.1 307.1,292 348.7,226.1 	"/>
	<polygon class="st111" points="299.2,208.1 348.7,226.1 288.6,236.1 	"/>
	<polygon class="st8" points="299.2,208.1 349.2,189.9 348.7,226.1 	"/>
	<polygon class="st112" points="260.8,215.2 269,209.9 266.2,233.1 	"/>
	<polygon class="st113" points="258.9,191.9 269,209.9 260.8,215.2 	"/>
	<polygon class="st114" points="258.9,191.9 271,174.6 269,209.9 	"/>
	<polygon class="st115" points="251.9,169.2 258.9,191.9 271,174.6 	"/>
	<polygon class="st116" points="245.9,127.8 251.9,169.2 271,174.6 	"/>
	<polygon class="st117" points="245.9,127.8 239.8,158 251.9,169.2 	"/>
	<polygon class="st118" points="239.8,158 227.1,164.1 251.9,169.2 	"/>
	<polygon class="st119" points="227.1,164.1 249.6,196.4 251.9,169.2 	"/>
	<polygon class="st120" points="227.1,164.1 225.1,201.4 249.6,196.4 	"/>
	<polygon class="st121" points="217,145.2 245.9,127.8 239.8,158 	"/>
	<polygon class="st122" points="217,145.2 227.1,164.1 239.8,158 	"/>
	<polygon class="st123" points="217,145.2 205.4,158.9 227.1,164.1 	"/>
	<polygon class="st124" points="205.1,136.8 205.4,158.9 217,145.2 	"/>
	<polygon class="st125" points="205.1,136.8 245.9,127.8 217,145.2 	"/>
	<polygon class="st126" points="205.1,136.8 189,158.4 205.4,158.9 	"/>
	<polygon class="st127" points="173,108.2 189,158.4 205.1,136.8 	"/>
	<polygon class="st128" points="173,108.2 242.4,79.2 205.1,136.8 	"/>
	<polygon class="st129" points="242.4,79.2 205.1,136.8 245.9,127.8 	"/>
	<polygon class="st130" points="173,108.2 145.8,160.8 189,158.4 	"/>
	<polygon class="st131" points="130.1,120.4 173,108.2 145.8,160.8 	"/>
	<polygon class="st132" points="130.1,120.4 123.6,179 145.8,160.8 	"/>
	<polygon class="st133" points="189,158.4 191,177.1 205.4,158.9 	"/>
	<polygon class="st134" points="191,177.1 205.4,158.9 203,182.2 	"/>
	<polygon class="st135" points="189,158.4 185.5,178.4 191,177.1 	"/>
	<polygon class="st136" points="189,158.4 178.1,177.8 185.5,178.4 	"/>
	<polygon class="st137" points="185.5,178.4 180.1,190.1 195.8,189.5 	"/>
	<polygon class="st138" points="185.5,178.4 191,177.1 195.8,189.5 	"/>
	<polygon class="st139" points="191,177.1 195.8,189.5 203,182.2 	"/>
	<polygon class="st140" points="203,182.2 195.8,189.5 209.4,187.9 	"/>
	<polygon class="st141" points="203,182.2 212.5,178.5 209.4,187.9 	"/>
	<polygon class="st142" points="205.4,158.9 212.5,178.5 203,182.2 	"/>
	<polygon class="st143" points="205.4,158.9 212.5,178.5 227.1,164.1 	"/>
	<polygon class="st144" points="212.5,178.5 225.1,201.4 227.1,164.1 	"/>
	<polygon class="st145" points="209.4,187.9 212.5,178.5 225.1,201.4 	"/>
	<polygon class="st146" points="180.1,190.1 187.8,195.8 195.8,189.5 	"/>
	<polygon class="st147" points="180.1,190.1 180.1,202.9 187.8,195.8 	"/>
	<polygon class="st148" points="187.8,195.8 180.1,202.9 190.8,204.6 	"/>
	<polygon class="st149" points="187.8,195.8 201,196.2 190.8,204.6 	"/>
	<polygon class="st150" points="195.8,189.5 209.4,187.9 201,196.2 	"/>
	<polygon class="st151" points="209.4,187.9 209.2,196.6 201,196.2 	"/>
	<polygon class="st152" points="201,196.2 205.4,202.9 190.8,204.6 	"/>
	<polygon class="st153" points="209.4,187.9 209.2,196.6 225.1,201.4 	"/>
	<polygon class="st154" points="225.1,201.4 249.6,196.4 242.6,213.2 	"/>
	<polygon class="st155" points="225.1,201.4 227,223.6 242.6,213.2 	"/>
	<polygon class="st156" points="249.6,196.4 242.6,213.2 260.8,215.2 	"/>
	<polygon class="st157" points="249.6,196.4 258.9,191.9 251.9,169.2 	"/>
	<polygon class="st158" points="249.6,196.4 258.9,191.9 260.8,215.2 	"/>
	<polygon class="st159" points="87.2,128.8 93.9,181.1 123.6,179 	"/>
	<polygon class="st160" points="93.9,181.1 96,195.9 123.6,179 	"/>
	<polygon class="st161" points="96,195.9 123.6,179 135.1,207.9 	"/>
	<polygon class="st162" points="123.6,179 143.2,190.6 135.1,207.9 	"/>
	<polygon class="st127" points="143.2,190.6 156.9,198.8 135.1,207.9 	"/>
	<polygon class="st163" points="135.1,207.9 142.6,222.5 156.9,198.8 	"/>
	<polygon class="st119" points="123.6,179 138.5,176.2 143.2,190.6 	"/>
	<polygon class="st164" points="123.6,179 145.8,160.8 138.5,176.2 	"/>
	<polygon class="st165" points="145.8,160.8 161.1,177.8 138.5,176.2 	"/>
	<polygon class="st123" points="138.5,176.2 150.8,186 161.1,177.8 	"/>
	<polygon class="st166" points="138.5,176.2 143.2,190.6 150.8,186 	"/>
	<polygon class="st167" points="143.2,190.6 150.8,186 156.9,198.8 	"/>
	<polygon class="st168" points="150.8,186 161.1,177.8 169.8,187.5 	"/>
	<polygon class="st169" points="150.8,186 169.8,187.5 156.9,198.8 	"/>
	<polygon class="st170" points="156.9,198.8 169.8,187.5 172.1,195.6 	"/>
	<polygon class="st133" points="145.8,160.8 167.4,174.8 161.1,177.8 	"/>
	<polygon class="st171" points="161.1,177.8 167.4,174.8 169.8,187.5 	"/>
	<polygon class="st172" points="167.4,174.8 178.1,177.8 169.8,187.5 	"/>
	<polygon class="st173" points="169.8,187.5 178.1,177.8 180.1,190.1 	"/>
	<polygon class="st174" points="169.8,187.5 180.1,190.1 172.1,195.6 	"/>
	<polygon class="st175" points="178.1,177.8 185.5,178.4 180.1,190.1 	"/>
	<polygon class="st176" points="145.8,160.8 189,158.4 167.4,174.8 	"/>
	<polygon class="st177" points="189,158.4 167.4,174.8 178.1,177.8 	"/>
	<polygon class="st178" points="156.9,198.8 163.9,202.9 172.1,195.6 	"/>
	<polygon class="st179" points="156.9,198.8 163.9,202.9 142.6,222.5 	"/>
	<polygon class="st180" points="142.6,222.5 172.8,208.9 163.9,202.9 	"/>
	<polygon class="st181" points="142.6,222.5 166.6,234.6 172.8,208.9 	"/>
	<polygon class="st182" points="163.9,202.9 172.1,195.6 172.8,208.9 	"/>
	<polygon class="st183" points="172.1,195.6 180.1,202.9 172.8,208.9 	"/>
	<polygon class="st184" points="172.1,195.6 180.1,190.1 180.1,202.9 	"/>
	<polygon class="st185" points="172.8,208.9 180.1,202.9 189,212.8 	"/>
	<polygon class="st186" points="201,196.2 205.4,202.9 209.2,196.6 	"/>
	<polygon class="st187" points="190.8,204.6 189,212.8 205.4,202.9 	"/>
	<polygon class="st188" points="180.1,202.9 190.8,204.6 189,212.8 	"/>
	<polygon class="st24" points="172.8,208.9 189,212.8 166.6,234.6 	"/>
	<polygon class="st189" points="166.6,234.6 189,212.8 202.6,229.8 	"/>
	<polygon class="st190" points="166.6,234.6 202.6,229.8 222.8,251.9 	"/>
	<polygon class="st191" points="166.6,234.6 144.1,263.8 222.8,251.9 	"/>
	<polygon class="st192" points="142.6,222.5 144.1,263.8 166.6,234.6 	"/>
	<polygon class="st193" points="91.2,232.2 142.6,222.5 144.1,263.8 	"/>
	<polygon class="st194" points="76.1,248.5 91.2,232.2 144.1,263.8 	"/>
	<polygon class="st195" points="76.1,248.5 68.9,287.9 144.1,263.8 	"/>
	<polygon class="st196" points="144.1,263.8 222.8,251.9 242.6,267.9 	"/>
	<polygon class="st157" points="189,212.8 205.4,202.9 215.6,212.9 	"/>
	<polygon class="st96" points="189,212.8 215.6,212.9 202.6,229.8 	"/>
	<polygon class="st197" points="215.6,212.9 227,223.6 202.6,229.8 	"/>
	<polygon class="st198" points="202.6,229.8 227,223.6 222.8,251.9 	"/>
	<polygon class="st199" points="227,223.6 266.2,233.1 222.8,251.9 	"/>
	<polygon class="st200" points="215.6,212.9 225.1,201.4 227,223.6 	"/>
	<polygon class="st201" points="209.2,196.6 215.6,212.9 225.1,201.4 	"/>
	<polygon class="st202" points="209.2,196.6 205.4,202.9 215.6,212.9 	"/>
	<polygon class="st203" points="242.6,213.2 227,223.6 266.2,233.1 	"/>
	<polygon class="st204" points="242.6,213.2 260.8,215.2 266.2,233.1 	"/>
	<polygon class="st205" points="222.8,251.9 242.6,267.9 266.2,233.1 	"/>
	<polygon class="st206" points="266.2,233.1 242.6,267.9 260.4,275.1 	"/>
	<polygon class="st207" points="266.2,233.1 288.6,236.1 260.4,275.1 	"/>
	<polygon class="st208" points="288.6,236.1 260.4,275.1 307.1,292 	"/>
	<polygon class="st110" points="68.9,287.9 75.5,337.1 144.1,263.8 	"/>
	<polygon class="st209" points="75.5,337.1 83.2,381 144.1,263.8 	"/>
	<polygon class="st195" points="144.1,263.8 242.6,267.9 244.5,372.4 	"/>
	<polygon class="st210" points="244.5,372.4 273.2,348.6 254,384.8 	"/>
	<polygon class="st108" points="254,384.8 281.2,387.1 273.2,348.6 	"/>
	<polygon class="st211" points="273.2,348.6 317.2,364.9 281.2,387.1 	"/>
	<polygon class="st212" points="281.2,387.1 317.2,364.9 298.2,392.9 	"/>
	<polygon class="st213" points="281.2,387.1 290.8,461.9 298.2,392.9 	"/>
	<polygon class="st211" points="281.2,387.1 267.1,464.8 290.8,461.9 	"/>
	<polygon class="st214" points="254,384.8 281.2,387.1 267.1,464.8 	"/>
	<polygon class="st215" points="267.1,464.8 285.6,479.8 287,470.2 	"/>
	<polygon class="st216" points="267.1,464.8 263.8,480.8 285.6,479.8 	"/>
	<polygon class="st217" points="251.4,469.2 267.1,464.8 263.8,480.8 	"/>
	<polygon class="st218" points="251.4,469.2 245,485.1 263.8,480.8 	"/>
	<polygon class="st219" points="234.8,467.1 251.4,469.2 245,485.1 	"/>
	<polygon class="st220" points="214.6,462.1 234.8,467.1 245,485.1 	"/>
	<polygon class="st221" points="245,485.1 263.8,480.8 267.2,498.8 	"/>
	<polygon class="st222" points="214.6,462.1 180.1,549.5 245,485.1 	"/>
	<polygon class="st192" points="245,485.1 180.1,549.5 267.2,498.8 	"/>
	<polygon class="st223" points="267.2,498.8 237,590.5 180.1,549.5 	"/>
	<polygon class="st224" points="267.2,498.8 286,507 237,590.5 	"/>
	<polygon class="st225" points="267.2,498.8 285.6,479.8 286,507 	"/>
	<polygon class="st226" points="263.8,480.8 285.6,479.8 267.2,498.8 	"/>
	<polygon class="st227" points="285.6,479.8 310.9,493.6 286,507 	"/>
	<polygon class="st228" points="286,507 310.9,493.6 316.8,512 	"/>
	<polygon class="st229" points="310.9,493.6 328.1,483.8 316.8,512 	"/>
	<polygon class="st230" points="307.3,469.2 285.6,479.8 310.9,493.6 	"/>
	<polygon class="st231" points="287,470.2 285.6,479.8 307.3,469.2 	"/>
	<polygon class="st232" points="348.7,226.1 367,278.9 307.1,292 	"/>
	<polygon class="st45" points="348.7,226.1 390.2,270.9 367,278.9 	"/>
	<polygon class="st233" points="390.2,270.9 367,278.9 404.1,290.9 	"/>
	<polygon class="st234" points="367,278.9 373.7,345.7 404.1,290.9 	"/>
	<polygon class="st181" points="307.1,292 367,278.9 373.7,345.7 	"/>
	<polygon class="st235" points="307.1,292 317.2,364.9 373.7,345.7 	"/>
	<polygon class="st206" points="307.1,292 273.2,348.6 317.2,364.9 	"/>
	<polygon class="st109" points="265.1,296.9 244.5,372.4 273.2,348.6 	"/>
	<polygon class="st208" points="265.1,296.9 307.1,292 273.2,348.6 	"/>
	<polygon class="st236" points="260.4,275.1 265.1,296.9 307.1,292 	"/>
	<polygon class="st237" points="242.6,267.9 265.1,296.9 260.4,275.1 	"/>
	<polygon class="st238" points="242.6,267.9 265.1,296.9 244.5,372.4 	"/>
	<polygon class="st239" points="8.5,118.3 87.2,128.8 93.9,181.1 	"/>
	<polygon class="st240" points="8.5,118.3 8,225 93.9,181.1 	"/>
	<polygon class="st241" points="8,225 93.9,181.1 67.5,231.3 	"/>
	<polygon class="st242" points="8,225 -3.8,267.7 67.5,231.3 	"/>
	<polygon class="st243" points="93.9,181.1 67.5,231.3 96,195.9 	"/>
	<polygon class="st127" points="96,195.9 91.2,232.2 135.1,207.9 	"/>
	<polygon class="st244" points="135.1,207.9 142.6,222.5 91.2,232.2 	"/>
	<polygon class="st245" points="96,195.9 67.5,231.3 91.2,232.2 	"/>
	<polygon class="st246" points="67.5,231.3 76.1,248.5 91.2,232.2 	"/>
	<polygon class="st247" points="-3.8,267.7 67.5,231.3 76.1,248.5 	"/>
	<polygon class="st248" points="-3.8,267.7 76.1,248.5 68.9,287.9 	"/>
	<polygon class="st249" points="-3.8,267.7 36.2,313.8 68.9,287.9 	"/>
	<polygon class="st250" points="-3.8,267.7 18.8,329.8 36.2,313.8 	"/>
	<polygon class="st70" points="36.2,313.8 68.9,287.9 75.5,337.1 	"/>
	<polygon class="st251" points="36.2,313.8 18.8,329.8 75.5,337.1 	"/>
	<polygon class="st252" points="18.8,329.8 14.7,390.8 75.5,337.1 	"/>
	<polygon class="st87" points="75.5,337.1 83.2,381 14.7,390.8 	"/>
	<polygon class="st253" points="14.7,390.8 37,423.5 83.2,381 	"/>
	<polygon class="st254" points="83.2,381 106.5,445 37,423.5 	"/>
	<polygon class="st211" points="144.1,263.8 83.2,381 244.5,372.4 	"/>
	<polygon class="st255" points="83.2,381 106.5,445 244.5,372.4 	"/>
	<polygon class="st256" points="106.5,445 214.6,462.1 244.5,372.4 	"/>
	<polygon class="st257" points="106.5,445 146,514 214.6,462.1 	"/>
	<polygon class="st258" points="106.5,445 76.7,468.5 146,514 	"/>
	<polygon class="st258" points="37,423.5 76.7,468.5 106.5,445 	"/>
	<polygon class="st241" points="37,423.5 13,488.7 76.7,468.5 	"/>
	<polygon class="st259" points="13,488.7 40.3,523 76.7,468.5 	"/>
	<polygon class="st101" points="76.7,468.5 40.3,523 146,514 	"/>
	<polygon class="st260" points="146,514 180.1,549.5 214.6,462.1 	"/>
	<polygon class="st110" points="286,507 237,590.5 266.7,616.3 	"/>
	<polygon class="st261" points="286,507 316.8,512 266.7,616.3 	"/>
	<polygon class="st262" points="316.8,512 334.2,627.3 303.8,631.7 	"/>
	<polygon class="st263" points="316.8,512 359,618.5 334.2,627.3 	"/>
	<polygon class="st264" points="316.8,512 346.5,510.9 359,618.5 	"/>
	<polygon class="st106" points="346.5,510.9 391.8,587.5 359,618.5 	"/>
	<polygon class="st265" points="346.5,510.9 363.2,500.8 391.8,587.5 	"/>
	<polygon class="st195" points="244.5,372.4 254,384.8 214.6,462.1 	"/>
	<polygon class="st195" points="254,384.8 251.4,469.2 267.1,464.8 	"/>
	<polygon class="st255" points="234.8,467.1 251.4,469.2 254,384.8 	"/>
	<polygon class="st255" points="214.6,462.1 234.8,467.1 254,384.8 	"/>
	<polygon class="st266" points="402.5,469.2 422.8,460.2 441.5,546 	"/>
	<polygon class="st19" points="422.8,460.2 482.4,492.5 441.5,546 	"/>
	<polygon class="st106" points="422.8,460.2 509.8,448.3 482.4,492.5 	"/>
	<polygon class="st235" points="87.2,128.8 94.8,30.8 130.1,120.4 	"/>
	<polygon class="st193" points="173,108.2 197,-12.2 242.4,79.2 	"/>
	<polygon class="st267" points="197,-12.2 318.5,-71 242.4,79.2 	"/>
	<polygon class="st268" points="318.5,-71 242.4,79.2 347.9,81.8 	"/>
	<polygon class="st269" points="318.5,-71 394.2,-89 347.9,81.8 	"/>
	<polygon class="st270" points="394.2,-89 454,81.7 347.9,81.8 	"/>
	<polygon class="st271" points="394.2,-89 445.2,-79.8 454,81.7 	"/>
	<polygon class="st272" points="445.2,-79.8 472.2,-88 454,81.7 	"/>
	<polygon class="st273" points="472.2,-88 587.3,71 454,81.7 	"/>
	<polygon class="st274" points="587.3,71 670.2,104 589.7,160 	"/>
	<polygon class="st275" points="587.3,71 615.5,17.2 670.2,104 	"/>
	<polygon class="st276" points="472.2,-88 615.5,17.2 587.3,71 	"/>
	<polygon class="st277" points="615.5,17.2 649.8,-44.8 670.2,104 	"/>
	<polygon class="st278" points="649.8,-44.8 812.2,115.2 670.2,104 	"/>
	<polygon class="st279" points="623.2,-90 615.5,17.2 649.8,-44.8 	"/>
	<polygon class="st280" points="472.2,-88 623.2,-90 615.5,17.2 	"/>
	<polygon class="st258" points="589.7,160 664.8,188.2 553.8,239.9 	"/>
	<polygon class="st281" points="553.8,239.9 594,276.6 664.8,188.2 	"/>
	<polygon class="st282" points="594,276.6 664.8,188.2 671.8,291.2 	"/>
	<polygon class="st139" points="594,276.6 671.8,291.2 653,339.5 	"/>
	<polygon class="st283" points="594,276.6 539.5,361 653,339.5 	"/>
	<polygon class="st284" points="539.5,361 509.8,448.3 555.8,428.2 	"/>
	<polygon class="st285" points="539.5,361 555.8,428.2 653,339.5 	"/>
	<polygon class="st286" points="555.8,428.2 653,339.5 627.5,465.8 	"/>
	<polygon class="st287" points="653,339.5 672.8,347.2 627.5,465.8 	"/>
	<polygon class="st288" points="553.8,277.9 539.5,361 594,276.6 	"/>
	<polygon class="st289" points="87.2,128.8 130.1,120.4 123.6,179 	"/>
	<polygon class="st290" points="94.8,30.8 197,-12.2 173,108.2 	"/>
	<polygon class="st196" points="94.8,30.8 138.3,-91.7 197,-12.2 	"/>
	<polygon class="st291" points="59,-34 138.3,-91.7 94.8,30.8 	"/>
	<polygon class="st292" points="59,-34 62.7,13.3 94.8,30.8 	"/>
	<polygon class="st293" points="62.7,13.3 32,55 94.8,30.8 	"/>
	<polygon class="st294" points="-61.7,-15.7 59,-34 62.7,13.3 	"/>
	<polygon class="st190" points="-61.7,-15.7 62.7,13.3 32,55 	"/>
	<polygon class="st143" points="-61.7,-15.7 32,55 21.3,92.7 	"/>
	<polygon class="st295" points="-61.7,-15.7 21.3,92.7 8.5,118.3 	"/>
	<polygon class="st296" points="21.3,92.7 32,55 87.2,128.8 	"/>
	<polygon class="st297" points="8.5,118.3 21.3,92.7 87.2,128.8 	"/>
	<polygon class="st298" points="32,55 94.8,30.8 87.2,128.8 	"/>
	<polygon class="st299" points="-61.7,-15.7 -136,133 8.5,118.3 	"/>
	<polygon class="st157" points="-136,133 8.5,118.3 8,225 	"/>
	<polygon class="st300" points="-136,133 8,225 -3.8,267.7 	"/>
	<polygon class="st301" points="-136,133 -175,310.7 -3.8,267.7 	"/>
	<polygon class="st40" points="-175,310.7 -3.8,267.7 -34.3,333.7 	"/>
	<polygon class="st299" points="-175,310.7 -34.3,333.7 -91,434.7 	"/>
	<polygon class="st302" points="-34.3,333.7 -23,367 -91,434.7 	"/>
	<polygon class="st303" points="-34.3,333.7 -23,367 18.8,329.8 	"/>
	<polygon class="st304" points="-3.8,267.7 -34.3,333.7 18.8,329.8 	"/>
	<polygon class="st305" points="-23,367 18.8,329.8 14.7,390.8 	"/>
	<polygon class="st306" points="-23,367 14.7,390.8 -1.3,464.7 	"/>
	<polygon class="st307" points="-91,434.7 -23,367 -1.3,464.7 	"/>
	<polygon class="st308" points="-1.3,464.7 37,423.5 14.7,390.8 	"/>
	<polygon class="st239" points="-1.3,464.7 13,488.7 37,423.5 	"/>
	<polygon class="st157" points="-91,434.7 -42.7,478 -1.3,464.7 	"/>
	<polygon class="st309" points="-42.7,478 -1.3,464.7 13,488.7 	"/>
	<polygon class="st310" points="-42.7,478 -51.3,498.7 13,488.7 	"/>
	<polygon class="st311" points="-91,434.7 -51.3,498.7 -42.7,478 	"/>
	<polygon class="st312" points="-91,434.7 -173.7,542.7 -51.3,498.7 	"/>
	<polygon class="st313" points="-175,310.7 -91,434.7 -173.7,542.7 	"/>
	<polygon class="st314" points="-51.3,498.7 -42.7,571.7 13,488.7 	"/>
	<polygon class="st198" points="13,488.7 -42.7,571.7 40.3,523 	"/>
	<polygon class="st152" points="40.3,523 -42.7,571.7 4,591.3 	"/>
	<polygon class="st315" points="40.3,523 4,591.3 36.3,615.3 	"/>
	<polygon class="st283" points="40.3,523 36.3,615.3 146,514 	"/>
	<polygon class="st316" points="-173.7,542.7 -51.3,498.7 -100.3,580.7 	"/>
	<polygon class="st110" points="-173.7,542.7 -100.3,580.7 -109.7,589.7 	"/>
	<polygon class="st181" points="-51.3,498.7 -100.3,580.7 -42.7,571.7 	"/>
	<polygon class="st317" points="-100.3,580.7 -82.2,590 -42.7,571.7 	"/>
	<polygon class="st318" points="-100.3,580.7 -109.7,589.7 -96,596 	"/>
	<polygon class="st319" points="-100.3,580.7 -96,596 -82.2,590 	"/>
	<polygon class="st320" points="-82.2,590 -68.7,601 -42.7,571.7 	"/>
	<polygon class="st321" points="-96,596 -82.2,590 -68.7,601 	"/>
	<polygon class="st322" points="-68.7,601 -42.7,571.7 -52,602.3 	"/>
	<polygon class="st323" points="-42.7,571.7 -47.5,607.2 -52,602.3 	"/>
	<polygon class="st324" points="-42.7,571.7 4,591.3 -47.5,607.2 	"/>
	<polygon class="st325" points="-47.5,607.2 -42.2,626.8 4,591.3 	"/>
	<polygon class="st326" points="4,591.3 -42.2,626.8 -17.3,669.2 	"/>
	<polygon class="st327" points="4,591.3 36.3,615.3 -17.3,669.2 	"/>
	<polygon class="st328" points="36.3,615.3 55.8,650.5 -17.3,669.2 	"/>
	<polygon class="st4" points="-68.7,601 -52,602.3 -47.5,607.2 	"/>
	<polygon class="st329" points="-68.7,601 -42.2,626.8 -47.5,607.2 	"/>
	<polygon class="st330" points="-96,596 -68.7,601 -42.2,626.8 	"/>
	<polygon class="st331" points="-96,596 -35.3,711.2 -42.2,626.8 	"/>
	<polygon class="st332" points="-42.2,626.8 -17.3,669.2 -35.3,711.2 	"/>
	<polygon class="st333" points="-17.3,669.2 2.2,727.2 -35.3,711.2 	"/>
	<polygon class="st334" points="-17.3,669.2 55.8,650.5 2.2,727.2 	"/>
	<polygon class="st62" points="2.2,727.2 29.2,743.2 55.8,650.5 	"/>
	<polygon class="st136" points="-35.3,711.2 -38,735.5 2.2,727.2 	"/>
	<polygon class="st283" points="29.2,743.2 55.8,650.5 86.3,803 	"/>
	<polygon class="st285" points="36.3,615.3 146,514 180.1,549.5 	"/>
	<polygon class="st281" points="36.3,615.3 55.8,650.5 180.1,549.5 	"/>
	<polygon class="st335" points="180.1,549.5 237,590.5 55.8,650.5 	"/>
	<polygon class="st245" points="55.8,650.5 237,590.5 266.7,616.3 	"/>
	<polygon class="st336" points="55.8,650.5 86.3,803 266.7,616.3 	"/>
	<polygon class="st201" points="86.3,803 123.3,827 266.7,616.3 	"/>
	<polygon class="st202" points="266.7,616.3 303.8,631.7 123.3,827 	"/>
	<polygon class="st201" points="303.8,631.7 290.3,876.7 123.3,827 	"/>
	<polygon class="st337" points="303.8,631.7 334.2,627.3 290.3,876.7 	"/>
	<polygon class="st299" points="334.2,627.3 507.3,701.7 290.3,876.7 	"/>
	<polygon class="st338" points="334.2,627.3 359,618.5 507.3,701.7 	"/>
	<polygon class="st199" points="507.3,701.7 591,817 290.3,876.7 	"/>
	<polygon class="st339" points="507.3,701.7 599,771.3 591,817 	"/>
	<polygon class="st340" points="599,771.3 656.7,835.7 591,817 	"/>
	<polygon class="st338" points="599,771.3 699.3,722 656.7,835.7 	"/>
	<polygon class="st341" points="699.3,722 727.3,747.3 656.7,835.7 	"/>
	<polygon class="st245" points="359,618.5 391.8,587.5 507.3,701.7 	"/>
	<polygon class="st342" points="391.8,587.5 479.7,590.7 507.3,701.7 	"/>
	<polygon class="st339" points="391.8,587.5 441.5,546 479.7,590.7 	"/>
	<polygon class="st343" points="479.7,590.7 659.7,611.7 507.3,701.7 	"/>
	<polygon class="st344" points="479.7,590.7 513,521.3 659.7,611.7 	"/>
	<polygon class="st251" points="441.5,546 513,521.3 479.7,590.7 	"/>
	<polygon class="st345" points="441.5,546 482.4,492.5 513,521.3 	"/>
	<polygon class="st249" points="513,521.3 621.7,516 659.7,611.7 	"/>
	<polygon class="st285" points="513,521.3 556.3,427.3 621.7,516 	"/>
	<polygon class="st346" points="556.2,427.6 627.5,465.8 621.7,516 	"/>
	<polygon class="st347" points="627.5,465.8 671.7,506 621.7,516 	"/>
	<polygon class="st315" points="621.7,516 671.7,506 679.7,554.7 	"/>
	<polygon class="st14" points="621.7,516 679.7,554.7 659.7,611.7 	"/>
	<polygon class="st241" points="482.4,492.5 509.8,448.3 513,521.3 	"/>
	<polygon class="st241" points="509.8,448.3 555.8,428.2 513,521.3 	"/>
	<polygon class="st348" points="589.7,160 670.2,104 664.8,188.2 	"/>
	<polygon class="st349" points="670.2,104 750.5,180 664.8,188.2 	"/>
	<polygon class="st152" points="670.2,104 812.2,115.2 750.5,180 	"/>
	<polygon class="st278" points="649.8,-44.8 670.2,104 812.2,115.2 	"/>
	<polygon class="st350" points="623.2,-90 649.8,-44.8 806,-91 	"/>
	<polygon class="st249" points="649.8,-44.8 806,-91 812.2,115.2 	"/>
	<polygon class="st351" points="664.8,188.2 671.8,291.2 750.5,180 	"/>
	<polygon class="st352" points="750.5,180 812.2,115.2 808.5,512.5 	"/>
	<polygon class="st353" points="672.8,347.2 750.5,180 808.5,512.5 	"/>
	<polygon class="st354" points="653,339.5 671.8,291.2 672.8,347.2 	"/>
	<polygon class="st355" points="671.8,291.2 750.5,180 672.8,347.2 	"/>
	<polygon class="st356" points="627.5,465.8 672.8,347.2 671.7,506 	"/>
	<polygon class="st239" points="672.8,347.2 808.5,512.5 671.7,506 	"/>
	<polygon class="st357" points="671.7,506 808.5,512.5 737,536 	"/>
	<polygon class="st358" points="671.7,506 679.7,554.7 699,547.5 	"/>
	<polygon class="st15" points="671.7,506 699,547.5 737,536 	"/>
	<polygon class="st239" points="737,536 769,579.5 808.5,512.5 	"/>
	<polygon class="st353" points="699,547.5 737,536 769,579.5 	"/>
	<polygon class="st353" points="769,579.5 808.5,512.5 794.5,589.5 	"/>
	<polygon class="st359" points="769,579.5 733.5,611.5 794.5,589.5 	"/>
	<polygon class="st139" points="699,547.5 733.5,611.5 769,579.5 	"/>
	<polygon class="st360" points="679.7,554.7 699,547.5 733.5,611.5 	"/>
	<polygon class="st361" points="679.7,554.7 659.7,611.7 733.5,611.5 	"/>
	<polygon class="st245" points="659.7,611.7 699.3,722 733.5,611.5 	"/>
	<polygon class="st197" points="733.5,611.5 699.3,722 727.3,747.3 	"/>
	<polygon class="st90" points="733.5,611.5 794.5,589.5 727.3,747.3 	"/>
	<polygon class="st362" points="507.3,701.7 659.7,611.7 599,771.3 	"/>
	<polygon class="st308" points="659.7,611.7 599,771.3 699.3,722 	"/>
	<polygon class="st363" points="727.3,747.3 794.5,589.5 800.5,883 	"/>
	<polygon class="st364" points="808.5,512.5 794.5,589.5 800.5,883 	"/>
	<polygon class="st322" points="727.3,747.3 656.7,835.7 800.5,883 	"/>
	<polygon class="st341" points="699.3,722 656.7,835.7 727.3,747.3 	"/>
	<polygon class="st365" points="290.3,876.7 591,817 656.7,835.7 	"/>
	<polygon class="st21" points="290.3,876.7 656.7,835.7 800.5,883 	"/>
	<polygon class="st366" points="29.2,743.2 -102,788 86.3,803 	"/>
	<polygon class="st347" points="-102,788 -168.5,883 86.3,803 	"/>
	<polygon class="st367" points="86.3,803 -168.5,883 123.3,827 	"/>
	<polygon class="st313" points="123.3,827 -168.5,883 290.3,876.7 	"/>
	<polygon class="st368" points="-102,788 -168,827 -168.5,883 	"/>
	<polygon class="st369" points="-96,596 -102,788 -35.3,711.2 	"/>
	<polygon class="st370" points="-38,735.5 2.2,727.2 29.2,743.2 	"/>
	<polygon class="st354" points="-38,735.5 -102,788 29.2,743.2 	"/>
	<polygon class="st39" points="-35.3,711.2 -102,788 -38,735.5 	"/>
	<polygon class="st371" points="-109.7,589.7 -96,596 -102,788 	"/>
	<polygon class="st24" points="-109.7,589.7 -168,827 -102,788 	"/>
	<polygon class="st372" points="-173.7,542.7 -109.7,589.7 -168,827 	"/>
	<polygon class="st373" points="-178,-46.7 -136,133 -175,310.7 	"/>
	<polygon class="st367" points="-178,-46.7 -61.7,-15.7 -136,133 	"/>
	<polygon class="st81" points="-178,-46.7 -179.3,-90 -61.7,-15.7 	"/>
	<polygon class="st374" points="-179.3,-90 78.3,-86.7 -61.7,-15.7 	"/>
	<polygon class="st375" points="-61.7,-15.7 78.3,-86.7 59,-34 	"/>
	<polygon class="st376" points="78.3,-86.7 138.3,-91.7 59,-34 	"/>
	<polygon class="st377" points="-179.3,-90 138.3,-91.7 78.3,-86.7 	"/>
	<polygon class="st130" points="138.3,-91.7 167.7,-86.7 219.3,-86.3 	"/>
	<polygon class="st378" points="138.3,-91.7 167.7,-86.7 197,-12.2 	"/>
	<polygon class="st145" points="167.7,-86.7 219.3,-86.3 197,-12.2 	"/>
	<polygon class="st379" points="219.3,-86.3 273.3,-90.7 197,-12.2 	"/>
	<polygon class="st380" points="273.3,-90.7 318.5,-71 197,-12.2 	"/>
	<polygon class="st127" points="273.3,-90.7 394.2,-89 318.5,-71 	"/>
	<polygon class="st381" points="138.3,-91.7 219.3,-86.3 273.3,-90.7 	"/>
	<polygon class="st382" points="394.2,-89 472.2,-88 445.2,-79.8 	"/>
	<polygon class="st315" points="454,81.7 587.3,71 462.7,123.3 	"/>
	<polygon class="st315" points="462.7,123.3 587.3,71 541.3,148 	"/>
	<polygon class="st383" points="587.3,71 589.7,160 541.3,148 	"/>
	<polygon class="st291" points="541.3,148 539.7,193.7 589.7,160 	"/>
	<polygon class="st356" points="539.7,193.7 553.8,239.9 589.7,160 	"/>
	<polygon class="st384" points="541.3,148 509.3,193.7 539.7,193.7 	"/>
	<polygon class="st385" points="462.7,123.3 461,154.7 493.3,176 	"/>
	<polygon class="st331" points="462.7,123.3 541.3,148 493.3,176 	"/>
	<polygon class="st386" points="493.3,176 509.3,193.7 541.3,148 	"/>
	<polygon class="st334" points="459,166.2 493.3,176 484,191.9 	"/>
	<polygon class="st387" points="493.3,176 484,191.9 505.5,196.1 	"/>
	<polygon class="st388" points="459,166.2 441.1,182.6 460.2,189.9 	"/>
	<polygon class="st389" points="493.3,176 505.5,196.1 509.3,193.7 	"/>
	<polygon class="st390" points="462.7,123.3 412.3,160 461,154.7 	"/>
	<polygon class="st207" points="316.8,512 303.8,631.7 266.7,616.3 	"/>
	<polygon class="st207" points="94.8,30.8 173,108.2 130.1,120.4 	"/>
	<polygon class="st391" points="195.8,189.5 201,196.2 187.8,195.8 	"/>
</g>
</svg>
